<mxfile host="Electron" agent="Mozilla/5.0 (Windows NT 10.0; Win64; x64) AppleWebKit/537.36 (KHTML, like Gecko) draw.io/26.2.15 Chrome/134.0.6998.205 Electron/35.2.1 Safari/537.36" version="26.2.15">
  <diagram id="1A0_N6WVCGxHhhMu5QUB" name="Page-1">
    <mxGraphModel dx="2066" dy="2302" grid="1" gridSize="10" guides="1" tooltips="1" connect="1" arrows="1" fold="1" page="1" pageScale="1" pageWidth="850" pageHeight="1100" math="0" shadow="0">
      <root>
        <mxCell id="0" />
        <mxCell id="1" parent="0" />
        <mxCell id="2" value="HMC-main" style="rounded=0;whiteSpace=wrap;html=1;" parent="1" vertex="1">
          <mxGeometry x="200" y="160" width="120" height="60" as="geometry" />
        </mxCell>
        <mxCell id="3" value="setup_process" style="rounded=0;whiteSpace=wrap;html=1;" parent="1" vertex="1">
          <mxGeometry x="200" y="280" width="120" height="60" as="geometry" />
        </mxCell>
        <mxCell id="4" value="setup_gauge_fields" style="rounded=0;whiteSpace=wrap;html=1;" parent="1" vertex="1">
          <mxGeometry x="200" y="400" width="120" height="60" as="geometry" />
        </mxCell>
        <mxCell id="5" value="" style="edgeStyle=segmentEdgeStyle;endArrow=classic;html=1;curved=0;rounded=0;endSize=8;startSize=8;exitX=0.5;exitY=1;exitDx=0;exitDy=0;entryX=0.5;entryY=0;entryDx=0;entryDy=0;" parent="1" source="2" target="3" edge="1">
          <mxGeometry width="50" height="50" relative="1" as="geometry">
            <mxPoint x="860" y="600" as="sourcePoint" />
            <mxPoint x="910" y="550" as="targetPoint" />
            <Array as="points">
              <mxPoint x="260" y="230" />
              <mxPoint x="260" y="230" />
            </Array>
          </mxGeometry>
        </mxCell>
        <mxCell id="63" value="&lt;font color=&quot;#ff66ff&quot;&gt;hmc.c&lt;/font&gt;" style="edgeLabel;html=1;align=center;verticalAlign=middle;resizable=0;points=[];" parent="5" vertex="1" connectable="0">
          <mxGeometry x="-0.5259" y="-1" relative="1" as="geometry">
            <mxPoint as="offset" />
          </mxGeometry>
        </mxCell>
        <mxCell id="6" value="" style="edgeStyle=segmentEdgeStyle;endArrow=classic;html=1;curved=0;rounded=0;endSize=8;startSize=8;exitX=0.5;exitY=1;exitDx=0;exitDy=0;entryX=0.5;entryY=0;entryDx=0;entryDy=0;" parent="1" source="3" target="4" edge="1">
          <mxGeometry width="50" height="50" relative="1" as="geometry">
            <mxPoint x="220" y="230" as="sourcePoint" />
            <mxPoint x="270" y="290" as="targetPoint" />
            <Array as="points">
              <mxPoint x="260" y="390" />
              <mxPoint x="260" y="390" />
            </Array>
          </mxGeometry>
        </mxCell>
        <mxCell id="7" value="init_mc_ghmc" style="rounded=0;whiteSpace=wrap;html=1;" parent="1" vertex="1">
          <mxGeometry x="200" y="520" width="120" height="60" as="geometry" />
        </mxCell>
        <mxCell id="8" value="" style="edgeStyle=segmentEdgeStyle;endArrow=classic;html=1;curved=0;rounded=0;endSize=8;startSize=8;exitX=0.5;exitY=1;exitDx=0;exitDy=0;entryX=0.5;entryY=0;entryDx=0;entryDy=0;" parent="1" source="7" target="9" edge="1">
          <mxGeometry width="50" height="50" relative="1" as="geometry">
            <mxPoint x="259.8" y="590" as="sourcePoint" />
            <mxPoint x="259.8" y="650" as="targetPoint" />
            <Array as="points" />
          </mxGeometry>
        </mxCell>
        <mxCell id="9" value="update_ghmc" style="rounded=0;whiteSpace=wrap;html=1;" parent="1" vertex="1">
          <mxGeometry x="200" y="640" width="120" height="60" as="geometry" />
        </mxCell>
        <mxCell id="10" value="" style="edgeStyle=segmentEdgeStyle;endArrow=classic;html=1;curved=0;rounded=0;endSize=8;startSize=8;exitX=0.5;exitY=1;exitDx=0;exitDy=0;entryX=0.5;entryY=0;entryDx=0;entryDy=0;" parent="1" source="4" target="7" edge="1">
          <mxGeometry width="50" height="50" relative="1" as="geometry">
            <mxPoint x="269.8" y="600" as="sourcePoint" />
            <mxPoint x="269.8" y="660" as="targetPoint" />
            <Array as="points">
              <mxPoint x="260" y="490" />
              <mxPoint x="260" y="490" />
            </Array>
          </mxGeometry>
        </mxCell>
        <mxCell id="11" value="MEASURE&lt;br&gt;FORCE" style="strokeWidth=2;html=1;shape=mxgraph.flowchart.decision;whiteSpace=wrap;" parent="1" vertex="1">
          <mxGeometry x="210" y="760" width="100" height="100" as="geometry" />
        </mxCell>
        <mxCell id="12" value="" style="edgeStyle=segmentEdgeStyle;endArrow=classic;html=1;curved=0;rounded=0;endSize=8;startSize=8;exitX=0.5;exitY=1;exitDx=0;exitDy=0;entryX=0.5;entryY=0;entryDx=0;entryDy=0;entryPerimeter=0;" parent="1" source="9" target="11" edge="1">
          <mxGeometry width="50" height="50" relative="1" as="geometry">
            <mxPoint x="270" y="590" as="sourcePoint" />
            <mxPoint x="270" y="650" as="targetPoint" />
            <Array as="points" />
          </mxGeometry>
        </mxCell>
        <mxCell id="13" value="IFDEF" style="edgeLabel;html=1;align=center;verticalAlign=middle;resizable=0;points=[];" parent="12" vertex="1" connectable="0">
          <mxGeometry x="-0.0022" relative="1" as="geometry">
            <mxPoint as="offset" />
          </mxGeometry>
        </mxCell>
        <mxCell id="14" value="SMEARING" style="strokeWidth=2;html=1;shape=mxgraph.flowchart.decision;whiteSpace=wrap;" parent="1" vertex="1">
          <mxGeometry x="316" y="760" width="100" height="100" as="geometry" />
        </mxCell>
        <mxCell id="15" value="" style="edgeStyle=segmentEdgeStyle;endArrow=classic;html=1;curved=0;rounded=0;endSize=8;startSize=8;exitX=0.5;exitY=1;exitDx=0;exitDy=0;entryX=0.5;entryY=0;entryDx=0;entryDy=0;entryPerimeter=0;" parent="1" source="9" target="14" edge="1">
          <mxGeometry width="50" height="50" relative="1" as="geometry">
            <mxPoint x="270" y="710" as="sourcePoint" />
            <mxPoint x="270" y="770" as="targetPoint" />
            <Array as="points">
              <mxPoint x="260" y="720" />
              <mxPoint x="366" y="720" />
            </Array>
          </mxGeometry>
        </mxCell>
        <mxCell id="23" value="IFDEF" style="edgeLabel;html=1;align=center;verticalAlign=middle;resizable=0;points=[];" parent="15" vertex="1" connectable="0">
          <mxGeometry x="0.7189" y="1" relative="1" as="geometry">
            <mxPoint as="offset" />
          </mxGeometry>
        </mxCell>
        <mxCell id="17" value="" style="edgeStyle=segmentEdgeStyle;endArrow=classic;html=1;curved=0;rounded=0;endSize=8;startSize=8;exitX=0.5;exitY=1;exitDx=0;exitDy=0;entryX=0.5;entryY=0;entryDx=0;entryDy=0;exitPerimeter=0;" parent="1" source="11" target="21" edge="1">
          <mxGeometry width="50" height="50" relative="1" as="geometry">
            <mxPoint x="260" y="880" as="sourcePoint" />
            <mxPoint x="400" y="940" as="targetPoint" />
            <Array as="points">
              <mxPoint x="260" y="900" />
              <mxPoint x="330" y="900" />
            </Array>
          </mxGeometry>
        </mxCell>
        <mxCell id="19" value="" style="edgeStyle=segmentEdgeStyle;endArrow=classic;html=1;curved=0;rounded=0;endSize=8;startSize=8;exitX=0.5;exitY=1;exitDx=0;exitDy=0;entryX=0.5;entryY=0;entryDx=0;entryDy=0;exitPerimeter=0;" parent="1" source="14" target="21" edge="1">
          <mxGeometry width="50" height="50" relative="1" as="geometry">
            <mxPoint x="270" y="870" as="sourcePoint" />
            <mxPoint x="410" y="950" as="targetPoint" />
            <Array as="points">
              <mxPoint x="366" y="900" />
              <mxPoint x="330" y="900" />
            </Array>
          </mxGeometry>
        </mxCell>
        <mxCell id="22" value="if mes_var" style="edgeLabel;html=1;align=center;verticalAlign=middle;resizable=0;points=[];" parent="19" vertex="1" connectable="0">
          <mxGeometry x="0.6139" y="1" relative="1" as="geometry">
            <mxPoint as="offset" />
          </mxGeometry>
        </mxCell>
        <mxCell id="21" value="measure&lt;br&gt;spectrum&lt;br&gt;semwall" style="rounded=0;whiteSpace=wrap;html=1;" parent="1" vertex="1">
          <mxGeometry x="270" y="950" width="120" height="60" as="geometry" />
        </mxCell>
        <mxCell id="24" value="ff_observable" style="rounded=0;whiteSpace=wrap;html=1;" parent="1" vertex="1">
          <mxGeometry x="270" y="1060" width="120" height="60" as="geometry" />
        </mxCell>
        <mxCell id="25" value="" style="edgeStyle=segmentEdgeStyle;endArrow=classic;html=1;curved=0;rounded=0;endSize=8;startSize=8;exitX=0.5;exitY=1;exitDx=0;exitDy=0;entryX=0.5;entryY=0;entryDx=0;entryDy=0;" parent="1" source="21" target="24" edge="1">
          <mxGeometry width="50" height="50" relative="1" as="geometry">
            <mxPoint x="530" y="940" as="sourcePoint" />
            <mxPoint x="460" y="1030" as="targetPoint" />
            <Array as="points">
              <mxPoint x="330" y="1030" />
              <mxPoint x="330" y="1030" />
            </Array>
          </mxGeometry>
        </mxCell>
        <mxCell id="26" value="if four_fermion_active" style="edgeLabel;html=1;align=center;verticalAlign=middle;resizable=0;points=[];" parent="25" vertex="1" connectable="0">
          <mxGeometry x="0.6139" y="1" relative="1" as="geometry">
            <mxPoint x="-1" y="-20" as="offset" />
          </mxGeometry>
        </mxCell>
        <mxCell id="27" value="polyakov" style="rounded=0;whiteSpace=wrap;html=1;" parent="1" vertex="1">
          <mxGeometry x="270" y="1170" width="120" height="60" as="geometry" />
        </mxCell>
        <mxCell id="28" value="" style="edgeStyle=segmentEdgeStyle;endArrow=classic;html=1;curved=0;rounded=0;endSize=8;startSize=8;exitX=0.5;exitY=1;exitDx=0;exitDy=0;entryX=0.5;entryY=0;entryDx=0;entryDy=0;" parent="1" source="24" target="27" edge="1">
          <mxGeometry width="50" height="50" relative="1" as="geometry">
            <mxPoint x="329.83" y="1130" as="sourcePoint" />
            <mxPoint x="329.83" y="1180" as="targetPoint" />
            <Array as="points" />
          </mxGeometry>
        </mxCell>
        <mxCell id="29" value="if polyakov" style="edgeLabel;html=1;align=center;verticalAlign=middle;resizable=0;points=[];" parent="28" vertex="1" connectable="0">
          <mxGeometry x="0.6139" y="1" relative="1" as="geometry">
            <mxPoint x="-1" y="-20" as="offset" />
          </mxGeometry>
        </mxCell>
        <mxCell id="30" value="eva" style="rounded=0;whiteSpace=wrap;html=1;" parent="1" vertex="1">
          <mxGeometry x="270" y="1280" width="120" height="60" as="geometry" />
        </mxCell>
        <mxCell id="31" value="" style="edgeStyle=segmentEdgeStyle;endArrow=classic;html=1;curved=0;rounded=0;endSize=8;startSize=8;exitX=0.5;exitY=1;exitDx=0;exitDy=0;entryX=0.5;entryY=0;entryDx=0;entryDy=0;" parent="1" source="27" target="30" edge="1">
          <mxGeometry width="50" height="50" relative="1" as="geometry">
            <mxPoint x="329.83" y="1240" as="sourcePoint" />
            <mxPoint x="330" y="1280" as="targetPoint" />
            <Array as="points" />
          </mxGeometry>
        </mxCell>
        <mxCell id="32" value="if eigval_var" style="edgeLabel;html=1;align=center;verticalAlign=middle;resizable=0;points=[];" parent="31" vertex="1" connectable="0">
          <mxGeometry x="0.6139" y="1" relative="1" as="geometry">
            <mxPoint x="-1" y="-20" as="offset" />
          </mxGeometry>
        </mxCell>
        <mxCell id="33" value="" style="edgeStyle=segmentEdgeStyle;endArrow=classic;html=1;curved=0;rounded=0;endSize=8;startSize=8;exitX=0;exitY=0.5;exitDx=0;exitDy=0;entryX=0;entryY=0.5;entryDx=0;entryDy=0;dashed=1;strokeColor=#007FFF;" parent="1" source="30" target="9" edge="1">
          <mxGeometry width="50" height="50" relative="1" as="geometry">
            <mxPoint x="50" y="980" as="sourcePoint" />
            <mxPoint x="190" y="1040" as="targetPoint" />
            <Array as="points">
              <mxPoint x="80" y="1310" />
              <mxPoint x="80" y="670" />
            </Array>
          </mxGeometry>
        </mxCell>
        <mxCell id="35" value="&lt;font color=&quot;#007fff&quot;&gt;For loop&lt;br&gt;i=flow[start,end]&lt;/font&gt;" style="edgeLabel;html=1;align=center;verticalAlign=middle;resizable=0;points=[];" parent="33" vertex="1" connectable="0">
          <mxGeometry x="0.1749" y="-1" relative="1" as="geometry">
            <mxPoint as="offset" />
          </mxGeometry>
        </mxCell>
        <mxCell id="36" value="update_ghmc" style="rounded=0;whiteSpace=wrap;html=1;" parent="1" vertex="1">
          <mxGeometry x="560" y="640" width="120" height="60" as="geometry" />
        </mxCell>
        <mxCell id="37" value="" style="edgeStyle=segmentEdgeStyle;endArrow=classic;html=1;curved=0;rounded=0;endSize=8;startSize=8;exitX=1;exitY=0.5;exitDx=0;exitDy=0;entryX=0;entryY=0.5;entryDx=0;entryDy=0;" parent="1" source="9" target="36" edge="1">
          <mxGeometry width="50" height="50" relative="1" as="geometry">
            <mxPoint x="270" y="590" as="sourcePoint" />
            <mxPoint x="450" y="680" as="targetPoint" />
            <Array as="points" />
          </mxGeometry>
        </mxCell>
        <mxCell id="38" value="&lt;font color=&quot;#ff66ff&quot;&gt;file:&lt;br&gt;./LibHR/Update/update_mt_c&lt;/font&gt;" style="edgeLabel;html=1;align=center;verticalAlign=middle;resizable=0;points=[];" parent="37" vertex="1" connectable="0">
          <mxGeometry x="-0.0202" y="1" relative="1" as="geometry">
            <mxPoint as="offset" />
          </mxGeometry>
        </mxCell>
        <mxCell id="39" value="&lt;font color=&quot;#00cc00&quot;&gt;header:&lt;br&gt;./include/update.h&lt;/font&gt;" style="rounded=1;whiteSpace=wrap;html=1;" parent="1" vertex="1">
          <mxGeometry x="380" y="580" width="120" height="60" as="geometry" />
        </mxCell>
        <mxCell id="40" value="" style="edgeStyle=segmentEdgeStyle;endArrow=classic;html=1;curved=0;rounded=0;endSize=8;startSize=8;exitX=1;exitY=0.5;exitDx=0;exitDy=0;entryX=0.5;entryY=0;entryDx=0;entryDy=0;strokeColor=#00CC00;dashed=1;" parent="1" source="39" target="36" edge="1">
          <mxGeometry width="50" height="50" relative="1" as="geometry">
            <mxPoint x="270" y="590" as="sourcePoint" />
            <mxPoint x="270" y="650" as="targetPoint" />
            <Array as="points">
              <mxPoint x="620" y="610" />
            </Array>
          </mxGeometry>
        </mxCell>
        <mxCell id="41" value="" style="edgeStyle=segmentEdgeStyle;endArrow=classic;html=1;curved=0;rounded=0;endSize=8;startSize=8;exitX=1;exitY=0.5;exitDx=0;exitDy=0;entryX=0;entryY=0.5;entryDx=0;entryDy=0;strokeColor=#00CC00;dashed=1;" parent="1" source="9" target="39" edge="1">
          <mxGeometry width="50" height="50" relative="1" as="geometry">
            <mxPoint x="450" y="600" as="sourcePoint" />
            <mxPoint x="630" y="650" as="targetPoint" />
            <Array as="points">
              <mxPoint x="350" y="670" />
              <mxPoint x="350" y="610" />
            </Array>
          </mxGeometry>
        </mxCell>
        <mxCell id="42" value="gaussian_momenta&lt;br&gt;(scalar)" style="rounded=0;whiteSpace=wrap;html=1;" parent="1" vertex="1">
          <mxGeometry x="840" y="640" width="120" height="60" as="geometry" />
        </mxCell>
        <mxCell id="43" value="local_hmc_action" style="rounded=0;whiteSpace=wrap;html=1;" parent="1" vertex="1">
          <mxGeometry x="840" y="790" width="120" height="60" as="geometry" />
        </mxCell>
        <mxCell id="44" value="" style="edgeStyle=segmentEdgeStyle;endArrow=classic;html=1;curved=0;rounded=0;endSize=8;startSize=8;exitX=0.75;exitY=0;exitDx=0;exitDy=0;entryX=0.5;entryY=0;entryDx=0;entryDy=0;" parent="1" source="36" target="42" edge="1">
          <mxGeometry width="50" height="50" relative="1" as="geometry">
            <mxPoint x="520" y="910" as="sourcePoint" />
            <mxPoint x="760" y="910" as="targetPoint" />
            <Array as="points">
              <mxPoint x="650" y="610" />
              <mxPoint x="900" y="610" />
            </Array>
          </mxGeometry>
        </mxCell>
        <mxCell id="45" value="&lt;font color=&quot;#ff66ff&quot;&gt;file:&lt;br&gt;./LibHR/Update/random_momenta.c&lt;/font&gt;" style="edgeLabel;html=1;align=center;verticalAlign=middle;resizable=0;points=[];" parent="44" vertex="1" connectable="0">
          <mxGeometry x="-0.0202" y="1" relative="1" as="geometry">
            <mxPoint as="offset" />
          </mxGeometry>
        </mxCell>
        <mxCell id="47" value="" style="edgeStyle=segmentEdgeStyle;endArrow=classic;html=1;curved=0;rounded=0;endSize=8;startSize=8;exitX=0.5;exitY=1;exitDx=0;exitDy=0;entryX=0.5;entryY=0;entryDx=0;entryDy=0;" parent="1" source="42" target="43" edge="1">
          <mxGeometry width="50" height="50" relative="1" as="geometry">
            <mxPoint x="720" y="770" as="sourcePoint" />
            <mxPoint x="970" y="770" as="targetPoint" />
            <Array as="points">
              <mxPoint x="900" y="710" />
              <mxPoint x="900" y="710" />
            </Array>
          </mxGeometry>
        </mxCell>
        <mxCell id="48" value="&lt;font color=&quot;#ff66ff&quot;&gt;file:&lt;br&gt;./LibHR/Update/local_hmc_action.c&lt;/font&gt;" style="edgeLabel;html=1;align=center;verticalAlign=middle;resizable=0;points=[];" parent="47" vertex="1" connectable="0">
          <mxGeometry x="-0.0202" y="1" relative="1" as="geometry">
            <mxPoint as="offset" />
          </mxGeometry>
        </mxCell>
        <mxCell id="49" value="project_gauge_field" style="rounded=0;whiteSpace=wrap;html=1;" parent="1" vertex="1">
          <mxGeometry x="840" y="920" width="120" height="60" as="geometry" />
        </mxCell>
        <mxCell id="50" value="local_hmc_action" style="rounded=0;whiteSpace=wrap;html=1;" parent="1" vertex="1">
          <mxGeometry x="840" y="1040" width="120" height="60" as="geometry" />
        </mxCell>
        <mxCell id="51" value="" style="edgeStyle=segmentEdgeStyle;endArrow=classic;html=1;curved=0;rounded=0;endSize=8;startSize=8;exitX=0.5;exitY=1;exitDx=0;exitDy=0;entryX=0.5;entryY=0;entryDx=0;entryDy=0;" parent="1" source="43" target="49" edge="1">
          <mxGeometry width="50" height="50" relative="1" as="geometry">
            <mxPoint x="790" y="850" as="sourcePoint" />
            <mxPoint x="790" y="940" as="targetPoint" />
            <Array as="points">
              <mxPoint x="900" y="880" />
              <mxPoint x="900" y="880" />
            </Array>
          </mxGeometry>
        </mxCell>
        <mxCell id="52" value="&lt;font color=&quot;#ff66ff&quot;&gt;file:&lt;br&gt;./LibHR/Update/update_hb.c&lt;/font&gt;" style="edgeLabel;html=1;align=center;verticalAlign=middle;resizable=0;points=[];" parent="51" vertex="1" connectable="0">
          <mxGeometry x="-0.0202" y="1" relative="1" as="geometry">
            <mxPoint as="offset" />
          </mxGeometry>
        </mxCell>
        <mxCell id="53" value="" style="edgeStyle=segmentEdgeStyle;endArrow=classic;html=1;curved=0;rounded=0;endSize=8;startSize=8;exitX=0.5;exitY=1;exitDx=0;exitDy=0;entryX=0.5;entryY=0;entryDx=0;entryDy=0;" parent="1" source="49" target="50" edge="1">
          <mxGeometry width="50" height="50" relative="1" as="geometry">
            <mxPoint x="1000" y="990" as="sourcePoint" />
            <mxPoint x="1000" y="1080" as="targetPoint" />
            <Array as="points">
              <mxPoint x="900" y="1010" />
              <mxPoint x="900" y="1010" />
            </Array>
          </mxGeometry>
        </mxCell>
        <mxCell id="54" value="&lt;font color=&quot;#ff66ff&quot;&gt;file:&lt;br&gt;./LibHR/Update/local_hmc_action.c&lt;/font&gt;" style="edgeLabel;html=1;align=center;verticalAlign=middle;resizable=0;points=[];" parent="53" vertex="1" connectable="0">
          <mxGeometry x="-0.0202" y="1" relative="1" as="geometry">
            <mxPoint as="offset" />
          </mxGeometry>
        </mxCell>
        <mxCell id="55" value="init_mc" style="rounded=0;whiteSpace=wrap;html=1;" parent="1" vertex="1">
          <mxGeometry x="1040" y="520" width="120" height="60" as="geometry" />
        </mxCell>
        <mxCell id="56" value="LLR_HB-main" style="rounded=0;whiteSpace=wrap;html=1;" parent="1" vertex="1">
          <mxGeometry x="360" y="160" width="120" height="60" as="geometry" />
        </mxCell>
        <mxCell id="59" value="" style="edgeStyle=segmentEdgeStyle;endArrow=classic;html=1;curved=0;rounded=0;endSize=8;startSize=8;exitX=0.5;exitY=1;exitDx=0;exitDy=0;entryX=0.5;entryY=0;entryDx=0;entryDy=0;" parent="1" source="56" target="3" edge="1">
          <mxGeometry width="50" height="50" relative="1" as="geometry">
            <mxPoint x="1700" y="600" as="sourcePoint" />
            <mxPoint x="1750" y="550" as="targetPoint" />
            <Array as="points">
              <mxPoint x="420" y="250" />
              <mxPoint x="260" y="250" />
            </Array>
          </mxGeometry>
        </mxCell>
        <mxCell id="62" value="&lt;font color=&quot;#ff66ff&quot;&gt;file:&lt;br style=&quot;border-color: var(--border-color);&quot;&gt;./LLR_HB/llr_hb.c&lt;/font&gt;" style="edgeLabel;html=1;align=center;verticalAlign=middle;resizable=0;points=[];" parent="59" vertex="1" connectable="0">
          <mxGeometry x="-0.4914" y="-3" relative="1" as="geometry">
            <mxPoint as="offset" />
          </mxGeometry>
        </mxCell>
        <mxCell id="61" value="" style="edgeStyle=segmentEdgeStyle;endArrow=classic;html=1;curved=0;rounded=0;endSize=8;startSize=8;exitX=1;exitY=0.5;exitDx=0;exitDy=0;entryX=0.5;entryY=0;entryDx=0;entryDy=0;" parent="1" source="4" target="55" edge="1">
          <mxGeometry width="50" height="50" relative="1" as="geometry">
            <mxPoint x="1100" y="460" as="sourcePoint" />
            <mxPoint x="270" y="530" as="targetPoint" />
            <Array as="points">
              <mxPoint x="1100" y="430" />
            </Array>
          </mxGeometry>
        </mxCell>
        <mxCell id="64" value="&lt;font color=&quot;#ff66ff&quot;&gt;file:&lt;br style=&quot;border-color: var(--border-color);&quot;&gt;./LLR_HB/llr_hb.c&lt;/font&gt;" style="edgeLabel;html=1;align=center;verticalAlign=middle;resizable=0;points=[];" parent="61" vertex="1" connectable="0">
          <mxGeometry x="-0.1042" y="2" relative="1" as="geometry">
            <mxPoint as="offset" />
          </mxGeometry>
        </mxCell>
        <mxCell id="65" value="init_robbinsmonro" style="rounded=0;whiteSpace=wrap;html=1;" parent="1" vertex="1">
          <mxGeometry x="1040" y="640" width="120" height="60" as="geometry" />
        </mxCell>
        <mxCell id="66" value="" style="edgeStyle=segmentEdgeStyle;endArrow=classic;html=1;curved=0;rounded=0;endSize=8;startSize=8;exitX=0.5;exitY=1;exitDx=0;exitDy=0;entryX=0.5;entryY=0;entryDx=0;entryDy=0;" parent="1" source="55" target="65" edge="1">
          <mxGeometry width="50" height="50" relative="1" as="geometry">
            <mxPoint x="660" y="650" as="sourcePoint" />
            <mxPoint x="910" y="650" as="targetPoint" />
            <Array as="points">
              <mxPoint x="1100" y="630" />
              <mxPoint x="1100" y="630" />
            </Array>
          </mxGeometry>
        </mxCell>
        <mxCell id="67" value="&lt;font color=&quot;#ff66ff&quot;&gt;file:&lt;br&gt;./LibHR/Update/llr.c&lt;/font&gt;" style="edgeLabel;html=1;align=center;verticalAlign=middle;resizable=0;points=[];" parent="66" vertex="1" connectable="0">
          <mxGeometry x="-0.0202" y="1" relative="1" as="geometry">
            <mxPoint as="offset" />
          </mxGeometry>
        </mxCell>
        <mxCell id="70" value="&lt;font color=&quot;#00cc00&quot;&gt;header:&lt;br&gt;./include/llr_hb_utils.h&lt;/font&gt;" style="rounded=1;whiteSpace=wrap;html=1;" parent="1" vertex="1">
          <mxGeometry x="640" y="340" width="120" height="60" as="geometry" />
        </mxCell>
        <mxCell id="71" value="" style="edgeStyle=segmentEdgeStyle;endArrow=classic;html=1;curved=0;rounded=0;endSize=8;startSize=8;exitX=1;exitY=0.5;exitDx=0;exitDy=0;entryX=0.75;entryY=0;entryDx=0;entryDy=0;fillColor=#60a917;strokeColor=#00CC00;dashed=1;" parent="1" source="70" target="55" edge="1">
          <mxGeometry width="50" height="50" relative="1" as="geometry">
            <mxPoint x="410" y="470" as="sourcePoint" />
            <mxPoint x="760" y="520" as="targetPoint" />
            <Array as="points">
              <mxPoint x="1130" y="370" />
            </Array>
          </mxGeometry>
        </mxCell>
        <mxCell id="72" value="" style="edgeStyle=segmentEdgeStyle;endArrow=classic;html=1;curved=0;rounded=0;endSize=8;startSize=8;exitX=1;exitY=0.5;exitDx=0;exitDy=0;entryX=0;entryY=0.5;entryDx=0;entryDy=0;strokeColor=#00CC00;dashed=1;" parent="1" source="4" target="70" edge="1">
          <mxGeometry width="50" height="50" relative="1" as="geometry">
            <mxPoint x="460" y="550" as="sourcePoint" />
            <mxPoint x="770" y="530" as="targetPoint" />
            <Array as="points">
              <mxPoint x="400" y="430" />
              <mxPoint x="400" y="370" />
            </Array>
          </mxGeometry>
        </mxCell>
        <mxCell id="73" value="thermrobbinsmonro" style="rounded=0;whiteSpace=wrap;html=1;" parent="1" vertex="1">
          <mxGeometry x="1040" y="760" width="120" height="60" as="geometry" />
        </mxCell>
        <mxCell id="74" value="" style="edgeStyle=segmentEdgeStyle;endArrow=classic;html=1;curved=0;rounded=0;endSize=8;startSize=8;exitX=0.5;exitY=0;exitDx=0;exitDy=0;entryX=0;entryY=0.5;entryDx=0;entryDy=0;strokeColor=#00CC00;dashed=1;" parent="1" source="39" target="65" edge="1">
          <mxGeometry width="50" height="50" relative="1" as="geometry">
            <mxPoint x="510" y="620" as="sourcePoint" />
            <mxPoint x="630" y="650" as="targetPoint" />
            <Array as="points">
              <mxPoint x="440" y="560" />
              <mxPoint x="1000" y="560" />
              <mxPoint x="1000" y="670" />
            </Array>
          </mxGeometry>
        </mxCell>
        <mxCell id="75" value="" style="edgeStyle=segmentEdgeStyle;endArrow=classic;html=1;curved=0;rounded=0;endSize=8;startSize=8;exitX=0.5;exitY=1;exitDx=0;exitDy=0;entryX=0.5;entryY=0;entryDx=0;entryDy=0;" parent="1" source="65" target="73" edge="1">
          <mxGeometry width="50" height="50" relative="1" as="geometry">
            <mxPoint x="1110" y="590" as="sourcePoint" />
            <mxPoint x="1110" y="650" as="targetPoint" />
            <Array as="points">
              <mxPoint x="1100" y="730" />
              <mxPoint x="1100" y="730" />
            </Array>
          </mxGeometry>
        </mxCell>
        <mxCell id="76" value="&lt;font color=&quot;#ff66ff&quot;&gt;file:&lt;br&gt;./LibHR/Update/llr.c&lt;/font&gt;" style="edgeLabel;html=1;align=center;verticalAlign=middle;resizable=0;points=[];" parent="75" vertex="1" connectable="0">
          <mxGeometry x="-0.0202" y="1" relative="1" as="geometry">
            <mxPoint as="offset" />
          </mxGeometry>
        </mxCell>
        <mxCell id="77" value="" style="edgeStyle=segmentEdgeStyle;endArrow=classic;html=1;curved=0;rounded=0;endSize=8;startSize=8;entryX=1;entryY=0;entryDx=0;entryDy=0;exitX=1;exitY=1;exitDx=0;exitDy=0;dashed=1;strokeColor=#007FFF;" parent="1" source="73" target="73" edge="1">
          <mxGeometry width="50" height="50" relative="1" as="geometry">
            <mxPoint x="1160" y="980" as="sourcePoint" />
            <mxPoint x="1429.97" y="639.97" as="targetPoint" />
            <Array as="points">
              <mxPoint x="1160" y="840" />
              <mxPoint x="1240" y="840" />
              <mxPoint x="1240" y="740" />
              <mxPoint x="1160" y="740" />
            </Array>
          </mxGeometry>
        </mxCell>
        <mxCell id="79" value="&lt;font color=&quot;#007fff&quot;&gt;For loop&lt;br style=&quot;border-color: var(--border-color);&quot;&gt;i=flow.therm[start,end]&lt;/font&gt;" style="edgeLabel;html=1;align=center;verticalAlign=middle;resizable=0;points=[];" parent="77" vertex="1" connectable="0">
          <mxGeometry x="0.0003" relative="1" as="geometry">
            <mxPoint as="offset" />
          </mxGeometry>
        </mxCell>
        <mxCell id="80" value="newtonraphson" style="rounded=0;whiteSpace=wrap;html=1;" parent="1" vertex="1">
          <mxGeometry x="1040" y="880" width="120" height="60" as="geometry" />
        </mxCell>
        <mxCell id="81" value="" style="edgeStyle=segmentEdgeStyle;endArrow=classic;html=1;curved=0;rounded=0;endSize=8;startSize=8;exitX=0.5;exitY=1;exitDx=0;exitDy=0;entryX=0.5;entryY=0;entryDx=0;entryDy=0;" parent="1" source="73" target="80" edge="1">
          <mxGeometry width="50" height="50" relative="1" as="geometry">
            <mxPoint x="1260" y="930" as="sourcePoint" />
            <mxPoint x="1260" y="990" as="targetPoint" />
            <Array as="points">
              <mxPoint x="1100" y="850" />
              <mxPoint x="1100" y="850" />
            </Array>
          </mxGeometry>
        </mxCell>
        <mxCell id="82" value="&lt;font color=&quot;#ff66ff&quot;&gt;file:&lt;br&gt;./LibHR/Update/llr.c&lt;/font&gt;" style="edgeLabel;html=1;align=center;verticalAlign=middle;resizable=0;points=[];" parent="81" vertex="1" connectable="0">
          <mxGeometry x="-0.0202" y="1" relative="1" as="geometry">
            <mxPoint as="offset" />
          </mxGeometry>
        </mxCell>
        <mxCell id="83" value="" style="edgeStyle=segmentEdgeStyle;endArrow=classic;html=1;curved=0;rounded=0;endSize=8;startSize=8;entryX=1;entryY=0;entryDx=0;entryDy=0;exitX=1;exitY=1;exitDx=0;exitDy=0;dashed=1;strokeColor=#007FFF;" parent="1" source="80" target="80" edge="1">
          <mxGeometry width="50" height="50" relative="1" as="geometry">
            <mxPoint x="1170" y="940" as="sourcePoint" />
            <mxPoint x="1170" y="880" as="targetPoint" />
            <Array as="points">
              <mxPoint x="1160" y="960" />
              <mxPoint x="1240" y="960" />
              <mxPoint x="1240" y="860" />
              <mxPoint x="1160" y="860" />
            </Array>
          </mxGeometry>
        </mxCell>
        <mxCell id="84" value="&lt;font color=&quot;#007fff&quot;&gt;For loop&lt;br style=&quot;border-color: var(--border-color);&quot;&gt;i=llr_var.[N_nr]&lt;/font&gt;" style="edgeLabel;html=1;align=center;verticalAlign=middle;resizable=0;points=[];" parent="83" vertex="1" connectable="0">
          <mxGeometry x="0.0003" relative="1" as="geometry">
            <mxPoint as="offset" />
          </mxGeometry>
        </mxCell>
        <mxCell id="86" value="robbinsmonro&amp;nbsp;&lt;div&gt;line : 221&lt;/div&gt;" style="rounded=0;whiteSpace=wrap;html=1;" parent="1" vertex="1">
          <mxGeometry x="1040" y="1000" width="120" height="60" as="geometry" />
        </mxCell>
        <mxCell id="87" value="" style="edgeStyle=segmentEdgeStyle;endArrow=classic;html=1;curved=0;rounded=0;endSize=8;startSize=8;exitX=0.5;exitY=1;exitDx=0;exitDy=0;entryX=0.5;entryY=0;entryDx=0;entryDy=0;" parent="1" source="80" target="86" edge="1">
          <mxGeometry width="50" height="50" relative="1" as="geometry">
            <mxPoint x="1100" y="950" as="sourcePoint" />
            <mxPoint x="1260" y="1120" as="targetPoint" />
            <Array as="points" />
          </mxGeometry>
        </mxCell>
        <mxCell id="88" value="&lt;font color=&quot;#ff66ff&quot;&gt;file:&lt;br&gt;./LibHR/Update/llr.c&lt;/font&gt;" style="edgeLabel;html=1;align=center;verticalAlign=middle;resizable=0;points=[];" parent="87" vertex="1" connectable="0">
          <mxGeometry x="-0.0202" y="1" relative="1" as="geometry">
            <mxPoint as="offset" />
          </mxGeometry>
        </mxCell>
        <mxCell id="89" value="" style="edgeStyle=segmentEdgeStyle;endArrow=classic;html=1;curved=0;rounded=0;endSize=8;startSize=8;entryX=1;entryY=0;entryDx=0;entryDy=0;exitX=1;exitY=1;exitDx=0;exitDy=0;dashed=1;strokeColor=#007FFF;" parent="1" source="86" target="86" edge="1">
          <mxGeometry width="50" height="50" relative="1" as="geometry">
            <mxPoint x="1170" y="1070" as="sourcePoint" />
            <mxPoint x="1170" y="1010" as="targetPoint" />
            <Array as="points">
              <mxPoint x="1160" y="1080" />
              <mxPoint x="1240" y="1080" />
              <mxPoint x="1240" y="980" />
              <mxPoint x="1160" y="980" />
            </Array>
          </mxGeometry>
        </mxCell>
        <mxCell id="90" value="&lt;font color=&quot;#007fff&quot;&gt;For loop&lt;br style=&quot;border-color: var(--border-color);&quot;&gt;i=flow.[start,end]&lt;/font&gt;" style="edgeLabel;html=1;align=center;verticalAlign=middle;resizable=0;points=[];" parent="89" vertex="1" connectable="0">
          <mxGeometry x="0.0003" relative="1" as="geometry">
            <mxPoint as="offset" />
          </mxGeometry>
        </mxCell>
        <mxCell id="91" value="llr_fixed_a_update" style="rounded=0;whiteSpace=wrap;html=1;" parent="1" vertex="1">
          <mxGeometry x="1040" y="1120" width="120" height="60" as="geometry" />
        </mxCell>
        <mxCell id="92" value="" style="edgeStyle=segmentEdgeStyle;endArrow=classic;html=1;curved=0;rounded=0;endSize=8;startSize=8;exitX=0.5;exitY=1;exitDx=0;exitDy=0;entryX=0.5;entryY=0;entryDx=0;entryDy=0;" parent="1" source="86" target="91" edge="1">
          <mxGeometry width="50" height="50" relative="1" as="geometry">
            <mxPoint x="1100" y="1060" as="sourcePoint" />
            <mxPoint x="1260" y="1230" as="targetPoint" />
            <Array as="points" />
          </mxGeometry>
        </mxCell>
        <mxCell id="93" value="&lt;font color=&quot;#ff66ff&quot;&gt;file:&lt;br&gt;./LibHR/Update/llr.c&lt;/font&gt;" style="edgeLabel;html=1;align=center;verticalAlign=middle;resizable=0;points=[];" parent="92" vertex="1" connectable="0">
          <mxGeometry x="-0.0202" y="1" relative="1" as="geometry">
            <mxPoint as="offset" />
          </mxGeometry>
        </mxCell>
        <mxCell id="94" value="" style="edgeStyle=segmentEdgeStyle;endArrow=classic;html=1;curved=0;rounded=0;endSize=8;startSize=8;entryX=1;entryY=0;entryDx=0;entryDy=0;exitX=1;exitY=1;exitDx=0;exitDy=0;dashed=1;strokeColor=#007FFF;" parent="1" source="91" target="91" edge="1">
          <mxGeometry width="50" height="50" relative="1" as="geometry">
            <mxPoint x="1170" y="1180" as="sourcePoint" />
            <mxPoint x="1170" y="1120" as="targetPoint" />
            <Array as="points">
              <mxPoint x="1160" y="1200" />
              <mxPoint x="1240" y="1200" />
              <mxPoint x="1240" y="1100" />
              <mxPoint x="1160" y="1100" />
            </Array>
          </mxGeometry>
        </mxCell>
        <mxCell id="95" value="&lt;font color=&quot;#007fff&quot;&gt;For loop&lt;br style=&quot;border-color: var(--border-color);&quot;&gt;i=llr_var[start,end]&lt;/font&gt;" style="edgeLabel;html=1;align=center;verticalAlign=middle;resizable=0;points=[];" parent="94" vertex="1" connectable="0">
          <mxGeometry x="0.0003" relative="1" as="geometry">
            <mxPoint as="offset" />
          </mxGeometry>
        </mxCell>
        <mxCell id="96" value="" style="edgeStyle=segmentEdgeStyle;endArrow=classic;html=1;curved=0;rounded=0;endSize=8;startSize=8;entryX=0.75;entryY=0;entryDx=0;entryDy=0;exitX=0.75;exitY=1;exitDx=0;exitDy=0;dashed=1;strokeColor=#007FFF;" parent="1" source="91" target="73" edge="1">
          <mxGeometry width="50" height="50" relative="1" as="geometry">
            <mxPoint x="1390" y="1169.97" as="sourcePoint" />
            <mxPoint x="1390" y="1109.97" as="targetPoint" />
            <Array as="points">
              <mxPoint x="1130" y="1220" />
              <mxPoint x="1320" y="1220" />
              <mxPoint x="1320" y="720" />
              <mxPoint x="1130" y="720" />
            </Array>
          </mxGeometry>
        </mxCell>
        <mxCell id="97" value="&lt;font color=&quot;#007fff&quot;&gt;For loop&lt;br style=&quot;border-color: var(--border-color);&quot;&gt;i=flow.[rmrestart]&lt;/font&gt;" style="edgeLabel;html=1;align=center;verticalAlign=middle;resizable=0;points=[];" parent="96" vertex="1" connectable="0">
          <mxGeometry x="0.0003" relative="1" as="geometry">
            <mxPoint as="offset" />
          </mxGeometry>
        </mxCell>
        <mxCell id="98" value="umbrella_swap" style="rounded=0;whiteSpace=wrap;html=1;" parent="1" vertex="1">
          <mxGeometry x="960" y="1520" width="120" height="60" as="geometry" />
        </mxCell>
        <mxCell id="99" value="update_llr_ghmc" style="rounded=0;whiteSpace=wrap;html=1;" parent="1" vertex="1">
          <mxGeometry x="1120" y="1520" width="120" height="60" as="geometry" />
        </mxCell>
        <mxCell id="QqYyVHUeC6DTTdlW__13-99" value="update_constrained" style="rounded=0;whiteSpace=wrap;html=1;" parent="1" vertex="1">
          <mxGeometry x="960" y="1280" width="120" height="60" as="geometry" />
        </mxCell>
        <mxCell id="QqYyVHUeC6DTTdlW__13-100" value="update_constrained&lt;div&gt;//&lt;/div&gt;" style="rounded=0;whiteSpace=wrap;html=1;" parent="1" vertex="1">
          <mxGeometry x="1120" y="1280" width="120" height="60" as="geometry" />
        </mxCell>
        <mxCell id="QqYyVHUeC6DTTdlW__13-101" value="" style="edgeStyle=segmentEdgeStyle;endArrow=classic;html=1;curved=0;rounded=0;endSize=8;startSize=8;exitX=0.5;exitY=1;exitDx=0;exitDy=0;entryX=0.5;entryY=0;entryDx=0;entryDy=0;" parent="1" source="91" target="QqYyVHUeC6DTTdlW__13-99" edge="1">
          <mxGeometry width="50" height="50" relative="1" as="geometry">
            <mxPoint x="850" y="1200" as="sourcePoint" />
            <mxPoint x="850" y="1260" as="targetPoint" />
            <Array as="points">
              <mxPoint x="1100" y="1240" />
              <mxPoint x="1020" y="1240" />
            </Array>
          </mxGeometry>
        </mxCell>
        <mxCell id="QqYyVHUeC6DTTdlW__13-105" value="IFDEF" style="edgeLabel;html=1;align=center;verticalAlign=middle;resizable=0;points=[];" parent="QqYyVHUeC6DTTdlW__13-101" vertex="1" connectable="0">
          <mxGeometry x="0.7826" relative="1" as="geometry">
            <mxPoint as="offset" />
          </mxGeometry>
        </mxCell>
        <mxCell id="QqYyVHUeC6DTTdlW__13-103" value="" style="edgeStyle=segmentEdgeStyle;endArrow=classic;html=1;curved=0;rounded=0;endSize=8;startSize=8;exitX=0.5;exitY=1;exitDx=0;exitDy=0;entryX=0.5;entryY=0;entryDx=0;entryDy=0;" parent="1" source="91" target="QqYyVHUeC6DTTdlW__13-100" edge="1">
          <mxGeometry width="50" height="50" relative="1" as="geometry">
            <mxPoint x="850" y="1200" as="sourcePoint" />
            <mxPoint x="990" y="1260" as="targetPoint" />
            <Array as="points">
              <mxPoint x="1100" y="1240" />
              <mxPoint x="1180" y="1240" />
            </Array>
          </mxGeometry>
        </mxCell>
        <mxCell id="QqYyVHUeC6DTTdlW__13-104" value="IFDEF LLRHB//" style="edgeLabel;html=1;align=center;verticalAlign=middle;resizable=0;points=[];" parent="QqYyVHUeC6DTTdlW__13-103" vertex="1" connectable="0">
          <mxGeometry x="0.7189" y="1" relative="1" as="geometry">
            <mxPoint as="offset" />
          </mxGeometry>
        </mxCell>
        <mxCell id="QqYyVHUeC6DTTdlW__13-119" value="IDEF LLRHB" style="edgeLabel;html=1;align=center;verticalAlign=middle;resizable=0;points=[];" parent="QqYyVHUeC6DTTdlW__13-103" vertex="1" connectable="0">
          <mxGeometry x="-0.6708" y="1" relative="1" as="geometry">
            <mxPoint as="offset" />
          </mxGeometry>
        </mxCell>
        <mxCell id="QqYyVHUeC6DTTdlW__13-106" value="" style="edgeStyle=segmentEdgeStyle;endArrow=classic;html=1;curved=0;rounded=0;endSize=8;startSize=8;exitX=0.5;exitY=1;exitDx=0;exitDy=0;entryX=0.5;entryY=0;entryDx=0;entryDy=0;" parent="1" source="QqYyVHUeC6DTTdlW__13-100" target="QqYyVHUeC6DTTdlW__13-110" edge="1">
          <mxGeometry width="50" height="50" relative="1" as="geometry">
            <mxPoint x="1120" y="1370" as="sourcePoint" />
            <mxPoint x="1040" y="1470" as="targetPoint" />
            <Array as="points">
              <mxPoint x="1190" y="1340" />
              <mxPoint x="1190" y="1380" />
              <mxPoint x="1100" y="1380" />
            </Array>
          </mxGeometry>
        </mxCell>
        <mxCell id="QqYyVHUeC6DTTdlW__13-108" value="" style="edgeStyle=segmentEdgeStyle;endArrow=classic;html=1;curved=0;rounded=0;endSize=8;startSize=8;exitX=0.5;exitY=1;exitDx=0;exitDy=0;entryX=0.5;entryY=0;entryDx=0;entryDy=0;" parent="1" source="QqYyVHUeC6DTTdlW__13-99" target="QqYyVHUeC6DTTdlW__13-110" edge="1">
          <mxGeometry width="50" height="50" relative="1" as="geometry">
            <mxPoint x="1120" y="1370" as="sourcePoint" />
            <mxPoint x="1200" y="1470" as="targetPoint" />
            <Array as="points">
              <mxPoint x="1020" y="1380" />
              <mxPoint x="1100" y="1380" />
            </Array>
          </mxGeometry>
        </mxCell>
        <mxCell id="QqYyVHUeC6DTTdlW__13-110" value="Polyakov" style="rounded=0;whiteSpace=wrap;html=1;" parent="1" vertex="1">
          <mxGeometry x="1040" y="1410" width="120" height="60" as="geometry" />
        </mxCell>
        <mxCell id="QqYyVHUeC6DTTdlW__13-111" value="" style="edgeStyle=segmentEdgeStyle;endArrow=classic;html=1;curved=0;rounded=0;endSize=8;startSize=8;entryX=0;entryY=0.5;entryDx=0;entryDy=0;exitX=0;exitY=0.5;exitDx=0;exitDy=0;dashed=1;strokeColor=#007FFF;" parent="1" source="QqYyVHUeC6DTTdlW__13-110" target="QqYyVHUeC6DTTdlW__13-99" edge="1">
          <mxGeometry width="50" height="50" relative="1" as="geometry">
            <mxPoint x="525" y="1550" as="sourcePoint" />
            <mxPoint x="525" y="1130" as="targetPoint" />
            <Array as="points">
              <mxPoint x="920" y="1440" />
              <mxPoint x="920" y="1310" />
            </Array>
          </mxGeometry>
        </mxCell>
        <mxCell id="QqYyVHUeC6DTTdlW__13-113" value="&lt;span style=&quot;color: rgb(0, 127, 255);&quot;&gt;For loop&lt;/span&gt;&lt;br style=&quot;color: rgb(0, 127, 255); border-color: var(--border-color);&quot;&gt;&lt;span style=&quot;color: rgb(0, 127, 255);&quot;&gt;i=llrp.[sfreq_fxa]&lt;/span&gt;" style="edgeLabel;html=1;align=center;verticalAlign=middle;resizable=0;points=[];" parent="QqYyVHUeC6DTTdlW__13-111" vertex="1" connectable="0">
          <mxGeometry x="0.28" relative="1" as="geometry">
            <mxPoint as="offset" />
          </mxGeometry>
        </mxCell>
        <mxCell id="QqYyVHUeC6DTTdlW__13-114" value="" style="edgeStyle=segmentEdgeStyle;endArrow=classic;html=1;curved=0;rounded=0;endSize=8;startSize=8;exitX=0.5;exitY=1;exitDx=0;exitDy=0;entryX=0.5;entryY=0;entryDx=0;entryDy=0;" parent="1" source="QqYyVHUeC6DTTdlW__13-110" target="98" edge="1">
          <mxGeometry width="50" height="50" relative="1" as="geometry">
            <mxPoint x="1100" y="1650" as="sourcePoint" />
            <mxPoint x="1020" y="1750" as="targetPoint" />
            <Array as="points">
              <mxPoint x="1100" y="1490" />
              <mxPoint x="1020" y="1490" />
            </Array>
          </mxGeometry>
        </mxCell>
        <mxCell id="QqYyVHUeC6DTTdlW__13-121" value="IDEF WITH UMBRELLA" style="edgeLabel;html=1;align=center;verticalAlign=middle;resizable=0;points=[];" parent="QqYyVHUeC6DTTdlW__13-114" vertex="1" connectable="0">
          <mxGeometry x="0.6909" y="-1" relative="1" as="geometry">
            <mxPoint as="offset" />
          </mxGeometry>
        </mxCell>
        <mxCell id="QqYyVHUeC6DTTdlW__13-116" value="" style="edgeStyle=segmentEdgeStyle;endArrow=classic;html=1;curved=0;rounded=0;endSize=8;startSize=8;exitX=0.5;exitY=1;exitDx=0;exitDy=0;entryX=0.5;entryY=0;entryDx=0;entryDy=0;" parent="1" source="QqYyVHUeC6DTTdlW__13-110" target="99" edge="1">
          <mxGeometry width="50" height="50" relative="1" as="geometry">
            <mxPoint x="1100" y="1650" as="sourcePoint" />
            <mxPoint x="1180" y="1750" as="targetPoint" />
            <Array as="points">
              <mxPoint x="1100" y="1490" />
              <mxPoint x="1180" y="1490" />
            </Array>
          </mxGeometry>
        </mxCell>
        <mxCell id="QqYyVHUeC6DTTdlW__13-120" value="IFDEF ELSE" style="edgeLabel;html=1;align=center;verticalAlign=middle;resizable=0;points=[];" parent="QqYyVHUeC6DTTdlW__13-116" vertex="1" connectable="0">
          <mxGeometry x="0.6823" relative="1" as="geometry">
            <mxPoint as="offset" />
          </mxGeometry>
        </mxCell>
        <mxCell id="QqYyVHUeC6DTTdlW__13-122" value="setreplica" style="rounded=0;whiteSpace=wrap;html=1;" parent="1" vertex="1">
          <mxGeometry x="960" y="1620" width="120" height="60" as="geometry" />
        </mxCell>
        <mxCell id="QqYyVHUeC6DTTdlW__13-123" value="" style="edgeStyle=segmentEdgeStyle;endArrow=classic;html=1;curved=0;rounded=0;endSize=8;startSize=8;exitX=0.5;exitY=1;exitDx=0;exitDy=0;entryX=0.5;entryY=0;entryDx=0;entryDy=0;" parent="1" source="98" target="QqYyVHUeC6DTTdlW__13-122" edge="1">
          <mxGeometry width="50" height="50" relative="1" as="geometry">
            <mxPoint x="1110" y="1480" as="sourcePoint" />
            <mxPoint x="1190" y="1530" as="targetPoint" />
            <Array as="points">
              <mxPoint x="1020" y="1600" />
              <mxPoint x="1020" y="1600" />
            </Array>
          </mxGeometry>
        </mxCell>
        <mxCell id="QqYyVHUeC6DTTdlW__13-125" value="&lt;font color=&quot;#00cc00&quot;&gt;header:&lt;br&gt;./LibHR/geometry/communications.h&lt;/font&gt;" style="rounded=1;whiteSpace=wrap;html=1;" parent="1" vertex="1">
          <mxGeometry x="720" y="1570" width="210" height="60" as="geometry" />
        </mxCell>
        <mxCell id="QqYyVHUeC6DTTdlW__13-126" value="" style="edgeStyle=segmentEdgeStyle;endArrow=classic;html=1;curved=0;rounded=0;endSize=8;startSize=8;exitX=0.5;exitY=1;exitDx=0;exitDy=0;entryX=0;entryY=0.5;entryDx=0;entryDy=0;strokeColor=#00CC00;dashed=1;" parent="1" source="QqYyVHUeC6DTTdlW__13-125" target="QqYyVHUeC6DTTdlW__13-122" edge="1">
          <mxGeometry width="50" height="50" relative="1" as="geometry">
            <mxPoint x="710" y="1900" as="sourcePoint" />
            <mxPoint x="1430" y="1950" as="targetPoint" />
            <Array as="points">
              <mxPoint x="825" y="1650" />
            </Array>
          </mxGeometry>
        </mxCell>
        <mxCell id="QqYyVHUeC6DTTdlW__13-127" value="" style="edgeStyle=segmentEdgeStyle;endArrow=classic;html=1;curved=0;rounded=0;endSize=8;startSize=8;exitX=0;exitY=0.5;exitDx=0;exitDy=0;entryX=0.5;entryY=0;entryDx=0;entryDy=0;dashed=1;strokeColor=#00CC00;" parent="1" source="98" target="QqYyVHUeC6DTTdlW__13-125" edge="1">
          <mxGeometry width="50" height="50" relative="1" as="geometry">
            <mxPoint x="620" y="1860" as="sourcePoint" />
            <mxPoint x="1070" y="1960" as="targetPoint" />
            <Array as="points">
              <mxPoint x="825" y="1550" />
            </Array>
          </mxGeometry>
        </mxCell>
        <mxCell id="QqYyVHUeC6DTTdlW__13-128" value="???&lt;div&gt;&amp;nbsp;To be implemeted&lt;/div&gt;&lt;div&gt;???&lt;/div&gt;" style="rounded=0;whiteSpace=wrap;html=1;" parent="1" vertex="1">
          <mxGeometry x="1120" y="1620" width="120" height="60" as="geometry" />
        </mxCell>
        <mxCell id="QqYyVHUeC6DTTdlW__13-129" value="" style="edgeStyle=segmentEdgeStyle;endArrow=classic;html=1;curved=0;rounded=0;endSize=8;startSize=8;exitX=0.5;exitY=1;exitDx=0;exitDy=0;entryX=0.5;entryY=0;entryDx=0;entryDy=0;" parent="1" source="99" target="QqYyVHUeC6DTTdlW__13-128" edge="1">
          <mxGeometry width="50" height="50" relative="1" as="geometry">
            <mxPoint x="1030" y="1590" as="sourcePoint" />
            <mxPoint x="1030" y="1630" as="targetPoint" />
            <Array as="points">
              <mxPoint x="1180" y="1590" />
              <mxPoint x="1180" y="1590" />
            </Array>
          </mxGeometry>
        </mxCell>
        <mxCell id="100" value="Main" style="rounded=0;whiteSpace=wrap;html=1;" parent="1" vertex="1">
          <mxGeometry x="1320" y="160" width="120" height="60" as="geometry" />
        </mxCell>
        <mxCell id="102" value="Grid/QCD/hmc" style="rounded=0;whiteSpace=wrap;html=1;" parent="1" vertex="1">
          <mxGeometry x="590" y="130" width="120" height="60" as="geometry" />
        </mxCell>
        <mxCell id="103" value="" style="edgeStyle=segmentEdgeStyle;endArrow=classic;html=1;curved=0;rounded=0;endSize=8;startSize=8;exitX=0.5;exitY=1;exitDx=0;exitDy=0;" parent="1" source="102" edge="1">
          <mxGeometry width="50" height="50" relative="1" as="geometry">
            <mxPoint x="1930" y="570" as="sourcePoint" />
            <mxPoint x="690" y="250" as="targetPoint" />
            <Array as="points">
              <mxPoint x="650" y="250" />
            </Array>
          </mxGeometry>
        </mxCell>
        <mxCell id="104" value="&lt;font color=&quot;#ff66ff&quot;&gt;file:&lt;br style=&quot;border-color: var(--border-color);&quot;&gt;./LLR_HB/llr_hb.c&lt;/font&gt;" style="edgeLabel;html=1;align=center;verticalAlign=middle;resizable=0;points=[];" parent="103" vertex="1" connectable="0">
          <mxGeometry x="-0.4914" y="-3" relative="1" as="geometry">
            <mxPoint as="offset" />
          </mxGeometry>
        </mxCell>
        <mxCell id="105" value="" style="edgeStyle=segmentEdgeStyle;endArrow=classic;html=1;curved=0;rounded=0;endSize=8;startSize=8;exitX=0.5;exitY=1;exitDx=0;exitDy=0;entryX=0.5;entryY=0;entryDx=0;entryDy=0;" parent="1" source="100" target="109" edge="1">
          <mxGeometry width="50" height="50" relative="1" as="geometry">
            <mxPoint x="1140" y="220" as="sourcePoint" />
            <mxPoint x="1380" y="280" as="targetPoint" />
            <Array as="points" />
          </mxGeometry>
        </mxCell>
        <mxCell id="107" value="&lt;font color=&quot;#cf4817&quot;&gt;HiRep-LLR-SP&lt;/font&gt;" style="text;strokeColor=none;fillColor=none;html=1;fontSize=24;fontStyle=1;verticalAlign=middle;align=center;" parent="1" vertex="1">
          <mxGeometry x="230" y="110" width="200" height="40" as="geometry" />
        </mxCell>
        <mxCell id="108" value="&lt;font color=&quot;#cf4817&quot;&gt;Grid-UCL-ARC&lt;br&gt;&lt;/font&gt;" style="text;strokeColor=none;fillColor=none;html=1;fontSize=24;fontStyle=1;verticalAlign=middle;align=center;" parent="1" vertex="1">
          <mxGeometry x="1360" y="120" width="200" height="40" as="geometry" />
        </mxCell>
        <mxCell id="109" value="Grid_init" style="rounded=0;whiteSpace=wrap;html=1;" parent="1" vertex="1">
          <mxGeometry x="1320" y="260" width="120" height="60" as="geometry" />
        </mxCell>
        <mxCell id="110" value="GridLogLayout" style="rounded=0;whiteSpace=wrap;html=1;" parent="1" vertex="1">
          <mxGeometry x="1320" y="360" width="120" height="60" as="geometry" />
        </mxCell>
        <mxCell id="111" value="&lt;font color=&quot;#00cc00&quot;&gt;header:&lt;br&gt;./Grid/Grid.h&lt;/font&gt;" style="rounded=1;whiteSpace=wrap;html=1;" parent="1" vertex="1">
          <mxGeometry x="1210" y="160" width="80" height="60" as="geometry" />
        </mxCell>
        <mxCell id="112" value="" style="edgeStyle=segmentEdgeStyle;endArrow=classic;html=1;curved=0;rounded=0;endSize=8;startSize=8;exitX=0.5;exitY=0;exitDx=0;exitDy=0;entryX=0.25;entryY=0;entryDx=0;entryDy=0;strokeColor=#00CC00;dashed=1;" parent="1" source="111" target="100" edge="1">
          <mxGeometry width="50" height="50" relative="1" as="geometry">
            <mxPoint x="1070" y="540" as="sourcePoint" />
            <mxPoint x="1320" y="290" as="targetPoint" />
            <Array as="points">
              <mxPoint x="1250" y="140" />
              <mxPoint x="1350" y="140" />
            </Array>
          </mxGeometry>
        </mxCell>
        <mxCell id="114" value="&lt;font color=&quot;#00cc00&quot;&gt;header:&lt;br&gt;./Grid/util/init.h&lt;/font&gt;" style="rounded=1;whiteSpace=wrap;html=1;" parent="1" vertex="1">
          <mxGeometry x="1210" y="260" width="80" height="60" as="geometry" />
        </mxCell>
        <mxCell id="115" value="" style="edgeStyle=segmentEdgeStyle;endArrow=classic;html=1;curved=0;rounded=0;endSize=8;startSize=8;entryX=0.25;entryY=0;entryDx=0;entryDy=0;strokeColor=#00CC00;dashed=1;exitX=0.5;exitY=0;exitDx=0;exitDy=0;" parent="1" source="114" target="109" edge="1">
          <mxGeometry width="50" height="50" relative="1" as="geometry">
            <mxPoint x="1120" y="280" as="sourcePoint" />
            <mxPoint x="1330" y="300" as="targetPoint" />
            <Array as="points">
              <mxPoint x="1250" y="240" />
              <mxPoint x="1350" y="240" />
            </Array>
          </mxGeometry>
        </mxCell>
        <mxCell id="116" value="acceleratorInit" style="rounded=0;whiteSpace=wrap;html=1;" parent="1" vertex="1">
          <mxGeometry x="1040" y="290.01" width="120" height="60" as="geometry" />
        </mxCell>
        <mxCell id="117" value="" style="edgeStyle=segmentEdgeStyle;endArrow=classic;html=1;curved=0;rounded=0;endSize=8;startSize=8;exitX=0.25;exitY=1;exitDx=0;exitDy=0;entryX=1;entryY=0.5;entryDx=0;entryDy=0;" parent="1" source="109" target="116" edge="1">
          <mxGeometry width="50" height="50" relative="1" as="geometry">
            <mxPoint x="1390" y="230" as="sourcePoint" />
            <mxPoint x="1390" y="270" as="targetPoint" />
            <Array as="points">
              <mxPoint x="1350" y="340" />
              <mxPoint x="1180" y="340" />
              <mxPoint x="1180" y="320" />
            </Array>
          </mxGeometry>
        </mxCell>
        <mxCell id="122" value="&lt;font color=&quot;#ff66ff&quot;&gt;file:&lt;br style=&quot;border-color: var(--border-color);&quot;&gt;./Grid/Threads/Accelerator.cc&lt;/font&gt;" style="edgeLabel;html=1;align=center;verticalAlign=middle;resizable=0;points=[];labelBackgroundColor=none;" parent="117" vertex="1" connectable="0">
          <mxGeometry x="0.0636" relative="1" as="geometry">
            <mxPoint as="offset" />
          </mxGeometry>
        </mxCell>
        <mxCell id="118" value="&lt;font color=&quot;#00cc00&quot;&gt;header:&lt;br&gt;./Grid/threads/Accelerator.h&lt;/font&gt;" style="rounded=1;whiteSpace=wrap;html=1;" parent="1" vertex="1">
          <mxGeometry x="850" y="290.01" width="160" height="60" as="geometry" />
        </mxCell>
        <mxCell id="119" value="" style="edgeStyle=segmentEdgeStyle;endArrow=classic;html=1;curved=0;rounded=0;endSize=8;startSize=8;entryX=0.25;entryY=0;entryDx=0;entryDy=0;strokeColor=#00CC00;dashed=1;exitX=0.5;exitY=0;exitDx=0;exitDy=0;" parent="1" source="118" edge="1">
          <mxGeometry width="50" height="50" relative="1" as="geometry">
            <mxPoint x="840" y="310.01" as="sourcePoint" />
            <mxPoint x="1070" y="290.01" as="targetPoint" />
            <Array as="points">
              <mxPoint x="930" y="270.01" />
              <mxPoint x="1070" y="270.01" />
            </Array>
          </mxGeometry>
        </mxCell>
        <mxCell id="120" value="" style="edgeStyle=segmentEdgeStyle;endArrow=classic;html=1;curved=0;rounded=0;endSize=8;startSize=8;exitX=0.5;exitY=1;exitDx=0;exitDy=0;entryX=0.5;entryY=0;entryDx=0;entryDy=0;" parent="1" source="109" target="110" edge="1">
          <mxGeometry width="50" height="50" relative="1" as="geometry">
            <mxPoint x="1390" y="230" as="sourcePoint" />
            <mxPoint x="1390" y="270" as="targetPoint" />
            <Array as="points" />
          </mxGeometry>
        </mxCell>
        <mxCell id="123" value="&lt;font color=&quot;#00cc00&quot;&gt;header:&lt;br&gt;&lt;/font&gt;&lt;span style=&quot;font-family: &amp;quot;JetBrains Mono&amp;quot;, monospace; font-size: 7.5pt;&quot;&gt;&lt;font color=&quot;#d55fde&quot;&gt;#include&lt;/font&gt;&lt;/span&gt;&lt;span style=&quot;font-family: &amp;quot;JetBrains Mono&amp;quot;, monospace; font-size: 7.5pt; color: rgb(187, 187, 187);&quot;&gt; &lt;/span&gt;&lt;span style=&quot;font-family: &amp;quot;JetBrains Mono&amp;quot;, monospace; font-size: 7.5pt; color: rgb(137, 202, 120);&quot;&gt;&amp;lt;Grid/GridCore.h&amp;gt;&lt;br&gt;&lt;/span&gt;&lt;span style=&quot;font-family: &amp;quot;JetBrains Mono&amp;quot;, monospace; font-size: 7.5pt; color: rgb(213, 95, 222);&quot;&gt;#include &lt;/span&gt;&lt;span style=&quot;font-family: &amp;quot;JetBrains Mono&amp;quot;, monospace; font-size: 7.5pt; color: rgb(137, 202, 120);&quot;&gt;&amp;lt;Grid/GridQCDcore.h&amp;gt;&lt;br&gt;&lt;/span&gt;&lt;span style=&quot;font-family: &amp;quot;JetBrains Mono&amp;quot;, monospace; font-size: 7.5pt; color: rgb(213, 95, 222);&quot;&gt;#include &lt;/span&gt;&lt;span style=&quot;font-family: &amp;quot;JetBrains Mono&amp;quot;, monospace; font-size: 7.5pt; color: rgb(137, 202, 120);&quot;&gt;&amp;lt;Grid/qcd/action/Action.h&amp;gt;&lt;br&gt;&lt;/span&gt;&lt;span style=&quot;font-family: &amp;quot;JetBrains Mono&amp;quot;, monospace; font-size: 7.5pt; color: rgb(213, 95, 222);&quot;&gt;#include &lt;/span&gt;&lt;span style=&quot;font-family: &amp;quot;JetBrains Mono&amp;quot;, monospace; font-size: 7.5pt; color: rgb(137, 202, 120);&quot;&gt;&amp;lt;Grid/qcd/utils/GaugeFix.h&amp;gt;&lt;br&gt;&lt;/span&gt;&lt;span style=&quot;font-family: &amp;quot;JetBrains Mono&amp;quot;, monospace; font-size: 7.5pt; color: rgb(213, 95, 222);&quot;&gt;#include&amp;nbsp;&lt;/span&gt;&lt;span style=&quot;font-family: &amp;quot;JetBrains Mono&amp;quot;, monospace; font-size: 7.5pt; color: rgb(137, 202, 120);&quot;&gt;&amp;lt;Grid/qcd/utils/CovariantSmearing.h&amp;gt;&lt;br&gt;&lt;/span&gt;&lt;span style=&quot;font-family: &amp;quot;JetBrains Mono&amp;quot;, monospace; font-size: 7.5pt; color: rgb(213, 95, 222);&quot;&gt;#include &lt;/span&gt;&lt;span style=&quot;font-family: &amp;quot;JetBrains Mono&amp;quot;, monospace; font-size: 7.5pt; color: rgb(137, 202, 120);&quot;&gt;&amp;lt;Grid/qcd/smearing/Smearing.h&amp;gt;&lt;br&gt;&lt;/span&gt;&lt;span style=&quot;font-family: &amp;quot;JetBrains Mono&amp;quot;, monospace; font-size: 7.5pt; color: rgb(213, 95, 222);&quot;&gt;#include &lt;/span&gt;&lt;span style=&quot;font-family: &amp;quot;JetBrains Mono&amp;quot;, monospace; font-size: 7.5pt; color: rgb(137, 202, 120);&quot;&gt;&amp;lt;Grid/parallelIO/MetaData.h&amp;gt;&lt;br&gt;&lt;/span&gt;&lt;span style=&quot;font-family: &amp;quot;JetBrains Mono&amp;quot;, monospace; font-size: 7.5pt; color: rgb(213, 95, 222);&quot;&gt;#include &lt;/span&gt;&lt;span style=&quot;font-family: &amp;quot;JetBrains Mono&amp;quot;, monospace; font-size: 7.5pt; color: rgb(137, 202, 120);&quot;&gt;&amp;lt;Grid/qcd/hmc/HMC_aggregate.h&amp;gt;&lt;/span&gt;&lt;span style=&quot;font-family: &amp;quot;JetBrains Mono&amp;quot;, monospace; font-size: 7.5pt; color: rgb(137, 202, 120);&quot;&gt;&lt;br&gt;&lt;/span&gt;" style="rounded=1;whiteSpace=wrap;html=1;labelBackgroundColor=default;" parent="1" vertex="1">
          <mxGeometry x="900" y="110" width="290" height="149" as="geometry" />
        </mxCell>
        <mxCell id="124" value="" style="edgeStyle=segmentEdgeStyle;endArrow=classic;html=1;curved=0;rounded=0;endSize=8;startSize=8;exitX=0.25;exitY=0;exitDx=0;exitDy=0;strokeColor=#00CC00;dashed=1;entryX=0.5;entryY=0;entryDx=0;entryDy=0;" parent="1" source="111" target="123" edge="1">
          <mxGeometry width="50" height="50" relative="1" as="geometry">
            <mxPoint x="1260" y="170" as="sourcePoint" />
            <mxPoint x="1060" y="70" as="targetPoint" />
            <Array as="points">
              <mxPoint x="1230" y="90" />
              <mxPoint x="1045" y="90" />
            </Array>
          </mxGeometry>
        </mxCell>
        <mxCell id="126" value="GenericHMCRunner&lt;br&gt;=&lt;br&gt;&amp;nbsp;HMCWrapperTemplate" style="rounded=0;whiteSpace=wrap;html=1;" parent="1" vertex="1">
          <mxGeometry x="1310" y="460" width="140" height="60" as="geometry" />
        </mxCell>
        <mxCell id="127" value="" style="edgeStyle=segmentEdgeStyle;endArrow=classic;html=1;curved=0;rounded=0;endSize=8;startSize=8;exitX=0.5;exitY=1;exitDx=0;exitDy=0;entryX=0.5;entryY=0;entryDx=0;entryDy=0;" parent="1" source="110" target="126" edge="1">
          <mxGeometry width="50" height="50" relative="1" as="geometry">
            <mxPoint x="1390" y="330" as="sourcePoint" />
            <mxPoint x="1390" y="370" as="targetPoint" />
            <Array as="points" />
          </mxGeometry>
        </mxCell>
        <mxCell id="131" value="&lt;span style=&quot;color: rgb(255, 102, 255);&quot;&gt;file: ./Grid/qcd/hmc/GenericHMCrunner.h&lt;/span&gt;" style="edgeLabel;html=1;align=center;verticalAlign=middle;resizable=0;points=[];" parent="127" vertex="1" connectable="0">
          <mxGeometry x="-0.054" relative="1" as="geometry">
            <mxPoint as="offset" />
          </mxGeometry>
        </mxCell>
        <mxCell id="129" value="Class: HMCWrapperTemplate" style="rounded=0;whiteSpace=wrap;html=1;" parent="1" vertex="1">
          <mxGeometry x="1500" y="460" width="140" height="60" as="geometry" />
        </mxCell>
        <mxCell id="130" value="Class:&lt;br&gt;HMCRunnerBase" style="rounded=0;whiteSpace=wrap;html=1;" parent="1" vertex="1">
          <mxGeometry x="1510" y="300" width="120" height="60" as="geometry" />
        </mxCell>
        <mxCell id="132" value="" style="edgeStyle=segmentEdgeStyle;endArrow=classic;html=1;curved=0;rounded=0;endSize=8;startSize=8;exitX=1;exitY=0.5;exitDx=0;exitDy=0;entryX=0;entryY=0.5;entryDx=0;entryDy=0;" parent="1" source="126" target="129" edge="1">
          <mxGeometry width="50" height="50" relative="1" as="geometry">
            <mxPoint x="1390" y="330" as="sourcePoint" />
            <mxPoint x="1390" y="370" as="targetPoint" />
            <Array as="points" />
          </mxGeometry>
        </mxCell>
        <mxCell id="133" value="" style="edgeStyle=segmentEdgeStyle;endArrow=classic;html=1;curved=0;rounded=0;endSize=8;startSize=8;exitX=0.5;exitY=1;exitDx=0;exitDy=0;entryX=0.5;entryY=0;entryDx=0;entryDy=0;" parent="1" source="130" target="129" edge="1">
          <mxGeometry width="50" height="50" relative="1" as="geometry">
            <mxPoint x="1400" y="340" as="sourcePoint" />
            <mxPoint x="1400" y="380" as="targetPoint" />
            <Array as="points" />
          </mxGeometry>
        </mxCell>
        <mxCell id="134" value="&lt;font color=&quot;#ff66ff&quot;&gt;file: ./Grid/qcd/hmc/GenericHMCrunner.h&lt;/font&gt;" style="edgeLabel;html=1;align=center;verticalAlign=middle;resizable=0;points=[];" parent="133" vertex="1" connectable="0">
          <mxGeometry x="-0.054" relative="1" as="geometry">
            <mxPoint as="offset" />
          </mxGeometry>
        </mxCell>
        <mxCell id="135" value="Run" style="rounded=0;whiteSpace=wrap;html=1;" parent="1" vertex="1">
          <mxGeometry x="1680" y="210" width="120" height="60" as="geometry" />
        </mxCell>
        <mxCell id="136" value="Initialize" style="rounded=0;whiteSpace=wrap;html=1;" parent="1" vertex="1">
          <mxGeometry x="1680" y="300" width="120" height="60" as="geometry" />
        </mxCell>
        <mxCell id="137" value="" style="edgeStyle=segmentEdgeStyle;endArrow=none;html=1;curved=0;rounded=0;endSize=8;startSize=8;exitX=1;exitY=0.5;exitDx=0;exitDy=0;entryX=0;entryY=0.5;entryDx=0;entryDy=0;startArrow=classic;startFill=1;endFill=0;" parent="1" source="130" target="136" edge="1">
          <mxGeometry width="50" height="50" relative="1" as="geometry">
            <mxPoint x="1460" y="500" as="sourcePoint" />
            <mxPoint x="1510" y="500" as="targetPoint" />
            <Array as="points" />
          </mxGeometry>
        </mxCell>
        <mxCell id="138" value="" style="edgeStyle=segmentEdgeStyle;endArrow=classic;html=1;curved=0;rounded=0;endSize=8;startSize=8;exitX=0.5;exitY=1;exitDx=0;exitDy=0;entryX=0.5;entryY=0;entryDx=0;entryDy=0;" parent="1" source="135" target="136" edge="1">
          <mxGeometry width="50" height="50" relative="1" as="geometry">
            <mxPoint x="1580" y="280" as="sourcePoint" />
            <mxPoint x="1690" y="250" as="targetPoint" />
            <Array as="points">
              <mxPoint x="1740" y="280" />
              <mxPoint x="1740" y="280" />
            </Array>
          </mxGeometry>
        </mxCell>
        <mxCell id="139" value="HMC&lt;br&gt;ResourceManager" style="rounded=0;whiteSpace=wrap;html=1;" parent="1" vertex="1">
          <mxGeometry x="1680" y="400" width="120" height="60" as="geometry" />
        </mxCell>
        <mxCell id="140" value="ActionSet" style="rounded=0;whiteSpace=wrap;html=1;" parent="1" vertex="1">
          <mxGeometry x="1680" y="490" width="120" height="60" as="geometry" />
        </mxCell>
        <mxCell id="141" value="" style="edgeStyle=segmentEdgeStyle;endArrow=classic;html=1;curved=0;rounded=0;endSize=8;startSize=8;exitX=0.5;exitY=1;exitDx=0;exitDy=0;entryX=0.5;entryY=0;entryDx=0;entryDy=0;" parent="1" source="139" target="140" edge="1">
          <mxGeometry width="50" height="50" relative="1" as="geometry">
            <mxPoint x="1580" y="470" as="sourcePoint" />
            <mxPoint x="1690" y="440" as="targetPoint" />
            <Array as="points">
              <mxPoint x="1740" y="470" />
              <mxPoint x="1740" y="470" />
            </Array>
          </mxGeometry>
        </mxCell>
        <mxCell id="142" value="Resource.&lt;br&gt;initialize" style="rounded=0;whiteSpace=wrap;html=1;" parent="1" vertex="1">
          <mxGeometry x="1860" y="520" width="120" height="60" as="geometry" />
        </mxCell>
        <mxCell id="143" value="initialize" style="rounded=0;whiteSpace=wrap;html=1;" parent="1" vertex="1">
          <mxGeometry x="1680" y="580" width="120" height="60" as="geometry" />
        </mxCell>
        <mxCell id="144" value="" style="edgeStyle=segmentEdgeStyle;endArrow=classic;html=1;curved=0;rounded=0;endSize=8;startSize=8;exitX=0.5;exitY=1;exitDx=0;exitDy=0;entryX=0.5;entryY=0;entryDx=0;entryDy=0;" parent="1" source="140" target="143" edge="1">
          <mxGeometry width="50" height="50" relative="1" as="geometry">
            <mxPoint x="1740" y="550" as="sourcePoint" />
            <mxPoint x="1690" y="530" as="targetPoint" />
            <Array as="points" />
          </mxGeometry>
        </mxCell>
        <mxCell id="145" value="Resource.&lt;br&gt;GetActionSet" style="rounded=0;whiteSpace=wrap;html=1;" parent="1" vertex="1">
          <mxGeometry x="1860" y="610" width="120" height="60" as="geometry" />
        </mxCell>
        <mxCell id="146" value="" style="edgeStyle=segmentEdgeStyle;endArrow=none;html=1;curved=0;rounded=0;endSize=8;startSize=8;exitX=0;exitY=0.5;exitDx=0;exitDy=0;entryX=1;entryY=0.5;entryDx=0;entryDy=0;startArrow=classic;startFill=1;endFill=0;" parent="1" source="139" target="129" edge="1">
          <mxGeometry width="50" height="50" relative="1" as="geometry">
            <mxPoint x="1580" y="370" as="sourcePoint" />
            <mxPoint x="1690" y="340" as="targetPoint" />
            <Array as="points">
              <mxPoint x="1660" y="430" />
              <mxPoint x="1660" y="490" />
            </Array>
          </mxGeometry>
        </mxCell>
        <mxCell id="147" value="" style="edgeStyle=segmentEdgeStyle;endArrow=none;html=1;curved=0;rounded=0;endSize=8;startSize=8;exitX=1;exitY=0.5;exitDx=0;exitDy=0;entryX=0;entryY=0.5;entryDx=0;entryDy=0;startArrow=classic;startFill=1;endFill=0;" parent="1" source="143" target="142" edge="1">
          <mxGeometry width="50" height="50" relative="1" as="geometry">
            <mxPoint x="1690" y="440" as="sourcePoint" />
            <mxPoint x="1650" y="500" as="targetPoint" />
            <Array as="points">
              <mxPoint x="1830" y="610" />
              <mxPoint x="1830" y="550" />
            </Array>
          </mxGeometry>
        </mxCell>
        <mxCell id="148" value="" style="edgeStyle=segmentEdgeStyle;endArrow=classic;html=1;curved=0;rounded=0;endSize=8;startSize=8;exitX=0.5;exitY=1;exitDx=0;exitDy=0;entryX=0.5;entryY=0;entryDx=0;entryDy=0;" parent="1" source="142" target="145" edge="1">
          <mxGeometry width="50" height="50" relative="1" as="geometry">
            <mxPoint x="1750" y="470" as="sourcePoint" />
            <mxPoint x="1750" y="500" as="targetPoint" />
            <Array as="points">
              <mxPoint x="1920" y="600" />
              <mxPoint x="1920" y="600" />
            </Array>
          </mxGeometry>
        </mxCell>
        <mxCell id="149" value="ReadCommandLine" style="rounded=0;whiteSpace=wrap;html=1;" parent="1" vertex="1">
          <mxGeometry x="1680" y="670" width="120" height="60" as="geometry" />
        </mxCell>
        <mxCell id="150" value="" style="edgeStyle=segmentEdgeStyle;endArrow=classic;html=1;curved=0;rounded=0;endSize=8;startSize=8;exitX=0.5;exitY=1;exitDx=0;exitDy=0;entryX=0.5;entryY=0;entryDx=0;entryDy=0;" parent="1" source="143" target="149" edge="1">
          <mxGeometry width="50" height="50" relative="1" as="geometry">
            <mxPoint x="1740" y="640" as="sourcePoint" />
            <mxPoint x="1690" y="620" as="targetPoint" />
            <Array as="points" />
          </mxGeometry>
        </mxCell>
        <mxCell id="151" value="initializeGaugeFields&lt;br&gt;AndRNGs" style="rounded=0;whiteSpace=wrap;html=1;" parent="1" vertex="1">
          <mxGeometry x="1680" y="760" width="120" height="60" as="geometry" />
        </mxCell>
        <mxCell id="152" value="" style="edgeStyle=segmentEdgeStyle;endArrow=classic;html=1;curved=0;rounded=0;endSize=8;startSize=8;entryX=0.5;entryY=0;entryDx=0;entryDy=0;exitX=0.5;exitY=1;exitDx=0;exitDy=0;" parent="1" source="149" target="151" edge="1">
          <mxGeometry width="50" height="50" relative="1" as="geometry">
            <mxPoint x="1740" y="730" as="sourcePoint" />
            <mxPoint x="1690" y="710" as="targetPoint" />
            <Array as="points" />
          </mxGeometry>
        </mxCell>
        <mxCell id="155" value="typdef: IntegratorType&lt;br&gt;-&amp;gt; MDynamics" style="rounded=0;whiteSpace=wrap;html=1;" parent="1" vertex="1">
          <mxGeometry x="1680" y="850" width="120" height="60" as="geometry" />
        </mxCell>
        <mxCell id="156" value="" style="edgeStyle=segmentEdgeStyle;endArrow=classic;html=1;curved=0;rounded=0;endSize=8;startSize=8;entryX=0.5;entryY=0;entryDx=0;entryDy=0;exitX=0.5;exitY=1;exitDx=0;exitDy=0;" parent="1" source="151" target="155" edge="1">
          <mxGeometry width="50" height="50" relative="1" as="geometry">
            <mxPoint x="1740" y="820" as="sourcePoint" />
            <mxPoint x="1690" y="800" as="targetPoint" />
            <Array as="points" />
          </mxGeometry>
        </mxCell>
        <mxCell id="157" value="MDynamics.&lt;br&gt;setMomentumFilter" style="rounded=0;whiteSpace=wrap;html=1;" parent="1" vertex="1">
          <mxGeometry x="1680" y="940" width="120" height="60" as="geometry" />
        </mxCell>
        <mxCell id="158" value="" style="edgeStyle=segmentEdgeStyle;endArrow=classic;html=1;curved=0;rounded=0;endSize=8;startSize=8;entryX=0.5;entryY=0;entryDx=0;entryDy=0;exitX=0.5;exitY=1;exitDx=0;exitDy=0;" parent="1" source="155" target="157" edge="1">
          <mxGeometry width="50" height="50" relative="1" as="geometry">
            <mxPoint x="1740" y="910" as="sourcePoint" />
            <mxPoint x="1690" y="890" as="targetPoint" />
            <Array as="points" />
          </mxGeometry>
        </mxCell>
        <mxCell id="159" value="Smearing.&lt;br&gt;set_fields(U)" style="rounded=0;whiteSpace=wrap;html=1;" parent="1" vertex="1">
          <mxGeometry x="1680" y="1030" width="120" height="60" as="geometry" />
        </mxCell>
        <mxCell id="160" value="" style="edgeStyle=segmentEdgeStyle;endArrow=classic;html=1;curved=0;rounded=0;endSize=8;startSize=8;entryX=0.5;entryY=0;entryDx=0;entryDy=0;exitX=0.5;exitY=1;exitDx=0;exitDy=0;" parent="1" target="159" edge="1">
          <mxGeometry width="50" height="50" relative="1" as="geometry">
            <mxPoint x="1740" y="1000" as="sourcePoint" />
            <mxPoint x="1690" y="980" as="targetPoint" />
            <Array as="points" />
          </mxGeometry>
        </mxCell>
        <mxCell id="161" value="HybridMonteCarlo&lt;br&gt;--&amp;gt; HMC" style="rounded=0;whiteSpace=wrap;html=1;" parent="1" vertex="1">
          <mxGeometry x="1680" y="1120" width="120" height="60" as="geometry" />
        </mxCell>
        <mxCell id="162" value="" style="edgeStyle=segmentEdgeStyle;endArrow=classic;html=1;curved=0;rounded=0;endSize=8;startSize=8;entryX=0.5;entryY=0;entryDx=0;entryDy=0;exitX=0.5;exitY=1;exitDx=0;exitDy=0;" parent="1" target="161" edge="1">
          <mxGeometry width="50" height="50" relative="1" as="geometry">
            <mxPoint x="1740" y="1090" as="sourcePoint" />
            <mxPoint x="1690" y="1070" as="targetPoint" />
            <Array as="points" />
          </mxGeometry>
        </mxCell>
        <mxCell id="163" value="HybridMonteCarlo&lt;br&gt;--&amp;gt; HMC" style="rounded=0;whiteSpace=wrap;html=1;" parent="1" vertex="1">
          <mxGeometry x="1680" y="1120" width="120" height="60" as="geometry" />
        </mxCell>
        <mxCell id="164" value="" style="edgeStyle=segmentEdgeStyle;endArrow=classic;html=1;curved=0;rounded=0;endSize=8;startSize=8;entryX=0.5;entryY=0;entryDx=0;entryDy=0;exitX=0.5;exitY=1.01;exitDx=0;exitDy=0;exitPerimeter=0;" parent="1" source="159" target="163" edge="1">
          <mxGeometry width="50" height="50" relative="1" as="geometry">
            <mxPoint x="1740" y="1090" as="sourcePoint" />
            <mxPoint x="1690" y="1070" as="targetPoint" />
            <Array as="points" />
          </mxGeometry>
        </mxCell>
        <mxCell id="165" value="HMC.evolve()" style="rounded=0;whiteSpace=wrap;html=1;" parent="1" vertex="1">
          <mxGeometry x="1680" y="1210" width="120" height="60" as="geometry" />
        </mxCell>
        <mxCell id="166" value="" style="edgeStyle=segmentEdgeStyle;endArrow=classic;html=1;curved=0;rounded=0;endSize=8;startSize=8;entryX=0.5;entryY=0;entryDx=0;entryDy=0;exitX=0.5;exitY=1;exitDx=0;exitDy=0;" parent="1" source="163" target="165" edge="1">
          <mxGeometry width="50" height="50" relative="1" as="geometry">
            <mxPoint x="1740" y="1180" as="sourcePoint" />
            <mxPoint x="1690" y="1160" as="targetPoint" />
            <Array as="points" />
          </mxGeometry>
        </mxCell>
        <mxCell id="167" value="TheAction" style="rounded=0;whiteSpace=wrap;html=1;" parent="1" vertex="1">
          <mxGeometry x="2040" y="610" width="120" height="60" as="geometry" />
        </mxCell>
        <mxCell id="168" value="Action&amp;lt;Field&amp;gt; ptr&lt;br&gt;into a vector" style="rounded=0;whiteSpace=wrap;html=1;" parent="1" vertex="1">
          <mxGeometry x="2450" y="470" width="120" height="60" as="geometry" />
        </mxCell>
        <mxCell id="169" value="" style="edgeStyle=segmentEdgeStyle;endArrow=none;html=1;curved=0;rounded=0;endSize=8;startSize=8;exitX=0.5;exitY=0;exitDx=0;exitDy=0;entryX=1;entryY=0.5;entryDx=0;entryDy=0;startArrow=classic;startFill=1;endFill=0;" parent="1" source="167" target="140" edge="1">
          <mxGeometry width="50" height="50" relative="1" as="geometry">
            <mxPoint x="1810" y="620" as="sourcePoint" />
            <mxPoint x="1870" y="560" as="targetPoint" />
            <Array as="points">
              <mxPoint x="2100" y="500" />
              <mxPoint x="1840" y="500" />
              <mxPoint x="1840" y="520" />
            </Array>
          </mxGeometry>
        </mxCell>
        <mxCell id="170" value="" style="edgeStyle=segmentEdgeStyle;endArrow=classic;html=1;curved=0;rounded=0;endSize=8;startSize=8;exitX=0;exitY=0.5;exitDx=0;exitDy=0;entryX=1;entryY=0.5;entryDx=0;entryDy=0;startArrow=none;startFill=0;endFill=1;" parent="1" source="167" target="145" edge="1">
          <mxGeometry width="50" height="50" relative="1" as="geometry">
            <mxPoint x="2110" y="620" as="sourcePoint" />
            <mxPoint x="1810" y="530" as="targetPoint" />
            <Array as="points">
              <mxPoint x="2020" y="640" />
              <mxPoint x="2020" y="640" />
            </Array>
          </mxGeometry>
        </mxCell>
        <mxCell id="171" value="" style="edgeStyle=segmentEdgeStyle;endArrow=none;html=1;curved=0;rounded=0;endSize=8;startSize=8;exitX=0.5;exitY=0;exitDx=0;exitDy=0;entryX=1;entryY=0.5;entryDx=0;entryDy=0;startArrow=classic;startFill=1;endFill=0;" parent="1" source="183" target="140" edge="1">
          <mxGeometry width="50" height="50" relative="1" as="geometry">
            <mxPoint x="2110" y="620" as="sourcePoint" />
            <mxPoint x="1810" y="530" as="targetPoint" />
            <Array as="points">
              <mxPoint x="2270" y="500" />
              <mxPoint x="1840" y="500" />
              <mxPoint x="1840" y="520" />
            </Array>
          </mxGeometry>
        </mxCell>
        <mxCell id="172" value="" style="edgeStyle=segmentEdgeStyle;endArrow=none;html=1;curved=0;rounded=0;endSize=8;startSize=8;entryX=1;entryY=0.5;entryDx=0;entryDy=0;startArrow=classic;startFill=1;endFill=0;exitX=0;exitY=0.5;exitDx=0;exitDy=0;" parent="1" source="9Oo3u1znfNoOlpM0i--Y-218" target="139" edge="1">
          <mxGeometry width="50" height="50" relative="1" as="geometry">
            <mxPoint x="2040" y="800" as="sourcePoint" />
            <mxPoint x="1820" y="400" as="targetPoint" />
            <Array as="points">
              <mxPoint x="2010" y="800" />
              <mxPoint x="2010" y="430" />
            </Array>
          </mxGeometry>
        </mxCell>
        <mxCell id="9Oo3u1znfNoOlpM0i--Y-209" value="&lt;span style=&quot;color: rgb(255, 102, 255);&quot;&gt;./Grid/qcd/hmc/HMCResourceManager.h&lt;/span&gt;" style="edgeLabel;html=1;align=center;verticalAlign=middle;resizable=0;points=[];" parent="172" vertex="1" connectable="0">
          <mxGeometry x="0.6546" relative="1" as="geometry">
            <mxPoint as="offset" />
          </mxGeometry>
        </mxCell>
        <mxCell id="174" value="ActionParams" style="swimlane;fontStyle=0;childLayout=stackLayout;horizontal=1;startSize=30;horizontalStack=0;resizeParent=1;resizeParentMax=0;resizeLast=0;collapsible=1;marginBottom=0;whiteSpace=wrap;html=1;" parent="1" vertex="1">
          <mxGeometry x="2080" y="-20" width="210" height="180" as="geometry" />
        </mxCell>
        <mxCell id="175" value="GparityWilsonImplParams" style="text;strokeColor=none;fillColor=none;align=left;verticalAlign=middle;spacingLeft=4;spacingRight=4;overflow=hidden;points=[[0,0.5],[1,0.5]];portConstraint=eastwest;rotatable=0;whiteSpace=wrap;html=1;" parent="174" vertex="1">
          <mxGeometry y="30" width="210" height="30" as="geometry" />
        </mxCell>
        <mxCell id="176" value="WilsonImplParams" style="text;strokeColor=none;fillColor=none;align=left;verticalAlign=middle;spacingLeft=4;spacingRight=4;overflow=hidden;points=[[0,0.5],[1,0.5]];portConstraint=eastwest;rotatable=0;whiteSpace=wrap;html=1;" parent="174" vertex="1">
          <mxGeometry y="60" width="210" height="30" as="geometry" />
        </mxCell>
        <mxCell id="177" value="StaggeredImplParams" style="text;strokeColor=none;fillColor=none;align=left;verticalAlign=middle;spacingLeft=4;spacingRight=4;overflow=hidden;points=[[0,0.5],[1,0.5]];portConstraint=eastwest;rotatable=0;whiteSpace=wrap;html=1;" parent="174" vertex="1">
          <mxGeometry y="90" width="210" height="30" as="geometry" />
        </mxCell>
        <mxCell id="181" value="OneFlavourRationalParams" style="text;strokeColor=none;fillColor=none;align=left;verticalAlign=middle;spacingLeft=4;spacingRight=4;overflow=hidden;points=[[0,0.5],[1,0.5]];portConstraint=eastwest;rotatable=0;whiteSpace=wrap;html=1;" parent="174" vertex="1">
          <mxGeometry y="120" width="210" height="30" as="geometry" />
        </mxCell>
        <mxCell id="180" value="RationalActionParams" style="text;strokeColor=none;fillColor=none;align=left;verticalAlign=middle;spacingLeft=4;spacingRight=4;overflow=hidden;points=[[0,0.5],[1,0.5]];portConstraint=eastwest;rotatable=0;whiteSpace=wrap;html=1;" parent="174" vertex="1">
          <mxGeometry y="150" width="210" height="30" as="geometry" />
        </mxCell>
        <mxCell id="182" value="AccessTypes" style="rounded=0;whiteSpace=wrap;html=1;" parent="1" vertex="1">
          <mxGeometry x="2450" y="560" width="120" height="60" as="geometry" />
        </mxCell>
        <mxCell id="183" value="Class:&lt;div&gt;ActionLevel&lt;/div&gt;" style="rounded=0;whiteSpace=wrap;html=1;" parent="1" vertex="1">
          <mxGeometry x="2210" y="520" width="120" height="60" as="geometry" />
        </mxCell>
        <mxCell id="184" value="typedef typename&amp;nbsp;&lt;br&gt;AccessTypes&lt;br&gt;line 72&lt;br&gt;LLR and HiRep" style="rounded=0;whiteSpace=wrap;html=1;" parent="1" vertex="1">
          <mxGeometry x="2640" y="560" width="120" height="60" as="geometry" />
        </mxCell>
        <mxCell id="186" value="" style="edgeStyle=segmentEdgeStyle;endArrow=none;html=1;curved=0;rounded=0;endSize=8;startSize=8;entryX=1;entryY=0.5;entryDx=0;entryDy=0;startArrow=classic;startFill=1;endFill=0;exitX=0;exitY=0.5;exitDx=0;exitDy=0;" parent="1" source="168" target="183" edge="1">
          <mxGeometry width="50" height="50" relative="1" as="geometry">
            <mxPoint x="2450" y="500" as="sourcePoint" />
            <mxPoint x="1810" y="440" as="targetPoint" />
            <Array as="points">
              <mxPoint x="2350" y="500" />
              <mxPoint x="2350" y="550" />
            </Array>
          </mxGeometry>
        </mxCell>
        <mxCell id="187" value="" style="edgeStyle=segmentEdgeStyle;endArrow=none;html=1;curved=0;rounded=0;endSize=8;startSize=8;entryX=0;entryY=0.5;entryDx=0;entryDy=0;startArrow=classic;startFill=1;endFill=0;exitX=1;exitY=0.5;exitDx=0;exitDy=0;" parent="1" source="182" target="184" edge="1">
          <mxGeometry width="50" height="50" relative="1" as="geometry">
            <mxPoint x="2110" y="700" as="sourcePoint" />
            <mxPoint x="1900" y="640" as="targetPoint" />
            <Array as="points">
              <mxPoint x="2600" y="590" />
              <mxPoint x="2600" y="590" />
            </Array>
          </mxGeometry>
        </mxCell>
        <mxCell id="188" value="push_back" style="rounded=0;whiteSpace=wrap;html=1;" parent="1" vertex="1">
          <mxGeometry x="2450" y="650" width="120" height="60" as="geometry" />
        </mxCell>
        <mxCell id="189" value="ActionSet" style="rounded=0;whiteSpace=wrap;html=1;" parent="1" vertex="1">
          <mxGeometry x="2210" y="620" width="120" height="60" as="geometry" />
        </mxCell>
        <mxCell id="190" value="" style="edgeStyle=segmentEdgeStyle;endArrow=none;html=1;curved=0;rounded=0;endSize=8;startSize=8;entryX=0.5;entryY=1;entryDx=0;entryDy=0;startArrow=classic;startFill=1;endFill=0;exitX=0.5;exitY=0;exitDx=0;exitDy=0;" parent="1" source="188" target="182" edge="1">
          <mxGeometry width="50" height="50" relative="1" as="geometry">
            <mxPoint x="2460" y="510" as="sourcePoint" />
            <mxPoint x="2340" y="560" as="targetPoint" />
            <Array as="points">
              <mxPoint x="2510" y="640" />
              <mxPoint x="2510" y="640" />
            </Array>
          </mxGeometry>
        </mxCell>
        <mxCell id="191" value="" style="edgeStyle=segmentEdgeStyle;endArrow=none;html=1;curved=0;rounded=0;endSize=8;startSize=8;entryX=0.5;entryY=1;entryDx=0;entryDy=0;startArrow=classic;startFill=1;endFill=0;exitX=0.5;exitY=0;exitDx=0;exitDy=0;" parent="1" source="182" target="168" edge="1">
          <mxGeometry width="50" height="50" relative="1" as="geometry">
            <mxPoint x="2470" y="520" as="sourcePoint" />
            <mxPoint x="2350" y="570" as="targetPoint" />
            <Array as="points">
              <mxPoint x="2510" y="550" />
              <mxPoint x="2510" y="550" />
            </Array>
          </mxGeometry>
        </mxCell>
        <mxCell id="192" value="" style="edgeStyle=segmentEdgeStyle;endArrow=none;html=1;curved=0;rounded=0;endSize=8;startSize=8;entryX=0.5;entryY=1;entryDx=0;entryDy=0;startArrow=classic;startFill=1;endFill=0;exitX=0.5;exitY=1;exitDx=0;exitDy=0;" parent="1" source="189" target="188" edge="1">
          <mxGeometry width="50" height="50" relative="1" as="geometry">
            <mxPoint x="2480" y="530" as="sourcePoint" />
            <mxPoint x="2360" y="580" as="targetPoint" />
            <Array as="points">
              <mxPoint x="2270" y="730" />
              <mxPoint x="2510" y="730" />
            </Array>
          </mxGeometry>
        </mxCell>
        <mxCell id="193" value="" style="edgeStyle=segmentEdgeStyle;endArrow=none;html=1;curved=0;rounded=0;endSize=8;startSize=8;entryX=0.5;entryY=1;entryDx=0;entryDy=0;startArrow=classic;startFill=1;endFill=0;exitX=0.5;exitY=0;exitDx=0;exitDy=0;" parent="1" source="189" target="183" edge="1">
          <mxGeometry width="50" height="50" relative="1" as="geometry">
            <mxPoint x="2490" y="540" as="sourcePoint" />
            <mxPoint x="2370" y="590" as="targetPoint" />
            <Array as="points">
              <mxPoint x="2270" y="600" />
              <mxPoint x="2270" y="600" />
            </Array>
          </mxGeometry>
        </mxCell>
        <mxCell id="194" value="ActionBase" style="rounded=0;whiteSpace=wrap;html=1;" parent="1" vertex="1">
          <mxGeometry x="2640" y="470" width="120" height="60" as="geometry" />
        </mxCell>
        <mxCell id="195" value="" style="edgeStyle=segmentEdgeStyle;endArrow=none;html=1;curved=0;rounded=0;endSize=8;startSize=8;entryX=1;entryY=0.5;entryDx=0;entryDy=0;startArrow=classic;startFill=1;endFill=0;exitX=0;exitY=0.5;exitDx=0;exitDy=0;" parent="1" source="194" target="168" edge="1">
          <mxGeometry width="50" height="50" relative="1" as="geometry">
            <mxPoint x="2580" y="600" as="sourcePoint" />
            <mxPoint x="2650" y="600" as="targetPoint" />
            <Array as="points" />
          </mxGeometry>
        </mxCell>
        <mxCell id="196" value="&lt;font color=&quot;#00cc00&quot;&gt;header:&lt;br&gt;&lt;/font&gt;&lt;span style=&quot;font-family: &amp;quot;JetBrains Mono&amp;quot;, monospace; font-size: 7.5pt;&quot;&gt;&lt;font color=&quot;#d55fde&quot;&gt;#include&lt;/font&gt;&lt;/span&gt;&lt;span style=&quot;font-family: &amp;quot;JetBrains Mono&amp;quot;, monospace; font-size: 7.5pt; color: rgb(187, 187, 187);&quot;&gt;&amp;nbsp;&lt;/span&gt;&lt;font face=&quot;JetBrains Mono, monospace&quot; color=&quot;#89ca78&quot;&gt;&amp;lt;Grid/qcd/action/ActionCore.h&amp;gt;&lt;/font&gt;&lt;br&gt;&lt;span style=&quot;font-family: &amp;quot;JetBrains Mono&amp;quot;, monospace; font-size: 7.5pt; color: rgb(213, 95, 222);&quot;&gt;#include&amp;nbsp;&lt;/span&gt;&lt;font face=&quot;JetBrains Mono, monospace&quot; color=&quot;#89ca78&quot;&gt;&amp;lt;Grid/qcd/action/fermion/FermionCore.h&amp;gt;&lt;/font&gt;&lt;br&gt;&lt;span style=&quot;font-family: &amp;quot;JetBrains Mono&amp;quot;, monospace; font-size: 7.5pt; color: rgb(213, 95, 222);&quot;&gt;#include&amp;nbsp;&lt;/span&gt;&lt;font face=&quot;JetBrains Mono, monospace&quot; color=&quot;#89ca78&quot;&gt;&amp;lt;Grid/qcd/action/fermion/Fermion.h&amp;gt;&lt;/font&gt;&lt;br&gt;&lt;span style=&quot;font-family: &amp;quot;JetBrains Mono&amp;quot;, monospace; font-size: 7.5pt; color: rgb(213, 95, 222);&quot;&gt;#include&amp;nbsp;&lt;/span&gt;&lt;span style=&quot;font-family: &amp;quot;JetBrains Mono&amp;quot;, monospace; font-size: 7.5pt; color: rgb(137, 202, 120);&quot;&gt;&amp;lt;&lt;/span&gt;&lt;font face=&quot;JetBrains Mono, monospace&quot; color=&quot;#89ca78&quot;&gt;Grid/qcd/action/pseudofermion/PseudoFermion.h&amp;gt;&lt;/font&gt;" style="rounded=1;whiteSpace=wrap;html=1;labelBackgroundColor=default;" parent="1" vertex="1">
          <mxGeometry x="1620" y="80" width="400" height="80" as="geometry" />
        </mxCell>
        <mxCell id="197" value="Action" style="rounded=0;whiteSpace=wrap;html=1;" parent="1" vertex="1">
          <mxGeometry x="1860" y="210" width="120" height="60" as="geometry" />
        </mxCell>
        <mxCell id="198" value="ActionCore" style="rounded=0;whiteSpace=wrap;html=1;" parent="1" vertex="1">
          <mxGeometry x="2125" y="210" width="120" height="60" as="geometry" />
        </mxCell>
        <mxCell id="199" value="" style="edgeStyle=segmentEdgeStyle;endArrow=none;html=1;curved=0;rounded=0;endSize=8;startSize=8;exitX=0.5;exitY=0;exitDx=0;exitDy=0;startArrow=classic;startFill=1;endFill=0;entryX=0.5;entryY=0;entryDx=0;entryDy=0;strokeColor=#00CC00;dashed=1;" parent="1" source="198" target="174" edge="1">
          <mxGeometry width="50" height="50" relative="1" as="geometry">
            <mxPoint x="2190" y="390" as="sourcePoint" />
            <mxPoint x="1960" y="-182" as="targetPoint" />
            <Array as="points">
              <mxPoint x="2185" y="180" />
              <mxPoint x="2040" y="180" />
              <mxPoint x="2040" y="-37" />
              <mxPoint x="2185" y="-37" />
            </Array>
          </mxGeometry>
        </mxCell>
        <mxCell id="200" value="" style="edgeStyle=segmentEdgeStyle;endArrow=none;html=1;curved=0;rounded=0;endSize=8;startSize=8;entryX=1;entryY=0.5;entryDx=0;entryDy=0;startArrow=classic;startFill=1;endFill=0;exitX=0;exitY=0.5;exitDx=0;exitDy=0;" parent="1" source="198" target="197" edge="1">
          <mxGeometry width="50" height="50" relative="1" as="geometry">
            <mxPoint x="2370" y="470" as="sourcePoint" />
            <mxPoint x="1810" y="440" as="targetPoint" />
            <Array as="points">
              <mxPoint x="2070" y="240" />
              <mxPoint x="2070" y="240" />
            </Array>
          </mxGeometry>
        </mxCell>
        <mxCell id="202" value="FermionCore&lt;br&gt;Fermion&lt;br&gt;PseudoFermion" style="rounded=0;whiteSpace=wrap;html=1;" parent="1" vertex="1">
          <mxGeometry x="2125" y="290.01" width="120" height="60" as="geometry" />
        </mxCell>
        <mxCell id="204" value="" style="edgeStyle=segmentEdgeStyle;endArrow=classic;html=1;curved=0;rounded=0;endSize=8;startSize=8;exitX=0.75;exitY=1;exitDx=0;exitDy=0;entryX=0.5;entryY=0;entryDx=0;entryDy=0;strokeColor=#00CC00;dashed=1;" parent="1" source="196" target="197" edge="1">
          <mxGeometry width="50" height="50" relative="1" as="geometry">
            <mxPoint x="1240" y="170" as="sourcePoint" />
            <mxPoint x="1062" y="128" as="targetPoint" />
            <Array as="points">
              <mxPoint x="1920" y="200" />
              <mxPoint x="1920" y="200" />
            </Array>
          </mxGeometry>
        </mxCell>
        <mxCell id="205" value="" style="edgeStyle=segmentEdgeStyle;endArrow=none;html=1;curved=0;rounded=0;endSize=8;startSize=8;entryX=1;entryY=0.5;entryDx=0;entryDy=0;startArrow=classic;startFill=1;endFill=0;exitX=0;exitY=0.5;exitDx=0;exitDy=0;" parent="1" source="202" target="197" edge="1">
          <mxGeometry width="50" height="50" relative="1" as="geometry">
            <mxPoint x="2135" y="250" as="sourcePoint" />
            <mxPoint x="1990" y="250" as="targetPoint" />
            <Array as="points">
              <mxPoint x="2050" y="320" />
              <mxPoint x="2050" y="240" />
            </Array>
          </mxGeometry>
        </mxCell>
        <mxCell id="206" value="" style="edgeStyle=segmentEdgeStyle;endArrow=classic;html=1;curved=0;rounded=0;endSize=8;startSize=8;exitX=1;exitY=0.5;exitDx=0;exitDy=0;strokeColor=#00CC00;dashed=1;entryX=1;entryY=0.5;entryDx=0;entryDy=0;" parent="1" source="198" target="189" edge="1">
          <mxGeometry width="50" height="50" relative="1" as="geometry">
            <mxPoint x="1930" y="170" as="sourcePoint" />
            <mxPoint x="2340" y="300" as="targetPoint" />
            <Array as="points">
              <mxPoint x="2400" y="240" />
              <mxPoint x="2400" y="650" />
            </Array>
          </mxGeometry>
        </mxCell>
        <mxCell id="207" value="&lt;font style=&quot;font-size: 12px;&quot;&gt;&lt;font style=&quot;font-size: 12px;&quot; color=&quot;#00cc00&quot;&gt;header:&lt;br style=&quot;border-color: var(--border-color); background-color: rgb(255, 255, 255);&quot;&gt;&lt;/font&gt;&lt;font face=&quot;JetBrains Mono, monospace&quot; style=&quot;font-size: 12px;&quot;&gt;&lt;font style=&quot;font-size: 12px;&quot; color=&quot;#d55fde&quot;&gt;#include&lt;/font&gt;&amp;nbsp;&lt;span style=&quot;background-color: initial;&quot;&gt;&amp;nbsp;&lt;font style=&quot;font-size: 12px;&quot; color=&quot;#89ca78&quot;&gt;&amp;lt;Grid/qcd/action/gauge/GaugeImplementations.h&lt;/font&gt;&amp;gt;&lt;/span&gt;&lt;br&gt;&lt;/font&gt;&lt;/font&gt;&lt;div style=&quot;&quot;&gt;&lt;span style=&quot;background-color: initial;&quot;&gt;&lt;font face=&quot;JetBrains Mono, monospace&quot; style=&quot;font-size: 12px;&quot;&gt;&lt;font style=&quot;font-size: 12px;&quot; color=&quot;#d55fde&quot;&gt;#include&lt;/font&gt; &lt;font style=&quot;font-size: 12px;&quot; color=&quot;#89ca78&quot;&gt;&amp;lt;Grid/qcd/action/ActionBase.h&amp;gt;&lt;/font&gt;&lt;/font&gt;&lt;/span&gt;&lt;/div&gt;&lt;div style=&quot;&quot;&gt;&lt;font face=&quot;JetBrains Mono, monospace&quot; style=&quot;font-size: 12px;&quot;&gt;&lt;font style=&quot;font-size: 12px;&quot; color=&quot;#d55fde&quot;&gt;#include&lt;/font&gt; &lt;font style=&quot;font-size: 12px;&quot; color=&quot;#89ca78&quot;&gt;&amp;lt;Grid/qcd/action/ActionSet.h&amp;gt;&lt;/font&gt;&lt;/font&gt;&lt;/div&gt;&lt;div style=&quot;&quot;&gt;&lt;font face=&quot;JetBrains Mono, monospace&quot; style=&quot;font-size: 12px;&quot;&gt;&lt;font style=&quot;background-color: initial; font-size: 12px;&quot; color=&quot;#d55fde&quot;&gt;#include&lt;/font&gt;&lt;span style=&quot;background-color: initial;&quot;&gt; &lt;font style=&quot;font-size: 12px;&quot; color=&quot;#89ca78&quot;&gt;&amp;lt;Grid/qcd/action/ActionParams.h&amp;gt;&lt;/font&gt;&lt;/span&gt;&lt;/font&gt;&lt;/div&gt;&lt;div style=&quot;&quot;&gt;&lt;font face=&quot;JetBrains Mono, monospace&quot; style=&quot;font-size: 12px;&quot;&gt;&lt;font style=&quot;font-size: 12px;&quot; color=&quot;#d55fde&quot;&gt;#include&lt;/font&gt; &lt;font style=&quot;font-size: 12px;&quot; color=&quot;#89ca78&quot;&gt;&amp;lt;Grid/qcd/action/filters/MomentumFilter.h&amp;gt;&lt;/font&gt;&lt;/font&gt;&lt;/div&gt;&lt;div style=&quot;&quot;&gt;&lt;font face=&quot;JetBrains Mono, monospace&quot; style=&quot;font-size: 12px;&quot;&gt;&lt;font style=&quot;font-size: 12px;&quot; color=&quot;#d55fde&quot;&gt;#include&lt;/font&gt; &lt;font style=&quot;font-size: 12px;&quot; color=&quot;#89ca78&quot;&gt;&amp;lt;Grid/qcd/action/filters/DirichletFilter.h&amp;gt;&lt;/font&gt;&lt;/font&gt;&lt;/div&gt;&lt;div style=&quot;&quot;&gt;&lt;font face=&quot;JetBrains Mono, monospace&quot; style=&quot;font-size: 12px;&quot;&gt;&lt;font style=&quot;font-size: 12px;&quot; color=&quot;#d55fde&quot;&gt;#include&lt;/font&gt; &lt;font style=&quot;font-size: 12px;&quot; color=&quot;#89ca78&quot;&gt;&amp;lt;Grid/qcd/action/filters/DDHMCFilter.h&amp;gt;&lt;/font&gt;&lt;/font&gt;&lt;/div&gt;&lt;div style=&quot;&quot;&gt;&lt;font face=&quot;JetBrains Mono, monospace&quot; style=&quot;font-size: 12px;&quot;&gt;&lt;font style=&quot;background-color: initial; font-size: 12px;&quot; color=&quot;#d55fde&quot;&gt;#include&lt;/font&gt;&lt;span style=&quot;background-color: initial;&quot;&gt; &lt;font style=&quot;font-size: 12px;&quot; color=&quot;#89ca78&quot;&gt;&amp;lt;Grid/qcd/action/gauge/Gauge.h&amp;gt;&lt;/font&gt;&lt;/span&gt;&lt;br&gt;&lt;/font&gt;&lt;/div&gt;&lt;div style=&quot;&quot;&gt;&lt;font face=&quot;JetBrains Mono, monospace&quot; style=&quot;font-size: 12px;&quot;&gt;&lt;span style=&quot;background-color: initial;&quot;&gt;&lt;font style=&quot;font-size: 12px;&quot; color=&quot;#d55fde&quot;&gt;#include&lt;/font&gt; &lt;font style=&quot;font-size: 12px;&quot; color=&quot;#89ca78&quot;&gt;&amp;lt;Grid/qcd/action/fermion/FermionCore.h&amp;gt;&lt;/font&gt;&lt;/span&gt;&lt;br&gt;&lt;/font&gt;&lt;/div&gt;&lt;div style=&quot;&quot;&gt;&lt;font face=&quot;JetBrains Mono, monospace&quot; style=&quot;font-size: 12px;&quot;&gt;&lt;span style=&quot;background-color: initial;&quot;&gt;&lt;font style=&quot;font-size: 12px;&quot; color=&quot;#d55fde&quot;&gt;#include&lt;/font&gt; &lt;font style=&quot;font-size: 12px;&quot; color=&quot;#89ca78&quot;&gt;&amp;lt;Grid/qcd/action/scalar/Scalar.h&amp;gt;&lt;/font&gt;&lt;/span&gt;&lt;br&gt;&lt;/font&gt;&lt;/div&gt;&lt;div style=&quot;&quot;&gt;&lt;font face=&quot;JetBrains Mono, monospace&quot; style=&quot;font-size: 12px;&quot;&gt;&lt;span style=&quot;background-color: initial;&quot;&gt;&lt;font style=&quot;font-size: 12px;&quot; color=&quot;#d55fde&quot;&gt;#include &lt;/font&gt;&lt;font style=&quot;font-size: 12px;&quot; color=&quot;#89ca78&quot;&gt;&amp;lt;Grid/qcd/utils/Metric.h&amp;gt;&lt;/font&gt;&lt;/span&gt;&lt;br&gt;&lt;/font&gt;&lt;/div&gt;&lt;div style=&quot;&quot;&gt;&lt;font face=&quot;JetBrains Mono, monospace&quot; style=&quot;font-size: 12px;&quot;&gt;&lt;span style=&quot;background-color: initial;&quot;&gt;&lt;font style=&quot;font-size: 12px;&quot; color=&quot;#d55fde&quot;&gt;#include &lt;/font&gt;&lt;font style=&quot;font-size: 12px;&quot; color=&quot;#89ca78&quot;&gt;&amp;lt;Grid/qcd/utils/CovariantLaplacian.h&amp;gt;&lt;/font&gt;&lt;/span&gt;&lt;/font&gt;&lt;/div&gt;" style="rounded=1;whiteSpace=wrap;html=1;" parent="1" vertex="1">
          <mxGeometry x="2310" y="-30" width="430" height="200" as="geometry" />
        </mxCell>
        <mxCell id="209" value="" style="edgeStyle=segmentEdgeStyle;endArrow=classic;html=1;curved=0;rounded=0;endSize=8;startSize=8;exitX=0.5;exitY=1;exitDx=0;exitDy=0;strokeColor=#00CC00;dashed=1;entryX=1;entryY=0.5;entryDx=0;entryDy=0;" parent="1" source="207" target="198" edge="1">
          <mxGeometry width="50" height="50" relative="1" as="geometry">
            <mxPoint x="2255" y="250" as="sourcePoint" />
            <mxPoint x="2340" y="660" as="targetPoint" />
            <Array as="points">
              <mxPoint x="2525" y="240" />
            </Array>
          </mxGeometry>
        </mxCell>
        <mxCell id="pq-XExyDoLhUlRlshY1v-211" value="" style="edgeStyle=segmentEdgeStyle;endArrow=classic;html=1;curved=0;rounded=0;endSize=8;startSize=8;exitX=1;exitY=0.5;exitDx=0;exitDy=0;strokeColor=#00CC00;dashed=1;entryX=0.5;entryY=0;entryDx=0;entryDy=0;" parent="1" source="198" target="194" edge="1">
          <mxGeometry width="50" height="50" relative="1" as="geometry">
            <mxPoint x="2255" y="250" as="sourcePoint" />
            <mxPoint x="2580" y="370" as="targetPoint" />
            <Array as="points">
              <mxPoint x="2700" y="240" />
            </Array>
          </mxGeometry>
        </mxCell>
        <mxCell id="pq-XExyDoLhUlRlshY1v-212" value="Refresh" style="rounded=0;whiteSpace=wrap;html=1;" parent="1" vertex="1">
          <mxGeometry x="2800" y="430" width="120" height="60" as="geometry" />
        </mxCell>
        <mxCell id="pq-XExyDoLhUlRlshY1v-213" value="EmptyAction" style="rounded=0;whiteSpace=wrap;html=1;" parent="1" vertex="1">
          <mxGeometry x="2800" y="510" width="120" height="60" as="geometry" />
        </mxCell>
        <mxCell id="pq-XExyDoLhUlRlshY1v-214" value="" style="edgeStyle=segmentEdgeStyle;endArrow=none;html=1;curved=0;rounded=0;endSize=8;startSize=8;startArrow=classic;startFill=1;endFill=0;exitX=0;exitY=0.5;exitDx=0;exitDy=0;entryX=1;entryY=0.5;entryDx=0;entryDy=0;" parent="1" source="pq-XExyDoLhUlRlshY1v-212" target="194" edge="1">
          <mxGeometry width="50" height="50" relative="1" as="geometry">
            <mxPoint x="2770" y="360" as="sourcePoint" />
            <mxPoint x="2560" y="340" as="targetPoint" />
            <Array as="points">
              <mxPoint x="2780" y="460" />
              <mxPoint x="2780" y="500" />
            </Array>
          </mxGeometry>
        </mxCell>
        <mxCell id="pq-XExyDoLhUlRlshY1v-215" value="" style="edgeStyle=segmentEdgeStyle;endArrow=none;html=1;curved=0;rounded=0;endSize=8;startSize=8;startArrow=classic;startFill=1;endFill=0;exitX=0;exitY=0.5;exitDx=0;exitDy=0;entryX=1;entryY=0.5;entryDx=0;entryDy=0;" parent="1" source="pq-XExyDoLhUlRlshY1v-213" target="194" edge="1">
          <mxGeometry width="50" height="50" relative="1" as="geometry">
            <mxPoint x="2810" y="470" as="sourcePoint" />
            <mxPoint x="2770" y="510" as="targetPoint" />
            <Array as="points">
              <mxPoint x="2780" y="540" />
              <mxPoint x="2780" y="500" />
            </Array>
          </mxGeometry>
        </mxCell>
        <mxCell id="pq-XExyDoLhUlRlshY1v-216" value="Gauge" style="rounded=0;whiteSpace=wrap;html=1;" parent="1" vertex="1">
          <mxGeometry x="2760" y="210" width="120" height="60" as="geometry" />
        </mxCell>
        <mxCell id="pq-XExyDoLhUlRlshY1v-217" value="&lt;div style=&quot;color: rgb(187, 187, 187);&quot;&gt;&lt;span style=&quot;color: rgb(0, 204, 0);&quot;&gt;header:&lt;/span&gt;&lt;/div&gt;&lt;div style=&quot;color: rgb(187, 187, 187);&quot;&gt;&lt;span style=&quot;font-family: &amp;quot;JetBrains Mono&amp;quot;, monospace; font-size: 7.5pt; color: rgb(213, 95, 222);&quot;&gt;#include &lt;/span&gt;&lt;span style=&quot;font-family: &amp;quot;JetBrains Mono&amp;quot;, monospace; font-size: 7.5pt; color: rgb(137, 202, 120);&quot;&gt;&amp;lt;Grid/qcd/action/gauge/GaugeImplementations.h&amp;gt;&lt;/span&gt;&lt;/div&gt;&lt;div style=&quot;color: rgb(187, 187, 187);&quot;&gt;&lt;span style=&quot;font-family: &amp;quot;JetBrains Mono&amp;quot;, monospace; font-size: 7.5pt; color: rgb(213, 95, 222);&quot;&gt;#include &lt;/span&gt;&lt;span style=&quot;font-family: &amp;quot;JetBrains Mono&amp;quot;, monospace; font-size: 7.5pt; color: rgb(137, 202, 120);&quot;&gt;&amp;lt;Grid/qcd/utils/WilsonLoops.h&amp;gt;&lt;/span&gt;&lt;/div&gt;&lt;div style=&quot;color: rgb(187, 187, 187);&quot;&gt;&lt;span style=&quot;font-family: &amp;quot;JetBrains Mono&amp;quot;, monospace; font-size: 7.5pt; color: rgb(213, 95, 222);&quot;&gt;#include &lt;/span&gt;&lt;span style=&quot;font-family: &amp;quot;JetBrains Mono&amp;quot;, monospace; font-size: 7.5pt; color: rgb(137, 202, 120);&quot;&gt;&amp;lt;Grid/qcd/action/gauge/WilsonGaugeAction.h&amp;gt;&lt;/span&gt;&lt;/div&gt;&lt;div style=&quot;color: rgb(187, 187, 187);&quot;&gt;&lt;span style=&quot;font-family: &amp;quot;JetBrains Mono&amp;quot;, monospace; font-size: 7.5pt; color: rgb(213, 95, 222);&quot;&gt;#include &lt;/span&gt;&lt;span style=&quot;font-family: &amp;quot;JetBrains Mono&amp;quot;, monospace; font-size: 7.5pt; color: rgb(137, 202, 120);&quot;&gt;&amp;lt;Grid/qcd/action/gauge/PlaqPlusRectangleAction.h&amp;gt;&lt;/span&gt;&lt;br&gt;&lt;/div&gt;" style="rounded=1;whiteSpace=wrap;html=1;labelBackgroundColor=default;" parent="1" vertex="1">
          <mxGeometry x="2760" y="50" width="390" height="80" as="geometry" />
        </mxCell>
        <mxCell id="pq-XExyDoLhUlRlshY1v-218" value="" style="edgeStyle=segmentEdgeStyle;endArrow=classic;html=1;curved=0;rounded=0;endSize=8;startSize=8;exitX=1;exitY=0.5;exitDx=0;exitDy=0;strokeColor=#00CC00;dashed=1;entryX=0;entryY=0.5;entryDx=0;entryDy=0;" parent="1" source="198" target="pq-XExyDoLhUlRlshY1v-216" edge="1">
          <mxGeometry width="50" height="50" relative="1" as="geometry">
            <mxPoint x="2255" y="250" as="sourcePoint" />
            <mxPoint x="2710" y="480" as="targetPoint" />
            <Array as="points">
              <mxPoint x="2480" y="240" />
              <mxPoint x="2480" y="240" />
            </Array>
          </mxGeometry>
        </mxCell>
        <mxCell id="pq-XExyDoLhUlRlshY1v-219" value="" style="edgeStyle=segmentEdgeStyle;endArrow=classic;html=1;curved=0;rounded=0;endSize=8;startSize=8;exitX=0.5;exitY=1;exitDx=0;exitDy=0;strokeColor=#00CC00;dashed=1;entryX=0.5;entryY=0;entryDx=0;entryDy=0;" parent="1" source="pq-XExyDoLhUlRlshY1v-217" target="pq-XExyDoLhUlRlshY1v-216" edge="1">
          <mxGeometry width="50" height="50" relative="1" as="geometry">
            <mxPoint x="2265" y="260" as="sourcePoint" />
            <mxPoint x="2770" y="250" as="targetPoint" />
            <Array as="points">
              <mxPoint x="2955" y="190" />
              <mxPoint x="2820" y="190" />
            </Array>
          </mxGeometry>
        </mxCell>
        <mxCell id="pq-XExyDoLhUlRlshY1v-220" value="GaugeImplementations" style="rounded=0;whiteSpace=wrap;html=1;" parent="1" vertex="1">
          <mxGeometry x="2980" y="210" width="140" height="60" as="geometry" />
        </mxCell>
        <mxCell id="pq-XExyDoLhUlRlshY1v-221" value="" style="edgeStyle=segmentEdgeStyle;endArrow=classic;html=1;curved=0;rounded=0;endSize=8;startSize=8;exitX=1;exitY=0.5;exitDx=0;exitDy=0;strokeColor=#00CC00;dashed=1;entryX=0;entryY=0.5;entryDx=0;entryDy=0;" parent="1" source="pq-XExyDoLhUlRlshY1v-216" target="pq-XExyDoLhUlRlshY1v-220" edge="1">
          <mxGeometry width="50" height="50" relative="1" as="geometry">
            <mxPoint x="2965" y="180" as="sourcePoint" />
            <mxPoint x="2830" y="220" as="targetPoint" />
            <Array as="points">
              <mxPoint x="2940" y="240" />
              <mxPoint x="2940" y="240" />
            </Array>
          </mxGeometry>
        </mxCell>
        <mxCell id="pq-XExyDoLhUlRlshY1v-222" value="&lt;div style=&quot;color: rgb(187, 187, 187);&quot;&gt;&lt;div style=&quot;color: rgb(187, 187, 187);&quot;&gt;&lt;span style=&quot;color: rgb(0, 204, 0);&quot;&gt;header:&lt;/span&gt;&lt;/div&gt;&lt;div style=&quot;color: rgb(187, 187, 187);&quot;&gt;&lt;span style=&quot;font-family: &amp;quot;JetBrains Mono&amp;quot;, monospace; font-size: 7.5pt; color: rgb(213, 95, 222);&quot;&gt;#include &lt;/span&gt;&lt;span style=&quot;font-family: &amp;quot;JetBrains Mono&amp;quot;, monospace; font-size: 7.5pt; color: rgb(137, 202, 120);&quot;&gt;&quot;GaugeImplTypes.h&quot;&lt;/span&gt;&lt;/div&gt;&lt;/div&gt;" style="rounded=1;whiteSpace=wrap;html=1;labelBackgroundColor=default;" parent="1" vertex="1">
          <mxGeometry x="3170" y="80" width="200" height="50" as="geometry" />
        </mxCell>
        <mxCell id="pq-XExyDoLhUlRlshY1v-223" value="" style="edgeStyle=segmentEdgeStyle;endArrow=classic;html=1;curved=0;rounded=0;endSize=8;startSize=8;exitX=0.5;exitY=1;exitDx=0;exitDy=0;strokeColor=#00CC00;dashed=1;entryX=0.5;entryY=0;entryDx=0;entryDy=0;" parent="1" source="pq-XExyDoLhUlRlshY1v-222" target="pq-XExyDoLhUlRlshY1v-220" edge="1">
          <mxGeometry width="50" height="50" relative="1" as="geometry">
            <mxPoint x="2890" y="250" as="sourcePoint" />
            <mxPoint x="2990" y="250" as="targetPoint" />
            <Array as="points">
              <mxPoint x="3270" y="190" />
              <mxPoint x="3050" y="190" />
            </Array>
          </mxGeometry>
        </mxCell>
        <mxCell id="pq-XExyDoLhUlRlshY1v-224" value="GaugeImplTypes" style="rounded=0;whiteSpace=wrap;html=1;" parent="1" vertex="1">
          <mxGeometry x="3240" y="210" width="130" height="60" as="geometry" />
        </mxCell>
        <mxCell id="pq-XExyDoLhUlRlshY1v-225" value="" style="edgeStyle=segmentEdgeStyle;endArrow=classic;html=1;curved=0;rounded=0;endSize=8;startSize=8;exitX=1;exitY=0.5;exitDx=0;exitDy=0;strokeColor=#00CC00;dashed=1;entryX=0;entryY=0.5;entryDx=0;entryDy=0;" parent="1" source="pq-XExyDoLhUlRlshY1v-220" target="pq-XExyDoLhUlRlshY1v-224" edge="1">
          <mxGeometry width="50" height="50" relative="1" as="geometry">
            <mxPoint x="2890" y="250" as="sourcePoint" />
            <mxPoint x="2990" y="250" as="targetPoint" />
            <Array as="points">
              <mxPoint x="3180" y="240" />
              <mxPoint x="3180" y="240" />
            </Array>
          </mxGeometry>
        </mxCell>
        <mxCell id="pq-XExyDoLhUlRlshY1v-226" value="AddLink" style="rounded=0;whiteSpace=wrap;html=1;" parent="1" vertex="1">
          <mxGeometry x="3440" y="210" width="130" height="60" as="geometry" />
        </mxCell>
        <mxCell id="pq-XExyDoLhUlRlshY1v-227" value="generate_momenta" style="rounded=0;whiteSpace=wrap;html=1;" parent="1" vertex="1">
          <mxGeometry x="3440" y="290.01" width="130" height="60" as="geometry" />
        </mxCell>
        <mxCell id="pq-XExyDoLhUlRlshY1v-228" value="Field_projectForce" style="rounded=0;whiteSpace=wrap;html=1;" parent="1" vertex="1">
          <mxGeometry x="3440" y="370" width="130" height="60" as="geometry" />
        </mxCell>
        <mxCell id="pq-XExyDoLhUlRlshY1v-229" value="update_field" style="rounded=0;whiteSpace=wrap;html=1;" parent="1" vertex="1">
          <mxGeometry x="3440" y="450" width="130" height="60" as="geometry" />
        </mxCell>
        <mxCell id="pq-XExyDoLhUlRlshY1v-230" value="FieldSquareNorm" style="rounded=0;whiteSpace=wrap;html=1;" parent="1" vertex="1">
          <mxGeometry x="3440" y="530" width="130" height="60" as="geometry" />
        </mxCell>
        <mxCell id="pq-XExyDoLhUlRlshY1v-231" value="Project" style="rounded=0;whiteSpace=wrap;html=1;" parent="1" vertex="1">
          <mxGeometry x="3440" y="610" width="130" height="60" as="geometry" />
        </mxCell>
        <mxCell id="pq-XExyDoLhUlRlshY1v-232" value="TepidConfiguration" style="rounded=0;whiteSpace=wrap;html=1;" parent="1" vertex="1">
          <mxGeometry x="3440" y="770" width="130" height="60" as="geometry" />
        </mxCell>
        <mxCell id="pq-XExyDoLhUlRlshY1v-233" value="HotConfiguration" style="rounded=0;whiteSpace=wrap;html=1;" parent="1" vertex="1">
          <mxGeometry x="3440" y="690" width="130" height="60" as="geometry" />
        </mxCell>
        <mxCell id="pq-XExyDoLhUlRlshY1v-234" value="ColdConfiguration" style="rounded=0;whiteSpace=wrap;html=1;" parent="1" vertex="1">
          <mxGeometry x="3440" y="850" width="130" height="60" as="geometry" />
        </mxCell>
        <mxCell id="pq-XExyDoLhUlRlshY1v-235" value="" style="edgeStyle=segmentEdgeStyle;endArrow=none;html=1;curved=0;rounded=0;endSize=8;startSize=8;entryX=1;entryY=0.5;entryDx=0;entryDy=0;startArrow=classic;startFill=1;endFill=0;exitX=0;exitY=0.5;exitDx=0;exitDy=0;" parent="1" source="pq-XExyDoLhUlRlshY1v-226" target="pq-XExyDoLhUlRlshY1v-224" edge="1">
          <mxGeometry width="50" height="50" relative="1" as="geometry">
            <mxPoint x="2370" y="470" as="sourcePoint" />
            <mxPoint x="1810" y="440" as="targetPoint" />
            <Array as="points">
              <mxPoint x="3400" y="240" />
              <mxPoint x="3400" y="240" />
            </Array>
          </mxGeometry>
        </mxCell>
        <mxCell id="pq-XExyDoLhUlRlshY1v-236" value="" style="edgeStyle=segmentEdgeStyle;endArrow=none;html=1;curved=0;rounded=0;endSize=8;startSize=8;entryX=0.5;entryY=1;entryDx=0;entryDy=0;startArrow=classic;startFill=1;endFill=0;exitX=0.5;exitY=0;exitDx=0;exitDy=0;" parent="1" source="pq-XExyDoLhUlRlshY1v-227" target="pq-XExyDoLhUlRlshY1v-226" edge="1">
          <mxGeometry width="50" height="50" relative="1" as="geometry">
            <mxPoint x="3450" y="250" as="sourcePoint" />
            <mxPoint x="3380" y="250" as="targetPoint" />
            <Array as="points" />
          </mxGeometry>
        </mxCell>
        <mxCell id="pq-XExyDoLhUlRlshY1v-237" value="" style="edgeStyle=segmentEdgeStyle;endArrow=none;html=1;curved=0;rounded=0;endSize=8;startSize=8;entryX=0.5;entryY=1;entryDx=0;entryDy=0;startArrow=classic;startFill=1;endFill=0;exitX=0.5;exitY=0;exitDx=0;exitDy=0;" parent="1" source="pq-XExyDoLhUlRlshY1v-228" target="pq-XExyDoLhUlRlshY1v-227" edge="1">
          <mxGeometry width="50" height="50" relative="1" as="geometry">
            <mxPoint x="3515" y="330" as="sourcePoint" />
            <mxPoint x="3515" y="280" as="targetPoint" />
            <Array as="points" />
          </mxGeometry>
        </mxCell>
        <mxCell id="pq-XExyDoLhUlRlshY1v-238" value="" style="edgeStyle=segmentEdgeStyle;endArrow=none;html=1;curved=0;rounded=0;endSize=8;startSize=8;entryX=0.5;entryY=1;entryDx=0;entryDy=0;startArrow=classic;startFill=1;endFill=0;exitX=0.5;exitY=0;exitDx=0;exitDy=0;" parent="1" source="pq-XExyDoLhUlRlshY1v-229" target="pq-XExyDoLhUlRlshY1v-228" edge="1">
          <mxGeometry width="50" height="50" relative="1" as="geometry">
            <mxPoint x="3525" y="340" as="sourcePoint" />
            <mxPoint x="3525" y="290" as="targetPoint" />
            <Array as="points" />
          </mxGeometry>
        </mxCell>
        <mxCell id="pq-XExyDoLhUlRlshY1v-239" value="" style="edgeStyle=segmentEdgeStyle;endArrow=none;html=1;curved=0;rounded=0;endSize=8;startSize=8;entryX=0.5;entryY=1;entryDx=0;entryDy=0;startArrow=classic;startFill=1;endFill=0;exitX=0.5;exitY=0;exitDx=0;exitDy=0;" parent="1" source="pq-XExyDoLhUlRlshY1v-230" target="pq-XExyDoLhUlRlshY1v-229" edge="1">
          <mxGeometry width="50" height="50" relative="1" as="geometry">
            <mxPoint x="3515" y="550" as="sourcePoint" />
            <mxPoint x="3515" y="500" as="targetPoint" />
            <Array as="points" />
          </mxGeometry>
        </mxCell>
        <mxCell id="pq-XExyDoLhUlRlshY1v-240" value="" style="edgeStyle=segmentEdgeStyle;endArrow=none;html=1;curved=0;rounded=0;endSize=8;startSize=8;entryX=0.5;entryY=1;entryDx=0;entryDy=0;startArrow=classic;startFill=1;endFill=0;exitX=0.5;exitY=0;exitDx=0;exitDy=0;" parent="1" source="pq-XExyDoLhUlRlshY1v-231" target="pq-XExyDoLhUlRlshY1v-230" edge="1">
          <mxGeometry width="50" height="50" relative="1" as="geometry">
            <mxPoint x="3515" y="660" as="sourcePoint" />
            <mxPoint x="3515" y="610" as="targetPoint" />
            <Array as="points" />
          </mxGeometry>
        </mxCell>
        <mxCell id="pq-XExyDoLhUlRlshY1v-241" value="" style="edgeStyle=segmentEdgeStyle;endArrow=none;html=1;curved=0;rounded=0;endSize=8;startSize=8;entryX=0.5;entryY=1;entryDx=0;entryDy=0;startArrow=classic;startFill=1;endFill=0;exitX=0.5;exitY=0;exitDx=0;exitDy=0;" parent="1" source="pq-XExyDoLhUlRlshY1v-233" target="pq-XExyDoLhUlRlshY1v-231" edge="1">
          <mxGeometry width="50" height="50" relative="1" as="geometry">
            <mxPoint x="3515" y="770" as="sourcePoint" />
            <mxPoint x="3515" y="720" as="targetPoint" />
            <Array as="points" />
          </mxGeometry>
        </mxCell>
        <mxCell id="pq-XExyDoLhUlRlshY1v-242" value="" style="edgeStyle=segmentEdgeStyle;endArrow=none;html=1;curved=0;rounded=0;endSize=8;startSize=8;entryX=0.5;entryY=1;entryDx=0;entryDy=0;startArrow=classic;startFill=1;endFill=0;exitX=0.5;exitY=0;exitDx=0;exitDy=0;" parent="1" source="pq-XExyDoLhUlRlshY1v-232" target="pq-XExyDoLhUlRlshY1v-233" edge="1">
          <mxGeometry width="50" height="50" relative="1" as="geometry">
            <mxPoint x="3515" y="880" as="sourcePoint" />
            <mxPoint x="3515" y="830" as="targetPoint" />
            <Array as="points" />
          </mxGeometry>
        </mxCell>
        <mxCell id="pq-XExyDoLhUlRlshY1v-243" value="" style="edgeStyle=segmentEdgeStyle;endArrow=none;html=1;curved=0;rounded=0;endSize=8;startSize=8;entryX=0.5;entryY=1;entryDx=0;entryDy=0;startArrow=classic;startFill=1;endFill=0;exitX=0.5;exitY=0;exitDx=0;exitDy=0;" parent="1" source="pq-XExyDoLhUlRlshY1v-234" target="pq-XExyDoLhUlRlshY1v-232" edge="1">
          <mxGeometry width="50" height="50" relative="1" as="geometry">
            <mxPoint x="3515" y="990" as="sourcePoint" />
            <mxPoint x="3515" y="940" as="targetPoint" />
            <Array as="points" />
          </mxGeometry>
        </mxCell>
        <mxCell id="pq-XExyDoLhUlRlshY1v-244" value="&lt;font style=&quot;color: rgb(255, 102, 255);&quot;&gt;Class: covariant&lt;/font&gt;&lt;div&gt;Type: Lattice&lt;/div&gt;&lt;div&gt;&lt;font style=&quot;color: rgb(0, 255, 255);&quot;&gt;CovShiftForward&lt;/font&gt;&lt;/div&gt;" style="rounded=0;whiteSpace=wrap;html=1;" parent="1" vertex="1">
          <mxGeometry x="3070" y="310" width="130" height="60" as="geometry" />
        </mxCell>
        <mxCell id="pq-XExyDoLhUlRlshY1v-245" value="&lt;font style=&quot;color: rgb(255, 102, 255);&quot;&gt;Class: covariant&lt;/font&gt;&lt;div&gt;Type: Lattice&lt;/div&gt;&lt;div&gt;&lt;font style=&quot;color: rgb(0, 255, 255);&quot;&gt;CovShiftBackward&lt;/font&gt;&lt;/div&gt;" style="rounded=0;whiteSpace=wrap;html=1;" parent="1" vertex="1">
          <mxGeometry x="3070" y="390" width="130" height="60" as="geometry" />
        </mxCell>
        <mxCell id="pq-XExyDoLhUlRlshY1v-246" value="&lt;div&gt;Type: GaugeLinkField&lt;/div&gt;&lt;div&gt;&lt;font style=&quot;color: rgb(0, 255, 255);&quot;&gt;CovShiftIdentityBackward&lt;/font&gt;&lt;/div&gt;" style="rounded=0;whiteSpace=wrap;html=1;" parent="1" vertex="1">
          <mxGeometry x="3055" y="470" width="160" height="60" as="geometry" />
        </mxCell>
        <mxCell id="pq-XExyDoLhUlRlshY1v-247" value="&lt;div&gt;Type: GaugeLinkField&lt;/div&gt;&lt;div&gt;&lt;font style=&quot;color: rgb(0, 255, 255);&quot;&gt;CovShiftIdentityForward&lt;/font&gt;&lt;/div&gt;" style="rounded=0;whiteSpace=wrap;html=1;" parent="1" vertex="1">
          <mxGeometry x="3055" y="550" width="160" height="60" as="geometry" />
        </mxCell>
        <mxCell id="pq-XExyDoLhUlRlshY1v-248" value="&lt;div&gt;Type: GaugeLinkField&lt;/div&gt;&lt;div&gt;&lt;font style=&quot;color: rgb(0, 255, 255);&quot;&gt;ShiftStaple&lt;/font&gt;&lt;/div&gt;" style="rounded=0;whiteSpace=wrap;html=1;" parent="1" vertex="1">
          <mxGeometry x="3055" y="630" width="160" height="60" as="geometry" />
        </mxCell>
        <mxCell id="pq-XExyDoLhUlRlshY1v-249" value="&lt;div&gt;Type: GaugeLinkField&lt;/div&gt;&lt;div&gt;&lt;font style=&quot;color: rgb(0, 255, 255);&quot;&gt;CShiftLink&lt;/font&gt;&lt;/div&gt;" style="rounded=0;whiteSpace=wrap;html=1;" parent="1" vertex="1">
          <mxGeometry x="3055" y="710" width="160" height="60" as="geometry" />
        </mxCell>
        <mxCell id="pq-XExyDoLhUlRlshY1v-250" value="" style="edgeStyle=segmentEdgeStyle;endArrow=none;html=1;curved=0;rounded=0;endSize=8;startSize=8;entryX=1;entryY=0.5;entryDx=0;entryDy=0;startArrow=classic;startFill=1;endFill=0;exitX=0.5;exitY=0;exitDx=0;exitDy=0;" parent="1" source="pq-XExyDoLhUlRlshY1v-244" target="pq-XExyDoLhUlRlshY1v-220" edge="1">
          <mxGeometry width="50" height="50" relative="1" as="geometry">
            <mxPoint x="3450" y="250" as="sourcePoint" />
            <mxPoint x="3380" y="250" as="targetPoint" />
            <Array as="points">
              <mxPoint x="3135" y="240" />
            </Array>
          </mxGeometry>
        </mxCell>
        <mxCell id="pq-XExyDoLhUlRlshY1v-251" value="" style="edgeStyle=segmentEdgeStyle;endArrow=none;html=1;curved=0;rounded=0;endSize=8;startSize=8;entryX=0.5;entryY=1;entryDx=0;entryDy=0;startArrow=classic;startFill=1;endFill=0;exitX=0.5;exitY=0;exitDx=0;exitDy=0;" parent="1" source="pq-XExyDoLhUlRlshY1v-245" target="pq-XExyDoLhUlRlshY1v-244" edge="1">
          <mxGeometry width="50" height="50" relative="1" as="geometry">
            <mxPoint x="3049.79" y="440" as="sourcePoint" />
            <mxPoint x="3049.79" y="390" as="targetPoint" />
            <Array as="points" />
          </mxGeometry>
        </mxCell>
        <mxCell id="pq-XExyDoLhUlRlshY1v-252" value="" style="edgeStyle=segmentEdgeStyle;endArrow=none;html=1;curved=0;rounded=0;endSize=8;startSize=8;entryX=0.5;entryY=1;entryDx=0;entryDy=0;startArrow=classic;startFill=1;endFill=0;exitX=0.5;exitY=0;exitDx=0;exitDy=0;" parent="1" source="pq-XExyDoLhUlRlshY1v-246" target="pq-XExyDoLhUlRlshY1v-245" edge="1">
          <mxGeometry width="50" height="50" relative="1" as="geometry">
            <mxPoint x="3049.79" y="550" as="sourcePoint" />
            <mxPoint x="3049.79" y="500" as="targetPoint" />
            <Array as="points" />
          </mxGeometry>
        </mxCell>
        <mxCell id="pq-XExyDoLhUlRlshY1v-253" value="" style="edgeStyle=segmentEdgeStyle;endArrow=none;html=1;curved=0;rounded=0;endSize=8;startSize=8;entryX=0.5;entryY=1;entryDx=0;entryDy=0;startArrow=classic;startFill=1;endFill=0;exitX=0.5;exitY=0;exitDx=0;exitDy=0;" parent="1" source="pq-XExyDoLhUlRlshY1v-247" target="pq-XExyDoLhUlRlshY1v-246" edge="1">
          <mxGeometry width="50" height="50" relative="1" as="geometry">
            <mxPoint x="3049.79" y="660" as="sourcePoint" />
            <mxPoint x="3049.79" y="610" as="targetPoint" />
            <Array as="points" />
          </mxGeometry>
        </mxCell>
        <mxCell id="pq-XExyDoLhUlRlshY1v-254" value="" style="edgeStyle=segmentEdgeStyle;endArrow=none;html=1;curved=0;rounded=0;endSize=8;startSize=8;entryX=0.5;entryY=1;entryDx=0;entryDy=0;startArrow=classic;startFill=1;endFill=0;exitX=0.5;exitY=0;exitDx=0;exitDy=0;" parent="1" source="pq-XExyDoLhUlRlshY1v-248" target="pq-XExyDoLhUlRlshY1v-247" edge="1">
          <mxGeometry width="50" height="50" relative="1" as="geometry">
            <mxPoint x="3049.79" y="780" as="sourcePoint" />
            <mxPoint x="3049.79" y="730" as="targetPoint" />
            <Array as="points" />
          </mxGeometry>
        </mxCell>
        <mxCell id="pq-XExyDoLhUlRlshY1v-255" value="" style="edgeStyle=segmentEdgeStyle;endArrow=none;html=1;curved=0;rounded=0;endSize=8;startSize=8;entryX=0.5;entryY=1;entryDx=0;entryDy=0;startArrow=classic;startFill=1;endFill=0;exitX=0.5;exitY=0;exitDx=0;exitDy=0;" parent="1" source="pq-XExyDoLhUlRlshY1v-249" target="pq-XExyDoLhUlRlshY1v-248" edge="1">
          <mxGeometry width="50" height="50" relative="1" as="geometry">
            <mxPoint x="3049.79" y="890" as="sourcePoint" />
            <mxPoint x="3049.79" y="840" as="targetPoint" />
            <Array as="points" />
          </mxGeometry>
        </mxCell>
        <mxCell id="9Oo3u1znfNoOlpM0i--Y-210" value="HMC" style="rounded=0;whiteSpace=wrap;html=1;" parent="1" vertex="1">
          <mxGeometry x="1487.5" y="1320" width="120" height="60" as="geometry" />
        </mxCell>
        <mxCell id="9Oo3u1znfNoOlpM0i--Y-211" value="" style="edgeStyle=segmentEdgeStyle;endArrow=none;html=1;curved=0;rounded=0;endSize=8;startSize=8;startArrow=classic;startFill=1;endFill=0;entryX=0;entryY=0.5;entryDx=0;entryDy=0;exitX=1;exitY=0.5;exitDx=0;exitDy=0;" parent="1" source="9Oo3u1znfNoOlpM0i--Y-210" target="165" edge="1">
          <mxGeometry width="50" height="50" relative="1" as="geometry">
            <mxPoint x="1540" y="1300" as="sourcePoint" />
            <mxPoint x="1557.5" y="1210" as="targetPoint" />
            <Array as="points">
              <mxPoint x="1620" y="1350" />
              <mxPoint x="1620" y="1240" />
            </Array>
          </mxGeometry>
        </mxCell>
        <mxCell id="9Oo3u1znfNoOlpM0i--Y-213" value="&lt;span style=&quot;color: rgb(255, 102, 255);&quot;&gt;./Grid/qcd/hmc/HMC.h&lt;/span&gt;" style="edgeLabel;html=1;align=center;verticalAlign=middle;resizable=0;points=[];" parent="9Oo3u1znfNoOlpM0i--Y-211" vertex="1" connectable="0">
          <mxGeometry x="-0.004" relative="1" as="geometry">
            <mxPoint as="offset" />
          </mxGeometry>
        </mxCell>
        <mxCell id="9Oo3u1znfNoOlpM0i--Y-214" value="&lt;font style=&quot;color: rgb(255, 102, 255);&quot;&gt;Class: HybridMonteCarlo&lt;/font&gt;&lt;div&gt;Type: IntegratorType&lt;/div&gt;&lt;div&gt;&lt;font style=&quot;color: rgb(0, 255, 255);&quot;&gt;metropolis_test&lt;/font&gt;&lt;/div&gt;" style="rounded=0;whiteSpace=wrap;html=1;" parent="1" vertex="1">
          <mxGeometry x="1475" y="1410" width="145" height="60" as="geometry" />
        </mxCell>
        <mxCell id="9Oo3u1znfNoOlpM0i--Y-215" value="" style="edgeStyle=segmentEdgeStyle;endArrow=none;html=1;curved=0;rounded=0;endSize=8;startSize=8;entryX=0.5;entryY=1;entryDx=0;entryDy=0;startArrow=classic;startFill=1;endFill=0;exitX=0.5;exitY=0;exitDx=0;exitDy=0;" parent="1" source="9Oo3u1znfNoOlpM0i--Y-214" target="9Oo3u1znfNoOlpM0i--Y-210" edge="1">
          <mxGeometry width="50" height="50" relative="1" as="geometry">
            <mxPoint x="1812.5" y="1250" as="sourcePoint" />
            <mxPoint x="1812.5" y="1230" as="targetPoint" />
            <Array as="points" />
          </mxGeometry>
        </mxCell>
        <mxCell id="9Oo3u1znfNoOlpM0i--Y-216" value="&lt;font style=&quot;color: rgb(255, 102, 255);&quot;&gt;Class: HybridMonteCarlo&lt;/font&gt;&lt;div&gt;Type: RealD&lt;/div&gt;&lt;div&gt;&lt;font style=&quot;color: rgb(0, 255, 255);&quot;&gt;evolve_hmc_step&lt;/font&gt;&lt;/div&gt;" style="rounded=0;whiteSpace=wrap;html=1;" parent="1" vertex="1">
          <mxGeometry x="1475" y="1500" width="145" height="60" as="geometry" />
        </mxCell>
        <mxCell id="9Oo3u1znfNoOlpM0i--Y-217" value="" style="edgeStyle=segmentEdgeStyle;endArrow=none;html=1;curved=0;rounded=0;endSize=8;startSize=8;entryX=0.5;entryY=1;entryDx=0;entryDy=0;startArrow=classic;startFill=1;endFill=0;exitX=0.5;exitY=0;exitDx=0;exitDy=0;" parent="1" source="9Oo3u1znfNoOlpM0i--Y-216" target="9Oo3u1znfNoOlpM0i--Y-214" edge="1">
          <mxGeometry width="50" height="50" relative="1" as="geometry">
            <mxPoint x="1557.5" y="1420" as="sourcePoint" />
            <mxPoint x="1557.5" y="1390" as="targetPoint" />
            <Array as="points" />
          </mxGeometry>
        </mxCell>
        <mxCell id="9Oo3u1znfNoOlpM0i--Y-218" value="&lt;font style=&quot;color: rgb(255, 102, 255);&quot;&gt;Class: HMCResourceManager&lt;/font&gt;&lt;div&gt;Type: ImplementationPolicy&lt;/div&gt;&lt;div&gt;&lt;font style=&quot;color: rgb(0, 255, 255);&quot;&gt;RNGModule RNGs&lt;/font&gt;&lt;/div&gt;" style="rounded=0;whiteSpace=wrap;html=1;" parent="1" vertex="1">
          <mxGeometry x="2040" y="770" width="180" height="60" as="geometry" />
        </mxCell>
        <mxCell id="9Oo3u1znfNoOlpM0i--Y-219" value="&lt;font style=&quot;color: rgb(255, 102, 255);&quot;&gt;Class: HMCResourceManager&lt;/font&gt;&lt;div&gt;Type: ImplementationPolicy&lt;/div&gt;&lt;div&gt;&lt;span style=&quot;color: light-dark(rgb(0, 255, 255), rgb(0, 255, 255)); background-color: transparent;&quot;&gt;SmearingModule CP&lt;/span&gt;&lt;/div&gt;" style="rounded=0;whiteSpace=wrap;html=1;" parent="1" vertex="1">
          <mxGeometry x="2040" y="850" width="180" height="60" as="geometry" />
        </mxCell>
        <mxCell id="9Oo3u1znfNoOlpM0i--Y-221" value="&lt;font style=&quot;color: rgb(255, 102, 255);&quot;&gt;Class: HMCResourceManager&lt;/font&gt;&lt;div&gt;Type: ActionBaseModule&lt;/div&gt;&lt;div&gt;&lt;span style=&quot;color: light-dark(rgb(0, 255, 255), rgb(0, 255, 255)); background-color: transparent;&quot;&gt;ActionList&lt;/span&gt;&lt;span style=&quot;color: rgba(0, 0, 0, 0); font-family: monospace; font-size: 0px; text-align: start; text-wrap: nowrap; background-color: transparent;&quot;&gt;%3CmxGraphModel%3E%3Croot%3E%3CmxCell%20id%3D%220%22%2F%3E%3CmxCell%20id%3D%221%22%20parent%3D%220%22%2F%3E%3CmxCell%20id%3D%222%22%20value%3D%22%26lt%3Bfont%20style%3D%26quot%3Bcolor%3A%20rgb(255%2C%20102%2C%20255)%3B%26quot%3B%26gt%3BClass%3A%20HMCResourceManager%26lt%3B%2Ffont%26gt%3B%26lt%3Bdiv%26gt%3BType%3A%20ImplementationPolicy%26lt%3B%2Fdiv%26gt%3B%26lt%3Bdiv%26gt%3B%26lt%3Bspan%20style%3D%26quot%3Bcolor%3A%20light-dark(rgb(0%2C%20255%2C%20255)%2C%20rgb(0%2C%20255%2C%20255))%3B%20background-color%3A%20transparent%3B%26quot%3B%26gt%3BSmearingModule%20CP%26lt%3B%2Fspan%26gt%3B%26lt%3B%2Fdiv%26gt%3B%22%20style%3D%22rounded%3D0%3BwhiteSpace%3Dwrap%3Bhtml%3D1%3B%22%20vertex%3D%221%22%20parent%3D%221%22%3E%3CmxGeometry%20x%3D%222040%22%20y%3D%22850%22%20width%3D%22170%22%20height%3D%2260%22%20as%3D%22geometry%22%2F%3E%3C%2FmxCell%3E%3C%2Froot%3E%3C%2FmxGraphModel%3E&lt;/span&gt;&lt;/div&gt;" style="rounded=0;whiteSpace=wrap;html=1;" parent="1" vertex="1">
          <mxGeometry x="2040" y="1090" width="180" height="60" as="geometry" />
        </mxCell>
        <mxCell id="9Oo3u1znfNoOlpM0i--Y-222" value="&lt;font style=&quot;color: rgb(255, 102, 255);&quot;&gt;Class: HMCResourceManager&lt;/font&gt;&lt;div&gt;Type: MomentumFilterBase&lt;/div&gt;&lt;div&gt;&lt;span style=&quot;color: light-dark(rgb(0, 255, 255), rgb(0, 255, 255)); background-color: transparent;&quot;&gt;Filter&lt;/span&gt;&lt;span style=&quot;color: rgba(0, 0, 0, 0); font-family: monospace; font-size: 0px; text-align: start; text-wrap: nowrap; background-color: transparent;&quot;&gt;%3CmxGraphModel%3E%3Croot%3E%3CmxCell%20id%3D%220%22%2F%3E%3CmxCell%20id%3D%221%22%20parent%3D%220%22%2F%3E%3CmxCell%20id%3D%222%22%20value%3D%22%26lt%3Bfont%20style%3D%26quot%3Bcolor%3A%20rgb(255%2C%20102%2C%20255)%3B%26quot%3B%26gt%3BClass%3A%20HMCResourceManager%26lt%3B%2Ffont%26gt%3B%26lt%3Bdiv%26gt%3BType%3A%20ImplementationPolicy%26lt%3B%2Fdiv%26gt%3B%26lt%3Bdiv%26gt%3B%26lt%3Bspan%20style%3D%26quot%3Bcolor%3A%20light-dark(rgb(0%2C%20255%2C%20255)%2C%20rgb(0%2C%20255%2C%20255))%3B%20background-color%3A%20transparent%3B%26quot%3B%26gt%3BSmearingModule%20CP%26lt%3B%2Fspan%26gt%3B%26lt%3B%2Fdiv%26gt%3B%22%20style%3D%22rounded%3D0%3BwhiteSpace%3Dwrap%3Bhtml%3D1%3B%22%20vertex%3D%221%22%20parent%3D%221%22%3E%3CmxGeometry%20x%3D%222040%22%20y%3D%22850%22%20width%3D%22170%22%20height%3D%2260%22%20as%3D%22geometry%22%2F%3E%3C%2FmxCell%3E%3C%2Froot%3E%3C%2FmxGraphModel%3E&lt;/span&gt;&lt;/div&gt;" style="rounded=0;whiteSpace=wrap;html=1;" parent="1" vertex="1">
          <mxGeometry x="2040" y="930" width="180" height="60" as="geometry" />
        </mxCell>
        <mxCell id="9Oo3u1znfNoOlpM0i--Y-223" value="&lt;font style=&quot;color: rgb(255, 102, 255);&quot;&gt;Class: HMCResourceManager&lt;/font&gt;&lt;div&gt;Type: ObservableBaseModule&lt;/div&gt;&lt;div&gt;&lt;span style=&quot;background-color: transparent; color: light-dark(rgb(0, 255, 255), rgb(0, 255, 255));&quot;&gt;ObservableList&lt;/span&gt;&lt;span style=&quot;background-color: transparent; text-wrap: nowrap; color: rgba(0, 0, 0, 0); font-family: monospace; font-size: 0px; text-align: start;&quot;&gt;%3CmxGraphModel%3E%3Croot%3E%3CmxCell%20id%3D%220%22%2F%3E%3CmxCell%20id%3D%221%22%20parent%3D%220%22%2F%3E%3CmxCell%20id%3D%222%22%20value%3D%22%26lt%3Bfont%20style%3D%26quot%3Bcolor%3A%20rgb(255%2C%20102%2C%20255)%3B%26quot%3B%26gt%3BClass%3A%20HMCResourceManager%26lt%3B%2Ffont%26gt%3B%26lt%3Bdiv%26gt%3BType%3A%20ImplementationPolicy%26lt%3B%2Fdiv%26gt%3B%26lt%3Bdiv%26gt%3B%26lt%3Bspan%20style%3D%26quot%3Bcolor%3A%20light-dark(rgb(0%2C%20255%2C%20255)%2C%20rgb(0%2C%20255%2C%20255))%3B%20background-color%3A%20transparent%3B%26quot%3B%26gt%3BSmearingModule%20CP%26lt%3B%2Fspan%26gt%3B%26lt%3B%2Fdiv%26gt%3B%22%20style%3D%22rounded%3D0%3BwhiteSpace%3Dwrap%3Bhtml%3D1%3B%22%20vertex%3D%221%22%20parent%3D%221%22%3E%3CmxGeometry%20x%3D%222040%22%20y%3D%22850%22%20width%3D%22170%22%20height%3D%2260%22%20as%3D%22geometry%22%2F%3E%3C%2FmxCell%3E%3C%2Froot%3E%3C%2FmxGraphModel%3E&lt;/span&gt;&lt;/div&gt;" style="rounded=0;whiteSpace=wrap;html=1;" parent="1" vertex="1">
          <mxGeometry x="2040" y="1010" width="180" height="60" as="geometry" />
        </mxCell>
        <mxCell id="9Oo3u1znfNoOlpM0i--Y-224" value="" style="edgeStyle=segmentEdgeStyle;endArrow=none;html=1;curved=0;rounded=0;endSize=8;startSize=8;startArrow=classic;startFill=1;endFill=0;entryX=0.5;entryY=1;entryDx=0;entryDy=0;exitX=0.5;exitY=0;exitDx=0;exitDy=0;" parent="1" source="9Oo3u1znfNoOlpM0i--Y-219" target="9Oo3u1znfNoOlpM0i--Y-218" edge="1">
          <mxGeometry width="50" height="50" relative="1" as="geometry">
            <mxPoint x="2280" y="840" as="sourcePoint" />
            <mxPoint x="2380" y="870" as="targetPoint" />
            <Array as="points" />
          </mxGeometry>
        </mxCell>
        <mxCell id="9Oo3u1znfNoOlpM0i--Y-225" value="" style="edgeStyle=segmentEdgeStyle;endArrow=none;html=1;curved=0;rounded=0;endSize=8;startSize=8;startArrow=classic;startFill=1;endFill=0;exitX=0.5;exitY=0;exitDx=0;exitDy=0;entryX=0.5;entryY=1;entryDx=0;entryDy=0;" parent="1" source="9Oo3u1znfNoOlpM0i--Y-221" target="9Oo3u1znfNoOlpM0i--Y-223" edge="1">
          <mxGeometry width="50" height="50" relative="1" as="geometry">
            <mxPoint x="2129.9" y="1390" as="sourcePoint" />
            <mxPoint x="2129.9" y="1300" as="targetPoint" />
            <Array as="points" />
          </mxGeometry>
        </mxCell>
        <mxCell id="9Oo3u1znfNoOlpM0i--Y-226" value="" style="edgeStyle=segmentEdgeStyle;endArrow=none;html=1;curved=0;rounded=0;endSize=8;startSize=8;startArrow=classic;startFill=1;endFill=0;exitX=0.5;exitY=0;exitDx=0;exitDy=0;entryX=0.5;entryY=1;entryDx=0;entryDy=0;" parent="1" source="9Oo3u1znfNoOlpM0i--Y-223" target="9Oo3u1znfNoOlpM0i--Y-222" edge="1">
          <mxGeometry width="50" height="50" relative="1" as="geometry">
            <mxPoint x="2129.9" y="1245" as="sourcePoint" />
            <mxPoint x="2129.9" y="1155" as="targetPoint" />
            <Array as="points" />
          </mxGeometry>
        </mxCell>
        <mxCell id="9Oo3u1znfNoOlpM0i--Y-227" value="" style="edgeStyle=segmentEdgeStyle;endArrow=none;html=1;curved=0;rounded=0;endSize=8;startSize=8;startArrow=classic;startFill=1;endFill=0;exitX=0.5;exitY=0;exitDx=0;exitDy=0;entryX=0.5;entryY=1;entryDx=0;entryDy=0;" parent="1" source="9Oo3u1znfNoOlpM0i--Y-222" target="9Oo3u1znfNoOlpM0i--Y-219" edge="1">
          <mxGeometry width="50" height="50" relative="1" as="geometry">
            <mxPoint x="2129.9" y="1075" as="sourcePoint" />
            <mxPoint x="2129.9" y="985" as="targetPoint" />
            <Array as="points" />
          </mxGeometry>
        </mxCell>
        <mxCell id="9Oo3u1znfNoOlpM0i--Y-229" value="&lt;div style=&quot;color: rgb(187, 187, 187);&quot;&gt;&lt;div style=&quot;color: rgb(187, 187, 187);&quot;&gt;&lt;span style=&quot;color: rgb(0, 204, 0);&quot;&gt;header:&lt;/span&gt;&lt;/div&gt;&lt;div style=&quot;color: rgb(187, 187, 187);&quot;&gt;&lt;span style=&quot;font-family: &amp;quot;JetBrains Mono&amp;quot;, monospace; font-size: 7.5pt; color: rgb(213, 95, 222);&quot;&gt;#include &lt;/span&gt;&lt;span style=&quot;font-family: &amp;quot;JetBrains Mono&amp;quot;, monospace; font-size: 7.5pt; color: rgb(137, 202, 120);&quot;&gt;&quot;unordered_map.h&quot;&lt;/span&gt;&lt;/div&gt;&lt;/div&gt;" style="rounded=1;whiteSpace=wrap;html=1;labelBackgroundColor=default;" parent="1" vertex="1">
          <mxGeometry x="1835" y="350.01" width="170" height="50" as="geometry" />
        </mxCell>
        <mxCell id="9Oo3u1znfNoOlpM0i--Y-230" value="" style="edgeStyle=segmentEdgeStyle;endArrow=classic;html=1;curved=0;rounded=0;endSize=8;startSize=8;entryX=0;entryY=0.5;entryDx=0;entryDy=0;strokeColor=#00CC00;dashed=1;exitX=1;exitY=0.5;exitDx=0;exitDy=0;" parent="1" source="139" target="9Oo3u1znfNoOlpM0i--Y-229" edge="1">
          <mxGeometry width="50" height="50" relative="1" as="geometry">
            <mxPoint x="1260" y="270" as="sourcePoint" />
            <mxPoint x="1360" y="270" as="targetPoint" />
            <Array as="points">
              <mxPoint x="1810" y="430" />
              <mxPoint x="1810" y="375" />
            </Array>
          </mxGeometry>
        </mxCell>
        <mxCell id="9Oo3u1znfNoOlpM0i--Y-231" value="" style="edgeStyle=segmentEdgeStyle;endArrow=classic;html=1;curved=0;rounded=0;endSize=8;startSize=8;entryX=0.75;entryY=0;entryDx=0;entryDy=0;strokeColor=#00CC00;dashed=1;exitX=1;exitY=0.5;exitDx=0;exitDy=0;" parent="1" source="9Oo3u1znfNoOlpM0i--Y-229" target="9Oo3u1znfNoOlpM0i--Y-218" edge="1">
          <mxGeometry width="50" height="50" relative="1" as="geometry">
            <mxPoint x="1810" y="440" as="sourcePoint" />
            <mxPoint x="1845" y="385" as="targetPoint" />
            <Array as="points">
              <mxPoint x="2175" y="375" />
            </Array>
          </mxGeometry>
        </mxCell>
        <mxCell id="210" value="" style="edgeStyle=segmentEdgeStyle;endArrow=classic;html=1;curved=0;rounded=0;endSize=8;startSize=8;exitX=0.5;exitY=1;exitDx=0;exitDy=0;strokeColor=#00CC00;dashed=1;entryX=0.5;entryY=0;entryDx=0;entryDy=0;" parent="1" source="207" target="211" edge="1">
          <mxGeometry width="50" height="50" relative="1" as="geometry">
            <mxPoint x="2255" y="250" as="sourcePoint" />
            <mxPoint x="2610" y="760" as="targetPoint" />
            <Array as="points">
              <mxPoint x="2525" y="240" />
              <mxPoint x="2610" y="240" />
            </Array>
          </mxGeometry>
        </mxCell>
        <mxCell id="211" value="Scalar.h" style="rounded=0;whiteSpace=wrap;html=1;" parent="1" vertex="1">
          <mxGeometry x="2550" y="760" width="120" height="60" as="geometry" />
        </mxCell>
        <mxCell id="212" value="&lt;div style=&quot;color: rgb(187, 187, 187);&quot;&gt;&lt;span style=&quot;color: rgb(0, 204, 0);&quot;&gt;header:&lt;/span&gt;&lt;/div&gt;&lt;div style=&quot;&quot;&gt;&lt;div style=&quot;&quot;&gt;&lt;pre style=&quot;font-family: &amp;quot;JetBrains Mono&amp;quot;, monospace; font-size: 7.5pt;&quot;&gt;&lt;font color=&quot;#d55fde&quot;&gt;#include&lt;/font&gt;&lt;font color=&quot;#bbbbbb&quot;&gt; &lt;/font&gt;&lt;span style=&quot;color: rgb(137, 202, 120);&quot;&gt;&amp;lt;Grid/qcd/action/scalar/ScalarImpl.h&amp;gt;&lt;br&gt;&lt;/span&gt;&lt;span style=&quot;color: rgb(213, 95, 222);&quot;&gt;#include &lt;/span&gt;&lt;span style=&quot;color: rgb(137, 202, 120);&quot;&gt;&amp;lt;Grid/qcd/action/scalar/ScalarAction.h&amp;gt;&lt;br&gt;&lt;/span&gt;&lt;span style=&quot;color: rgb(213, 95, 222);&quot;&gt;#include &lt;/span&gt;&lt;span style=&quot;color: rgb(137, 202, 120);&quot;&gt;&amp;lt;Grid/qcd/action/scalar/ScalarInteractionAction.h&amp;gt;&lt;br&gt;&lt;/span&gt;&lt;/pre&gt;&lt;/div&gt;&lt;/div&gt;" style="rounded=1;whiteSpace=wrap;html=1;labelBackgroundColor=default;" parent="1" vertex="1">
          <mxGeometry x="2660" y="650" width="330" height="80" as="geometry" />
        </mxCell>
        <mxCell id="213" value="" style="edgeStyle=segmentEdgeStyle;endArrow=classic;html=1;curved=0;rounded=0;endSize=8;startSize=8;exitX=0.5;exitY=1;exitDx=0;exitDy=0;strokeColor=#00CC00;dashed=1;entryX=1;entryY=0.5;entryDx=0;entryDy=0;" parent="1" source="212" target="211" edge="1">
          <mxGeometry width="50" height="50" relative="1" as="geometry">
            <mxPoint x="2535" y="180" as="sourcePoint" />
            <mxPoint x="2620" y="770" as="targetPoint" />
            <Array as="points">
              <mxPoint x="2825" y="790" />
            </Array>
          </mxGeometry>
        </mxCell>
        <mxCell id="214" value="log parameters&lt;br&gt;action name&lt;br&gt;refresh" style="rounded=0;whiteSpace=wrap;html=1;" parent="1" vertex="1">
          <mxGeometry x="2380" y="860" width="120" height="60" as="geometry" />
        </mxCell>
        <mxCell id="215" value="ScalarAction.h" style="rounded=0;whiteSpace=wrap;html=1;" parent="1" vertex="1">
          <mxGeometry x="2550" y="860" width="120" height="60" as="geometry" />
        </mxCell>
        <mxCell id="216" value="RealD" style="rounded=0;whiteSpace=wrap;html=1;" parent="1" vertex="1">
          <mxGeometry x="2380" y="950" width="120" height="60" as="geometry" />
        </mxCell>
        <mxCell id="217" value="deriv" style="rounded=0;whiteSpace=wrap;html=1;" parent="1" vertex="1">
          <mxGeometry x="2380" y="1040" width="120" height="60" as="geometry" />
        </mxCell>
        <mxCell id="219" value="" style="edgeStyle=segmentEdgeStyle;endArrow=none;html=1;curved=0;rounded=0;endSize=8;startSize=8;entryX=0.5;entryY=1;entryDx=0;entryDy=0;startArrow=classic;startFill=1;endFill=0;exitX=0.5;exitY=0;exitDx=0;exitDy=0;" parent="1" source="215" target="211" edge="1">
          <mxGeometry width="50" height="50" relative="1" as="geometry">
            <mxPoint x="2280" y="690" as="sourcePoint" />
            <mxPoint x="2520" y="720" as="targetPoint" />
            <Array as="points">
              <mxPoint x="2610" y="860" />
              <mxPoint x="2610" y="820" />
            </Array>
          </mxGeometry>
        </mxCell>
        <mxCell id="220" value="" style="edgeStyle=segmentEdgeStyle;endArrow=none;html=1;curved=0;rounded=0;endSize=8;startSize=8;entryX=0;entryY=0.5;entryDx=0;entryDy=0;startArrow=classic;startFill=1;endFill=0;exitX=1;exitY=0.5;exitDx=0;exitDy=0;" parent="1" source="214" target="215" edge="1">
          <mxGeometry width="50" height="50" relative="1" as="geometry">
            <mxPoint x="2620" y="870" as="sourcePoint" />
            <mxPoint x="2620" y="830" as="targetPoint" />
            <Array as="points">
              <mxPoint x="2510" y="890" />
              <mxPoint x="2510" y="890" />
            </Array>
          </mxGeometry>
        </mxCell>
        <mxCell id="221" value="" style="edgeStyle=segmentEdgeStyle;endArrow=none;html=1;curved=0;rounded=0;endSize=8;startSize=8;entryX=0.5;entryY=1;entryDx=0;entryDy=0;startArrow=classic;startFill=1;endFill=0;exitX=0.5;exitY=0;exitDx=0;exitDy=0;" parent="1" source="216" target="214" edge="1">
          <mxGeometry width="50" height="50" relative="1" as="geometry">
            <mxPoint x="2510" y="900" as="sourcePoint" />
            <mxPoint x="2560" y="900" as="targetPoint" />
            <Array as="points" />
          </mxGeometry>
        </mxCell>
        <mxCell id="222" value="" style="edgeStyle=segmentEdgeStyle;endArrow=none;html=1;curved=0;rounded=0;endSize=8;startSize=8;entryX=0.5;entryY=1;entryDx=0;entryDy=0;startArrow=classic;startFill=1;endFill=0;exitX=0.5;exitY=0;exitDx=0;exitDy=0;" parent="1" source="217" target="216" edge="1">
          <mxGeometry width="50" height="50" relative="1" as="geometry">
            <mxPoint x="2450" y="960" as="sourcePoint" />
            <mxPoint x="2450" y="930" as="targetPoint" />
            <Array as="points" />
          </mxGeometry>
        </mxCell>
        <mxCell id="223" value="ScalarImpl.h" style="rounded=0;whiteSpace=wrap;html=1;" parent="1" vertex="1">
          <mxGeometry x="2720" y="860" width="120" height="60" as="geometry" />
        </mxCell>
        <mxCell id="224" value="" style="edgeStyle=segmentEdgeStyle;endArrow=none;html=1;curved=0;rounded=0;endSize=8;startSize=8;entryX=0.5;entryY=1;entryDx=0;entryDy=0;startArrow=classic;startFill=1;endFill=0;exitX=0.5;exitY=0;exitDx=0;exitDy=0;" parent="1" source="223" target="211" edge="1">
          <mxGeometry width="50" height="50" relative="1" as="geometry">
            <mxPoint x="2620" y="870" as="sourcePoint" />
            <mxPoint x="2620" y="830" as="targetPoint" />
            <Array as="points">
              <mxPoint x="2780" y="840" />
              <mxPoint x="2610" y="840" />
            </Array>
          </mxGeometry>
        </mxCell>
        <mxCell id="225" value="ScalarInteractionAction.h" style="rounded=0;whiteSpace=wrap;html=1;" parent="1" vertex="1">
          <mxGeometry x="2890" y="860" width="150" height="60" as="geometry" />
        </mxCell>
        <mxCell id="226" value="" style="edgeStyle=segmentEdgeStyle;endArrow=none;html=1;curved=0;rounded=0;endSize=8;startSize=8;entryX=0.5;entryY=1;entryDx=0;entryDy=0;startArrow=classic;startFill=1;endFill=0;exitX=0.5;exitY=0;exitDx=0;exitDy=0;" parent="1" source="225" target="211" edge="1">
          <mxGeometry width="50" height="50" relative="1" as="geometry">
            <mxPoint x="2790" y="870" as="sourcePoint" />
            <mxPoint x="2620" y="830" as="targetPoint" />
            <Array as="points">
              <mxPoint x="2965" y="840" />
              <mxPoint x="2610" y="840" />
            </Array>
          </mxGeometry>
        </mxCell>
        <mxCell id="227" value="log parameters&lt;br&gt;action name&lt;br&gt;refresh" style="rounded=0;whiteSpace=wrap;html=1;" parent="1" vertex="1">
          <mxGeometry x="3090" y="860" width="120" height="60" as="geometry" />
        </mxCell>
        <mxCell id="228" value="RealD" style="rounded=0;whiteSpace=wrap;html=1;" parent="1" vertex="1">
          <mxGeometry x="3090" y="950" width="120" height="60" as="geometry" />
        </mxCell>
        <mxCell id="229" value="deriv" style="rounded=0;whiteSpace=wrap;html=1;" parent="1" vertex="1">
          <mxGeometry x="3090" y="1040" width="120" height="60" as="geometry" />
        </mxCell>
        <mxCell id="230" value="" style="edgeStyle=segmentEdgeStyle;endArrow=none;html=1;curved=0;rounded=0;endSize=8;startSize=8;entryX=0.5;entryY=1;entryDx=0;entryDy=0;startArrow=classic;startFill=1;endFill=0;exitX=0.5;exitY=0;exitDx=0;exitDy=0;" parent="1" source="228" target="227" edge="1">
          <mxGeometry width="50" height="50" relative="1" as="geometry">
            <mxPoint x="3220" y="900" as="sourcePoint" />
            <mxPoint x="3270" y="900" as="targetPoint" />
            <Array as="points" />
          </mxGeometry>
        </mxCell>
        <mxCell id="231" value="" style="edgeStyle=segmentEdgeStyle;endArrow=none;html=1;curved=0;rounded=0;endSize=8;startSize=8;entryX=0.5;entryY=1;entryDx=0;entryDy=0;startArrow=classic;startFill=1;endFill=0;exitX=0.5;exitY=0;exitDx=0;exitDy=0;" parent="1" source="229" target="228" edge="1">
          <mxGeometry width="50" height="50" relative="1" as="geometry">
            <mxPoint x="3160" y="960" as="sourcePoint" />
            <mxPoint x="3160" y="930" as="targetPoint" />
            <Array as="points" />
          </mxGeometry>
        </mxCell>
        <mxCell id="232" value="" style="edgeStyle=segmentEdgeStyle;endArrow=none;html=1;curved=0;rounded=0;endSize=8;startSize=8;entryX=1;entryY=0.5;entryDx=0;entryDy=0;startArrow=classic;startFill=1;endFill=0;exitX=0;exitY=0.5;exitDx=0;exitDy=0;" parent="1" source="227" target="225" edge="1">
          <mxGeometry width="50" height="50" relative="1" as="geometry">
            <mxPoint x="2510" y="900" as="sourcePoint" />
            <mxPoint x="2560" y="900" as="targetPoint" />
            <Array as="points">
              <mxPoint x="3070" y="890" />
              <mxPoint x="3070" y="890" />
            </Array>
          </mxGeometry>
        </mxCell>
        <mxCell id="233" value="&lt;font color=&quot;#d55fde&quot;&gt;Output:&lt;br&gt;force computation&lt;/font&gt;" style="rounded=0;whiteSpace=wrap;html=1;" parent="1" vertex="1">
          <mxGeometry x="3270" y="1040" width="120" height="60" as="geometry" />
        </mxCell>
        <mxCell id="234" value="&lt;div style=&quot;&quot;&gt;&lt;pre style=&quot;font-family: &amp;quot;JetBrains Mono&amp;quot;, monospace; font-size: 7.5pt;&quot;&gt;&lt;font color=&quot;#d55fde&quot;&gt;-TensorRemove(&lt;/font&gt;&lt;/pre&gt;&lt;pre style=&quot;font-family: &amp;quot;JetBrains Mono&amp;quot;, monospace; font-size: 7.5pt;&quot;&gt;&lt;font color=&quot;#d55fde&quot;&gt;sum(trace(action)))&lt;/font&gt;&lt;/pre&gt;&lt;/div&gt;" style="rounded=0;whiteSpace=wrap;html=1;labelBackgroundColor=default;" parent="1" vertex="1">
          <mxGeometry x="3270" y="950" width="120" height="60" as="geometry" />
        </mxCell>
        <mxCell id="235" value="" style="edgeStyle=segmentEdgeStyle;endArrow=none;html=1;curved=0;rounded=0;endSize=8;startSize=8;entryX=1;entryY=0.5;entryDx=0;entryDy=0;startArrow=classic;startFill=1;endFill=0;exitX=0;exitY=0.5;exitDx=0;exitDy=0;" parent="1" source="234" target="228" edge="1">
          <mxGeometry width="50" height="50" relative="1" as="geometry">
            <mxPoint x="3160" y="960" as="sourcePoint" />
            <mxPoint x="3160" y="930" as="targetPoint" />
            <Array as="points" />
          </mxGeometry>
        </mxCell>
        <mxCell id="236" value="" style="edgeStyle=segmentEdgeStyle;endArrow=none;html=1;curved=0;rounded=0;endSize=8;startSize=8;entryX=1;entryY=0.5;entryDx=0;entryDy=0;startArrow=classic;startFill=1;endFill=0;exitX=0;exitY=0.5;exitDx=0;exitDy=0;" parent="1" source="233" target="229" edge="1">
          <mxGeometry width="50" height="50" relative="1" as="geometry">
            <mxPoint x="3280" y="990" as="sourcePoint" />
            <mxPoint x="3220" y="990" as="targetPoint" />
            <Array as="points" />
          </mxGeometry>
        </mxCell>
        <mxCell id="237" value="&lt;font color=&quot;#00cc00&quot;&gt;typedef:&lt;br&gt;monomials.h&lt;/font&gt;" style="rounded=0;whiteSpace=wrap;html=1;" parent="1" vertex="1">
          <mxGeometry x="640" y="1040" width="120" height="60" as="geometry" />
        </mxCell>
        <mxCell id="238" value="" style="edgeStyle=segmentEdgeStyle;endArrow=classic;html=1;curved=0;rounded=0;endSize=8;startSize=8;exitX=0;exitY=0.5;exitDx=0;exitDy=0;entryX=1;entryY=0.5;entryDx=0;entryDy=0;strokeColor=#00CC00;dashed=1;" parent="1" source="50" target="237" edge="1">
          <mxGeometry width="50" height="50" relative="1" as="geometry">
            <mxPoint x="510" y="620" as="sourcePoint" />
            <mxPoint x="630" y="650" as="targetPoint" />
            <Array as="points">
              <mxPoint x="800" y="1070" />
              <mxPoint x="800" y="1070" />
            </Array>
          </mxGeometry>
        </mxCell>
        <mxCell id="239" value="&lt;div style=&quot;color: rgb(187, 187, 187);&quot;&gt;&lt;pre style=&quot;font-family:&#39;JetBrains Mono&#39;,monospace;font-size:7.5pt;&quot;&gt;&lt;div style=&quot;text-align: left;&quot;&gt;&lt;span style=&quot;font-size: 7.5pt; white-space: normal;&quot;&gt;typedef struct &lt;/span&gt;&lt;span style=&quot;font-size: 7.5pt; white-space: normal; color: rgb(229, 192, 123);&quot;&gt;_monomial &lt;/span&gt;&lt;span style=&quot;font-size: 7.5pt; white-space: normal;&quot;&gt;{&lt;/span&gt;&lt;/div&gt;&lt;div style=&quot;text-align: left;&quot;&gt;&lt;span style=&quot;font-size: 7.5pt; white-space: normal;&quot;&gt;    &lt;/span&gt;&lt;span style=&quot;font-size: 7.5pt; white-space: normal; color: rgb(229, 192, 123);&quot;&gt;monomial_data &lt;/span&gt;&lt;span style=&quot;font-size: 7.5pt; white-space: normal; color: rgb(239, 89, 111);&quot;&gt;data&lt;/span&gt;&lt;span style=&quot;font-size: 7.5pt; white-space: normal;&quot;&gt;;&lt;/span&gt;&lt;/div&gt;&lt;div style=&quot;text-align: left;&quot;&gt;&lt;span style=&quot;font-size: 7.5pt; white-space: normal;&quot;&gt;    &lt;/span&gt;&lt;span style=&quot;font-size: 7.5pt; white-space: normal; color: rgb(213, 95, 222);&quot;&gt;void &lt;/span&gt;&lt;span style=&quot;font-size: 7.5pt; white-space: normal;&quot;&gt;*&lt;/span&gt;&lt;span style=&quot;font-size: 7.5pt; white-space: normal; color: rgb(239, 89, 111);&quot;&gt;force_par&lt;/span&gt;&lt;span style=&quot;font-size: 7.5pt; white-space: normal;&quot;&gt;;&lt;/span&gt;&lt;/div&gt;&lt;div style=&quot;text-align: left;&quot;&gt;&lt;span style=&quot;font-size: 7.5pt; white-space: normal;&quot;&gt;    &lt;/span&gt;&lt;span style=&quot;font-size: 7.5pt; white-space: normal; color: rgb(213, 95, 222);&quot;&gt;void &lt;/span&gt;&lt;span style=&quot;font-size: 7.5pt; white-space: normal;&quot;&gt;*&lt;/span&gt;&lt;span style=&quot;font-size: 7.5pt; white-space: normal; color: rgb(239, 89, 111);&quot;&gt;field_par&lt;/span&gt;&lt;span style=&quot;font-size: 7.5pt; white-space: normal;&quot;&gt;;&lt;/span&gt;&lt;/div&gt;&lt;div style=&quot;text-align: left;&quot;&gt;&lt;span style=&quot;font-size: 7.5pt; white-space: normal;&quot;&gt;    &lt;/span&gt;&lt;span style=&quot;font-size: 7.5pt; white-space: normal; color: rgb(213, 95, 222);&quot;&gt;void &lt;/span&gt;&lt;span style=&quot;font-size: 7.5pt; white-space: normal;&quot;&gt;(*&lt;/span&gt;&lt;span style=&quot;font-size: 7.5pt; white-space: normal; color: rgb(239, 89, 111);&quot;&gt;update_force&lt;/span&gt;&lt;span style=&quot;font-size: 7.5pt; white-space: normal;&quot;&gt;)(&lt;/span&gt;&lt;span style=&quot;font-size: 7.5pt; white-space: normal; color: rgb(213, 95, 222);&quot;&gt;double&lt;/span&gt;&lt;span style=&quot;font-size: 7.5pt; white-space: normal;&quot;&gt;, &lt;/span&gt;&lt;span style=&quot;font-size: 7.5pt; white-space: normal; color: rgb(213, 95, 222);&quot;&gt;void&lt;/span&gt;&lt;span style=&quot;font-size: 7.5pt; white-space: normal;&quot;&gt;*);&lt;/span&gt;&lt;/div&gt;&lt;div style=&quot;text-align: left;&quot;&gt;&lt;span style=&quot;font-size: 7.5pt; white-space: normal;&quot;&gt;    &lt;/span&gt;&lt;span style=&quot;font-size: 7.5pt; white-space: normal; color: rgb(213, 95, 222);&quot;&gt;void &lt;/span&gt;&lt;span style=&quot;font-size: 7.5pt; white-space: normal;&quot;&gt;(*&lt;/span&gt;&lt;span style=&quot;font-size: 7.5pt; white-space: normal; color: rgb(239, 89, 111);&quot;&gt;update_field&lt;/span&gt;&lt;span style=&quot;font-size: 7.5pt; white-space: normal;&quot;&gt;)(&lt;/span&gt;&lt;span style=&quot;font-size: 7.5pt; white-space: normal; color: rgb(213, 95, 222);&quot;&gt;double&lt;/span&gt;&lt;span style=&quot;font-size: 7.5pt; white-space: normal;&quot;&gt;, &lt;/span&gt;&lt;span style=&quot;font-size: 7.5pt; white-space: normal; color: rgb(213, 95, 222);&quot;&gt;void&lt;/span&gt;&lt;span style=&quot;font-size: 7.5pt; white-space: normal;&quot;&gt;*);&lt;/span&gt;&lt;/div&gt;&lt;div style=&quot;text-align: left;&quot;&gt;&lt;span style=&quot;font-size: 7.5pt; white-space: normal;&quot;&gt;    &lt;/span&gt;&lt;span style=&quot;font-size: 7.5pt; white-space: normal; color: rgb(213, 95, 222);&quot;&gt;void &lt;/span&gt;&lt;span style=&quot;font-size: 7.5pt; white-space: normal;&quot;&gt;(*&lt;/span&gt;&lt;span style=&quot;font-size: 7.5pt; white-space: normal; color: rgb(239, 89, 111);&quot;&gt;free&lt;/span&gt;&lt;span style=&quot;font-size: 7.5pt; white-space: normal;&quot;&gt;)(&lt;/span&gt;&lt;span style=&quot;font-size: 7.5pt; white-space: normal; color: rgb(213, 95, 222);&quot;&gt;struct &lt;/span&gt;&lt;span style=&quot;font-size: 7.5pt; white-space: normal; color: rgb(229, 192, 123);&quot;&gt;_monomial&lt;/span&gt;&lt;span style=&quot;font-size: 7.5pt; white-space: normal;&quot;&gt;*);&lt;/span&gt;&lt;/div&gt;&lt;div style=&quot;text-align: left;&quot;&gt;&lt;span style=&quot;font-size: 7.5pt; white-space: normal;&quot;&gt;    &lt;/span&gt;&lt;span style=&quot;font-size: 7.5pt; white-space: normal; color: rgb(213, 95, 222);&quot;&gt;void &lt;/span&gt;&lt;span style=&quot;font-size: 7.5pt; white-space: normal;&quot;&gt;(*&lt;/span&gt;&lt;span style=&quot;font-size: 7.5pt; white-space: normal; color: rgb(239, 89, 111);&quot;&gt;gaussian_pf&lt;/span&gt;&lt;span style=&quot;font-size: 7.5pt; white-space: normal;&quot;&gt;)(&lt;/span&gt;&lt;span style=&quot;font-size: 7.5pt; white-space: normal; color: rgb(213, 95, 222);&quot;&gt;const struct &lt;/span&gt;&lt;span style=&quot;font-size: 7.5pt; white-space: normal; color: rgb(229, 192, 123);&quot;&gt;_monomial&lt;/span&gt;&lt;span style=&quot;font-size: 7.5pt; white-space: normal;&quot;&gt;*);&lt;/span&gt;&lt;/div&gt;&lt;div style=&quot;text-align: left;&quot;&gt;&lt;span style=&quot;font-size: 7.5pt; white-space: normal;&quot;&gt;    &lt;/span&gt;&lt;span style=&quot;font-size: 7.5pt; white-space: normal; color: rgb(213, 95, 222);&quot;&gt;void &lt;/span&gt;&lt;span style=&quot;font-size: 7.5pt; white-space: normal;&quot;&gt;(*&lt;/span&gt;&lt;span style=&quot;font-size: 7.5pt; white-space: normal; color: rgb(239, 89, 111);&quot;&gt;correct_pf&lt;/span&gt;&lt;span style=&quot;font-size: 7.5pt; white-space: normal;&quot;&gt;)(&lt;/span&gt;&lt;span style=&quot;font-size: 7.5pt; white-space: normal; color: rgb(213, 95, 222);&quot;&gt;const struct &lt;/span&gt;&lt;span style=&quot;font-size: 7.5pt; white-space: normal; color: rgb(229, 192, 123);&quot;&gt;_monomial&lt;/span&gt;&lt;span style=&quot;font-size: 7.5pt; white-space: normal;&quot;&gt;*);&lt;/span&gt;&lt;/div&gt;&lt;div style=&quot;text-align: left;&quot;&gt;&lt;span style=&quot;font-size: 7.5pt; white-space: normal;&quot;&gt;    &lt;/span&gt;&lt;span style=&quot;font-size: 7.5pt; white-space: normal; color: rgb(213, 95, 222);&quot;&gt;void &lt;/span&gt;&lt;span style=&quot;font-size: 7.5pt; white-space: normal;&quot;&gt;(*&lt;/span&gt;&lt;span style=&quot;font-size: 7.5pt; white-space: normal; color: rgb(239, 89, 111);&quot;&gt;correct_la_pf&lt;/span&gt;&lt;span style=&quot;font-size: 7.5pt; white-space: normal;&quot;&gt;)(&lt;/span&gt;&lt;span style=&quot;font-size: 7.5pt; white-space: normal; color: rgb(213, 95, 222);&quot;&gt;const struct &lt;/span&gt;&lt;span style=&quot;font-size: 7.5pt; white-space: normal; color: rgb(229, 192, 123);&quot;&gt;_monomial&lt;/span&gt;&lt;span style=&quot;font-size: 7.5pt; white-space: normal;&quot;&gt;*);&lt;/span&gt;&lt;/div&gt;&lt;div style=&quot;text-align: left;&quot;&gt;&lt;span style=&quot;font-size: 7.5pt; white-space: normal;&quot;&gt;    &lt;/span&gt;&lt;span style=&quot;font-size: 7.5pt; white-space: normal; color: rgb(213, 95, 222);&quot;&gt;const &lt;/span&gt;&lt;span style=&quot;font-size: 7.5pt; white-space: normal;&quot;&gt;spinor_field *(*&lt;/span&gt;&lt;span style=&quot;font-size: 7.5pt; white-space: normal; color: rgb(239, 89, 111);&quot;&gt;pseudofermion&lt;/span&gt;&lt;span style=&quot;font-size: 7.5pt; white-space: normal;&quot;&gt;)(&lt;/span&gt;&lt;span style=&quot;font-size: 7.5pt; white-space: normal; color: rgb(213, 95, 222);&quot;&gt;const struct &lt;/span&gt;&lt;span style=&quot;font-size: 7.5pt; white-space: normal; color: rgb(229, 192, 123);&quot;&gt;_monomial&lt;/span&gt;&lt;span style=&quot;font-size: 7.5pt; white-space: normal;&quot;&gt;*);&lt;/span&gt;&lt;/div&gt;&lt;div style=&quot;text-align: left;&quot;&gt;&lt;span style=&quot;font-size: 7.5pt; white-space: normal;&quot;&gt;    &lt;/span&gt;&lt;span style=&quot;font-size: 7.5pt; white-space: normal; color: rgb(213, 95, 222);&quot;&gt;void &lt;/span&gt;&lt;span style=&quot;font-size: 7.5pt; white-space: normal;&quot;&gt;(*&lt;/span&gt;&lt;span style=&quot;font-size: 7.5pt; white-space: normal; color: rgb(239, 89, 111);&quot;&gt;add_local_action&lt;/span&gt;&lt;span style=&quot;font-size: 7.5pt; white-space: normal;&quot;&gt;)(&lt;/span&gt;&lt;span style=&quot;font-size: 7.5pt; white-space: normal; color: rgb(213, 95, 222);&quot;&gt;const struct &lt;/span&gt;&lt;span style=&quot;font-size: 7.5pt; white-space: normal; color: rgb(229, 192, 123);&quot;&gt;_monomial&lt;/span&gt;&lt;span style=&quot;font-size: 7.5pt; white-space: normal;&quot;&gt;*, scalar_field*);&lt;/span&gt;&lt;/div&gt;&lt;div style=&quot;text-align: left;&quot;&gt;&lt;span style=&quot;font-size: 7.5pt; white-space: normal;&quot;&gt;} &lt;/span&gt;&lt;span style=&quot;font-size: 7.5pt; white-space: normal; color: rgb(229, 192, 123);&quot;&gt;monomial&lt;/span&gt;&lt;span style=&quot;font-size: 7.5pt; white-space: normal;&quot;&gt;;&lt;/span&gt;&lt;/div&gt;&lt;/pre&gt;&lt;/div&gt;" style="rounded=0;whiteSpace=wrap;html=1;labelBackgroundColor=default;" parent="1" vertex="1">
          <mxGeometry x="429" y="790" width="390" height="190" as="geometry" />
        </mxCell>
        <mxCell id="240" value="" style="edgeStyle=segmentEdgeStyle;endArrow=classic;html=1;curved=0;rounded=0;endSize=8;startSize=8;exitX=0.5;exitY=1;exitDx=0;exitDy=0;entryX=0.5;entryY=0;entryDx=0;entryDy=0;strokeColor=#00CC00;dashed=1;" parent="1" source="239" target="237" edge="1">
          <mxGeometry width="50" height="50" relative="1" as="geometry">
            <mxPoint x="850" y="1080" as="sourcePoint" />
            <mxPoint x="770" y="1080" as="targetPoint" />
            <Array as="points">
              <mxPoint x="625" y="1010" />
              <mxPoint x="700" y="1010" />
            </Array>
          </mxGeometry>
        </mxCell>
        <mxCell id="241" value="&lt;div style=&quot;color: rgb(187, 187, 187);&quot;&gt;&lt;pre style=&quot;font-family:&#39;JetBrains Mono&#39;,monospace;font-size:7.5pt;&quot;&gt;&lt;div style=&quot;text-align: left;&quot;&gt;&lt;div style=&quot;&quot;&gt;&lt;pre style=&quot;font-family:&#39;JetBrains Mono&#39;,monospace;font-size:7.5pt;&quot;&gt;struct &lt;span style=&quot;color:#e5c07b;&quot;&gt;_monomial&lt;/span&gt;* &lt;span style=&quot;color:#61afef;&quot;&gt;pg_create&lt;/span&gt;(&lt;span style=&quot;color:#d55fde;&quot;&gt;const &lt;/span&gt;&lt;span style=&quot;color:#e5c07b;&quot;&gt;monomial_data&lt;/span&gt;*);&lt;br&gt;&lt;span style=&quot;color:#d55fde;&quot;&gt;struct &lt;/span&gt;&lt;span style=&quot;color:#e5c07b;&quot;&gt;_monomial&lt;/span&gt;* &lt;span style=&quot;color:#61afef;&quot;&gt;lw_create&lt;/span&gt;(&lt;span style=&quot;color:#d55fde;&quot;&gt;const &lt;/span&gt;&lt;span style=&quot;color:#e5c07b;&quot;&gt;monomial_data&lt;/span&gt;*);&lt;br&gt;&lt;span style=&quot;color:#d55fde;&quot;&gt;struct &lt;/span&gt;&lt;span style=&quot;color:#e5c07b;&quot;&gt;_monomial&lt;/span&gt;* &lt;span style=&quot;color:#61afef;&quot;&gt;hmc_create&lt;/span&gt;(&lt;span style=&quot;color:#d55fde;&quot;&gt;const &lt;/span&gt;&lt;span style=&quot;color:#e5c07b;&quot;&gt;monomial_data&lt;/span&gt;*);&lt;br&gt;&lt;span style=&quot;color:#d55fde;&quot;&gt;struct &lt;/span&gt;&lt;span style=&quot;color:#e5c07b;&quot;&gt;_monomial&lt;/span&gt;* &lt;span style=&quot;color:#61afef;&quot;&gt;rhmc_create&lt;/span&gt;(&lt;span style=&quot;color:#d55fde;&quot;&gt;const &lt;/span&gt;&lt;span style=&quot;color:#e5c07b;&quot;&gt;monomial_data&lt;/span&gt;*);&lt;br&gt;&lt;span style=&quot;color:#d55fde;&quot;&gt;struct &lt;/span&gt;&lt;span style=&quot;color:#e5c07b;&quot;&gt;_monomial&lt;/span&gt;* &lt;span style=&quot;color:#61afef;&quot;&gt;tm_create&lt;/span&gt;(&lt;span style=&quot;color:#d55fde;&quot;&gt;const &lt;/span&gt;&lt;span style=&quot;color:#e5c07b;&quot;&gt;monomial_data&lt;/span&gt;*);&lt;br&gt;&lt;span style=&quot;color:#d55fde;&quot;&gt;struct &lt;/span&gt;&lt;span style=&quot;color:#e5c07b;&quot;&gt;_monomial&lt;/span&gt;* &lt;span style=&quot;color:#61afef;&quot;&gt;tm_alt_create&lt;/span&gt;(&lt;span style=&quot;color:#d55fde;&quot;&gt;const &lt;/span&gt;&lt;span style=&quot;color:#e5c07b;&quot;&gt;monomial_data&lt;/span&gt;*);&lt;br&gt;&lt;span style=&quot;color:#d55fde;&quot;&gt;struct &lt;/span&gt;&lt;span style=&quot;color:#e5c07b;&quot;&gt;_monomial&lt;/span&gt;* &lt;span style=&quot;color:#61afef;&quot;&gt;hasen_create&lt;/span&gt;(&lt;span style=&quot;color:#d55fde;&quot;&gt;const &lt;/span&gt;&lt;span style=&quot;color:#e5c07b;&quot;&gt;monomial_data&lt;/span&gt;*);&lt;br&gt;&lt;span style=&quot;color:#d55fde;&quot;&gt;struct &lt;/span&gt;&lt;span style=&quot;color:#e5c07b;&quot;&gt;_monomial&lt;/span&gt;* &lt;span style=&quot;color:#61afef;&quot;&gt;hasen_tm_create&lt;/span&gt;(&lt;span style=&quot;color:#d55fde;&quot;&gt;const &lt;/span&gt;&lt;span style=&quot;color:#e5c07b;&quot;&gt;monomial_data&lt;/span&gt;*);&lt;br&gt;&lt;span style=&quot;color:#d55fde;&quot;&gt;struct &lt;/span&gt;&lt;span style=&quot;color:#e5c07b;&quot;&gt;_monomial&lt;/span&gt;* &lt;span style=&quot;color:#61afef;&quot;&gt;hasen_tm_alt_create&lt;/span&gt;(&lt;span style=&quot;color:#d55fde;&quot;&gt;const &lt;/span&gt;&lt;span style=&quot;color:#e5c07b;&quot;&gt;monomial_data&lt;/span&gt;*);&lt;br&gt;&lt;span style=&quot;color:#d55fde;&quot;&gt;struct &lt;/span&gt;&lt;span style=&quot;color:#e5c07b;&quot;&gt;_monomial&lt;/span&gt;* &lt;span style=&quot;color:#61afef;&quot;&gt;ff_create&lt;/span&gt;(&lt;span style=&quot;color:#d55fde;&quot;&gt;const &lt;/span&gt;&lt;span style=&quot;color:#e5c07b;&quot;&gt;monomial_data&lt;/span&gt;*);&lt;br&gt;&lt;span style=&quot;color:#d55fde;&quot;&gt;struct &lt;/span&gt;&lt;span style=&quot;color:#e5c07b;&quot;&gt;_monomial&lt;/span&gt;* &lt;span style=&quot;color:#61afef;&quot;&gt;hmc_ff_create&lt;/span&gt;(&lt;span style=&quot;color:#d55fde;&quot;&gt;const &lt;/span&gt;&lt;span style=&quot;color:#e5c07b;&quot;&gt;monomial_data&lt;/span&gt;*);&lt;br&gt;&lt;span style=&quot;color:#d55fde;&quot;&gt;struct &lt;/span&gt;&lt;span style=&quot;color:#e5c07b;&quot;&gt;_monomial&lt;/span&gt;* &lt;span style=&quot;color:#61afef;&quot;&gt;hasen_ff_create&lt;/span&gt;(&lt;span style=&quot;color:#d55fde;&quot;&gt;const &lt;/span&gt;&lt;span style=&quot;color:#e5c07b;&quot;&gt;monomial_data&lt;/span&gt;*);&lt;br&gt;&lt;span style=&quot;color:#d55fde;&quot;&gt;struct &lt;/span&gt;&lt;span style=&quot;color:#e5c07b;&quot;&gt;_monomial&lt;/span&gt;* &lt;span style=&quot;color:#61afef;&quot;&gt;scalar_create&lt;/span&gt;(&lt;span style=&quot;color:#d55fde;&quot;&gt;const &lt;/span&gt;&lt;span style=&quot;color:#e5c07b;&quot;&gt;monomial_data&lt;/span&gt;*);&lt;br&gt;&lt;br&gt;&lt;span style=&quot;color:#d55fde;&quot;&gt;const &lt;/span&gt;&lt;span style=&quot;color:#e5c07b;&quot;&gt;monomial &lt;/span&gt;*&lt;span style=&quot;color:#61afef;&quot;&gt;add_mon&lt;/span&gt;(&lt;span style=&quot;color:#e5c07b;&quot;&gt;monomial_data&lt;/span&gt;*);&lt;br&gt;&lt;span style=&quot;color:#d55fde;&quot;&gt;const &lt;/span&gt;&lt;span style=&quot;color:#e5c07b;&quot;&gt;monomial &lt;/span&gt;*&lt;span style=&quot;color:#61afef;&quot;&gt;mon_n&lt;/span&gt;(&lt;span style=&quot;color:#d55fde;&quot;&gt;int&lt;/span&gt;);&lt;br&gt;&lt;span style=&quot;color:#d55fde;&quot;&gt;int &lt;/span&gt;&lt;span style=&quot;color:#61afef;&quot;&gt;num_mon&lt;/span&gt;();&lt;br&gt;&lt;/pre&gt;&lt;/div&gt;&lt;/div&gt;&lt;/pre&gt;&lt;/div&gt;" style="rounded=0;whiteSpace=wrap;html=1;labelBackgroundColor=default;" parent="1" vertex="1">
          <mxGeometry x="440" y="1160" width="390" height="230" as="geometry" />
        </mxCell>
        <mxCell id="242" value="" style="edgeStyle=segmentEdgeStyle;endArrow=classic;html=1;curved=0;rounded=0;endSize=8;startSize=8;exitX=0.5;exitY=1;exitDx=0;exitDy=0;entryX=0.5;entryY=0;entryDx=0;entryDy=0;strokeColor=#00CC00;dashed=1;" parent="1" source="237" target="241" edge="1">
          <mxGeometry width="50" height="50" relative="1" as="geometry">
            <mxPoint x="635" y="990" as="sourcePoint" />
            <mxPoint x="710" y="1050" as="targetPoint" />
            <Array as="points">
              <mxPoint x="700" y="1130" />
              <mxPoint x="635" y="1130" />
            </Array>
          </mxGeometry>
        </mxCell>
        <mxCell id="246" style="edgeStyle=orthogonalEdgeStyle;rounded=0;orthogonalLoop=1;jettySize=auto;html=1;exitX=0.5;exitY=1;exitDx=0;exitDy=0;entryX=0.5;entryY=0;entryDx=0;entryDy=0;" parent="1" source="243" target="245" edge="1">
          <mxGeometry relative="1" as="geometry">
            <mxPoint x="2760" y="1110" as="targetPoint" />
          </mxGeometry>
        </mxCell>
        <mxCell id="243" value="class:&lt;br&gt;ScalarImplTypes" style="rounded=0;whiteSpace=wrap;html=1;" parent="1" vertex="1">
          <mxGeometry x="2720" y="950" width="120" height="60" as="geometry" />
        </mxCell>
        <mxCell id="244" value="" style="edgeStyle=segmentEdgeStyle;endArrow=none;html=1;curved=0;rounded=0;endSize=8;startSize=8;entryX=0.5;entryY=1;entryDx=0;entryDy=0;startArrow=classic;startFill=1;endFill=0;exitX=0.5;exitY=0;exitDx=0;exitDy=0;" parent="1" source="243" target="223" edge="1">
          <mxGeometry width="50" height="50" relative="1" as="geometry">
            <mxPoint x="2450" y="960" as="sourcePoint" />
            <mxPoint x="2450" y="930" as="targetPoint" />
            <Array as="points" />
          </mxGeometry>
        </mxCell>
        <mxCell id="245" value="class:&lt;br&gt;ScalarAdjMatrixImplTypes" style="rounded=0;whiteSpace=wrap;html=1;" parent="1" vertex="1">
          <mxGeometry x="2705" y="1040" width="150" height="60" as="geometry" />
        </mxCell>
        <mxCell id="r4riAzU-TcHBH1yOgTjB-246" value="Runner line 198" style="rounded=0;whiteSpace=wrap;html=1;" vertex="1" parent="1">
          <mxGeometry x="1440" y="860" width="120" height="60" as="geometry" />
        </mxCell>
        <mxCell id="r4riAzU-TcHBH1yOgTjB-247" value="&lt;font color=&quot;#00cc00&quot;&gt;hmc.h ---&amp;gt; line 270&amp;nbsp;&lt;/font&gt;" style="rounded=1;whiteSpace=wrap;html=1;labelBackgroundColor=default;" vertex="1" parent="1">
          <mxGeometry x="1275" y="700" width="400" height="80" as="geometry" />
        </mxCell>
        <mxCell id="r4riAzU-TcHBH1yOgTjB-248" value="Runner line 198" style="rounded=0;whiteSpace=wrap;html=1;" vertex="1" parent="1">
          <mxGeometry x="1330" y="610" width="120" height="60" as="geometry" />
        </mxCell>
      </root>
    </mxGraphModel>
  </diagram>
</mxfile>
